<?xml version="1.0" encoding="UTF-8"?><svg id="uob-logo_214x60px_Chinese_UOB_Logo.svg" xmlns="http://www.w3.org/2000/svg" viewBox="0 0 30 30"><defs><style>.cls-1{fill:#fb002c;}</style></defs><path class="cls-1" d="M25.61,4.39C22.77,1.56,19.01,0,15,0S7.23,1.56,4.39,4.39C1.56,7.23,0,10.99,0,15s1.56,7.77,4.39,10.61c2.83,2.83,6.6,4.39,10.61,4.39s7.77-1.56,10.61-4.39c2.83-2.83,4.39-6.6,4.39-10.61s-1.56-7.77-4.39-10.61Zm-3.26,3.29V3.25c.89,.56,1.71,1.21,2.45,1.96,.75,.75,1.41,1.58,1.97,2.48h-4.43Zm-2.09,15.6v4.55c-1.66,.68-3.43,1.03-5.25,1.03-.6,0-1.2-.04-1.8-.12v-5.46h7.05ZM1.78,10.84c.2-.64,.46-1.28,.75-1.89h3.36v1.89H1.78Zm20.91,4.24v1.73h-2.43v1.15h2.43v1.45c0,.61,.5,1.11,1.11,1.11h3.92c-.24,.56-.52,1.1-.83,1.62h-5.48v-1.62h-1.15v1.62h-.96l-.02-5.28,.58-.55,.02-.02v-1.66l-5.27,4.98h-5.28v1.14h2.73v7.8c-1.95-.42-3.74-1.24-5.34-2.44v-5.09l1.9-1.33v-1.33l-3.02,2.09-.02,.02v4.69c-.13-.12-.25-.23-.36-.35-1.08-1.08-1.96-2.31-2.63-3.66l6.01-3.97,.03-.02v-1.42l-6.51,4.33c-.63-1.61-.95-3.31-.95-5.07,0-1.02,.11-2.03,.33-3.01H5.89v4.32l3.45-2.37v.91h5.89v-1.15h-4.75v-5.61h.61l5.58,6.4-1.75,1.75h-5.59v1.14h6.07l6.4-6.4,4.37,3.79h2.68c0,.08,0,.16,0,.23,0,.6-.04,1.2-.12,1.8h-4.91v-1.73h-1.15Zm-4.54,2.84v4.22h-4.94v-1.39h2.03l.82-.87,2.09-1.97ZM9.34,7.3v5.25l-2.3,1.58v-2.14h1.02v-1.15h-1.02v-1.89h1.02v-1.15H3.16c.43-.7,.92-1.36,1.46-1.98v1.47h4.72Zm1.15-2.52v-.87h3.6v.87h-3.6Zm3.6,1.15v1.03h-3.6v-1.03h3.6Zm7.11,1.77h-5.29v1.15h5.29v1.14l-3.71,3.71-3-3.44,.71-.55,.02-.02v-1.38l-1.48,1.09-1.12-1.28h2.62V2.76h-5.89v3.39h-3.57v-1.48c2.54-2.27,5.81-3.52,9.23-3.52,2.19,0,4.27,.49,6.2,1.46V7.68Zm7.34,10.27c-.1,.48-.23,.96-.39,1.42h-4.32v-1.42h4.71Zm-1.93-4.31l-4.27-3.7v-1.11h5.07c.75,1.5,1.21,3.12,1.38,4.81h-2.17Zm-.5,9.64c-.4,.54-.84,1.04-1.31,1.52-1.01,1.01-2.15,1.85-3.4,2.5v-4.01h4.71Z"/></svg>