<svg width="120" height="120" viewBox="0 0 120 120" fill="none" xmlns="http://www.w3.org/2000/svg">
<g clip-path="url(#clip0_3607_230004)">
<path d="M92.4899 65.4305H87.4199L88.4199 64.4305C88.7399 64.1105 89.1999 63.7505 89.7699 63.3505C91.5699 62.1305 92.1499 61.4705 92.1499 60.0805C92.1499 59.3205 91.8999 58.6205 91.4299 58.1405C90.8599 57.5405 89.9799 57.2305 88.8399 57.2305C86.0899 57.2305 85.5299 59.2305 85.4199 60.0905H87.2799C87.4699 59.1205 87.9599 58.6605 88.8399 58.6605C90.0299 58.6605 90.2199 59.5705 90.2199 60.1105C90.2199 61.0305 89.7799 61.4005 88.3399 62.4105C87.3099 63.1605 86.5799 63.8705 86.1199 64.6205C85.6699 65.3405 85.4699 66.1005 85.4699 66.9905H92.2699L92.4799 65.4305H92.4899Z" fill="#005EB8"/>
<path d="M92.2897 67.4787H85.4897C85.2097 67.4787 84.9897 67.2587 84.9897 66.9787C84.9897 65.9887 85.2297 65.1287 85.7197 64.3487C86.1997 63.5687 86.9697 62.7987 88.0797 61.9987C89.5497 60.9587 89.7497 60.7287 89.7497 60.0987C89.7497 59.1487 89.1297 59.1488 88.8697 59.1488C88.3497 59.1488 87.9697 59.3187 87.7997 60.1787C87.7497 60.4087 87.5497 60.5788 87.3097 60.5788H85.4497C85.3097 60.5788 85.1697 60.5187 85.0697 60.4087C84.9797 60.2987 84.9297 60.1587 84.9497 60.0187C85.0497 59.2487 85.6297 56.7188 88.8597 56.7188C90.1497 56.7188 91.1497 57.0787 91.8097 57.7787C92.3597 58.3487 92.6597 59.1588 92.6597 60.0588C92.6597 61.7088 91.8897 62.4987 90.0597 63.7487C89.4997 64.1387 89.0697 64.4787 88.7797 64.7687L88.6297 64.9187H92.4897C92.6297 64.9187 92.7697 64.9787 92.8697 65.0887C92.9697 65.1987 93.0097 65.3387 92.9897 65.4787L92.7797 67.0387C92.7497 67.2887 92.5297 67.4688 92.2797 67.4688L92.2897 67.4787ZM86.0097 66.4787H91.8497L91.9197 65.9187H87.4197C87.2197 65.9187 87.0397 65.7987 86.9597 65.6087C86.8797 65.4187 86.9297 65.2087 87.0697 65.0687L88.0697 64.0687C88.3997 63.7387 88.8797 63.3487 89.4897 62.9287C91.2697 61.7087 91.6597 61.2087 91.6597 60.0687C91.6597 59.4387 91.4497 58.8587 91.0797 58.4787C90.6097 57.9787 89.8597 57.7287 88.8497 57.7287C87.0097 57.7287 86.3097 58.7287 86.0497 59.5887H86.9097C87.2897 58.4187 88.1597 58.1587 88.8497 58.1587C90.0097 58.1587 90.7297 58.9087 90.7297 60.1087C90.7297 61.3087 89.9897 61.8687 88.6397 62.8187C87.6497 63.5387 86.9697 64.2087 86.5497 64.8787C86.2397 65.3787 86.0597 65.8988 85.9997 66.4888L86.0097 66.4787Z" fill="#005EB8"/>
<path d="M54.7095 38.2713C53.0095 36.9713 50.7495 36.2812 48.1795 36.2812C44.6695 36.2812 41.7095 37.6812 39.6495 40.3012C37.7895 42.6712 36.7695 45.9113 36.7695 49.4513C36.7695 52.9913 37.7895 56.3313 39.6595 58.6413C41.6895 61.1513 44.6295 62.4913 48.1495 62.4913C50.6095 62.4913 52.7095 61.8713 54.3995 60.6313C56.0695 59.3913 57.2795 57.5912 57.9895 55.2612C58.0395 55.1212 58.0095 54.9713 57.9295 54.8613C57.8495 54.7513 57.7095 54.6712 57.5595 54.6712H55.6195C55.4295 54.6712 55.2695 54.7813 55.2095 54.9613C54.5095 56.6413 53.6395 57.8513 52.5095 58.6313C51.3795 59.4113 49.9995 59.7913 48.2495 59.7913C45.4195 59.7913 43.1295 58.6013 41.6395 56.3313C40.4495 54.5213 39.7795 52.0713 39.7795 49.4213C39.7795 46.7713 40.4295 44.3012 41.6095 42.4812C43.0895 40.1912 45.3295 38.9812 48.1095 38.9812C51.7995 38.9812 53.9895 40.5413 55.2295 44.0013C55.2895 44.1713 55.4695 44.3012 55.6595 44.3012H57.5995C57.7395 44.3012 57.8695 44.2412 57.9495 44.1312C58.0295 44.0212 58.0795 43.8913 58.0495 43.7513C57.5595 41.4813 56.4295 39.5913 54.7295 38.2813L54.7095 38.2713Z" fill="#005EB8"/>
<path d="M48.1495 62.9891C44.4795 62.9891 41.4095 61.5991 39.2695 58.9591C37.3295 56.5791 36.2695 53.2091 36.2695 49.4591C36.2695 45.7091 37.3295 42.4491 39.2495 39.9991C41.4195 37.2391 44.5095 35.7891 48.1795 35.7891C50.8695 35.7891 53.2295 36.5091 55.0195 37.8791C56.7895 39.2391 57.9995 41.2291 58.5295 43.6391C58.5695 43.8191 58.5695 44.1091 58.3495 44.4191C58.1795 44.6591 57.8995 44.7991 57.5895 44.7991H55.6495C55.2495 44.7991 54.8895 44.5491 54.7495 44.1691C53.5695 40.8791 51.5795 39.4791 48.0995 39.4791C45.4995 39.4791 43.3995 40.6091 42.0195 42.7491C40.8895 44.4991 40.2695 46.8691 40.2695 49.4191C40.2695 51.9691 40.8995 54.3191 42.0495 56.0591C43.4395 58.1791 45.5795 59.2991 48.2395 59.2991C49.8695 59.2991 51.1695 58.9491 52.2195 58.2291C53.2495 57.5191 54.0695 56.3891 54.7395 54.7791C54.8695 54.4291 55.2195 54.1891 55.6195 54.1891H57.5595C57.8595 54.1891 58.1595 54.3391 58.3295 54.5891C58.5095 54.8391 58.5595 55.1491 58.4595 55.4391C57.7195 57.8491 56.4495 59.7491 54.6895 61.0491C52.9195 62.3491 50.7195 63.0091 48.1495 63.0091V62.9891ZM48.1795 36.7791C44.8295 36.7791 42.0095 38.0991 40.0395 40.6091C38.2495 42.8791 37.2695 46.0291 37.2695 49.4491C37.2695 52.8691 38.2595 56.1191 40.0495 58.3191C41.9895 60.7191 44.7895 61.9791 48.1495 61.9791C50.5095 61.9791 52.5095 61.3891 54.0995 60.2191C55.6795 59.0391 56.8295 57.3191 57.5095 55.0991L55.6195 55.1591C54.9195 56.9291 53.9795 58.2091 52.7895 59.0291C51.5695 59.8691 50.0895 60.2791 48.2495 60.2791C45.2395 60.2791 42.8095 58.9991 41.2195 56.5891C39.9695 54.6891 39.2795 52.1291 39.2795 49.3991C39.2795 46.6691 39.9595 44.0991 41.1895 42.1791C42.7595 39.7391 45.1595 38.4491 48.1095 38.4491C51.9795 38.4491 54.3895 40.1491 55.6995 43.7991L57.5995 43.7691C57.0795 41.6491 55.9995 39.8491 54.4195 38.6391C52.8095 37.4091 50.6595 36.7591 48.1895 36.7591L48.1795 36.7791Z" fill="#005EB8"/>
<path d="M72.7197 36.2812C69.0997 36.2812 66.0797 37.6313 63.9497 40.1713C61.9997 42.5113 60.9297 45.7812 60.9297 49.4012C60.9297 53.0212 62.0097 56.3413 63.9697 58.7013C66.0697 61.2313 69.0097 62.5513 72.4897 62.5513C76.1897 62.5513 79.2397 61.1413 81.3597 58.4813C83.2197 56.1313 84.2497 52.8413 84.2497 49.2513C84.2497 45.6613 83.1497 42.3413 81.1697 40.0213C79.0697 37.5713 76.1597 36.2913 72.7297 36.2913L72.7197 36.2812ZM79.9697 55.4113C79.3197 56.7313 78.4397 57.7813 77.3497 58.5213C76.0497 59.4113 74.4397 59.8512 72.5997 59.8512C69.8497 59.8512 67.5597 58.6612 65.9897 56.4212C64.6597 54.5312 63.9197 51.9912 63.9197 49.3012C63.9197 46.6112 64.5997 44.2113 65.8397 42.4213C67.3797 40.1613 69.7297 38.9913 72.6397 38.9913C75.3897 38.9913 77.6597 40.1313 79.1997 42.2813C80.5197 44.1113 81.2497 46.6012 81.2497 49.3012C81.2497 50.5912 81.0897 53.1113 79.9597 55.4013L79.9697 55.4113Z" fill="#005EB8"/>
<path d="M72.4797 63.0513C68.8397 63.0513 65.7597 61.6613 63.5797 59.0213C61.5497 56.5713 60.4297 53.1612 60.4297 49.4012C60.4297 45.6412 61.5397 42.2613 63.5697 39.8513C65.7997 37.1913 68.9697 35.7812 72.7297 35.7812C76.4897 35.7812 79.3597 37.1313 81.5497 39.6913C83.6197 42.1013 84.7497 45.5013 84.7497 49.2513C84.7497 53.0013 83.6797 56.3513 81.7497 58.7913C79.5297 61.5813 76.3297 63.0513 72.4897 63.0513H72.4797ZM72.7197 36.7812C69.2697 36.7812 66.3697 38.0612 64.3297 40.4913C62.4597 42.7313 61.4297 45.8912 61.4297 49.4012C61.4297 52.9112 62.4697 56.1113 64.3497 58.3813C66.3397 60.7813 69.1497 62.0513 72.4797 62.0513C75.9997 62.0513 78.9397 60.7112 80.9597 58.1712C82.7497 55.9012 83.7397 52.7313 83.7397 49.2513C83.7397 45.7713 82.6897 42.5713 80.7797 40.3413C78.7797 38.0113 75.9997 36.7812 72.7197 36.7812ZM72.5897 60.3613C69.6697 60.3613 67.2397 59.1013 65.5697 56.7113C64.1797 54.7413 63.4097 52.1112 63.4097 49.3012C63.4097 46.4912 64.1197 44.0112 65.4197 42.1312C67.0497 39.7412 69.5397 38.4812 72.6297 38.4812C75.5497 38.4812 77.9597 39.6912 79.5997 41.9812C80.9797 43.9012 81.7397 46.4912 81.7397 49.3012C81.7397 50.6512 81.5697 53.2613 80.3997 55.6213C79.7097 57.0313 78.7697 58.1413 77.6097 58.9313C76.2297 59.8713 74.5297 60.3512 72.5797 60.3512L72.5897 60.3613ZM72.6397 39.4913C69.8997 39.4913 67.6897 40.6013 66.2497 42.7013C65.0597 44.4213 64.4097 46.7612 64.4097 49.3012C64.4097 51.8412 65.1097 54.3313 66.3797 56.1313C67.8597 58.2413 69.9997 59.3512 72.5797 59.3512C74.3297 59.3512 75.8397 58.9312 77.0497 58.1012C78.0597 57.4112 78.8897 56.4313 79.5097 55.1813C80.5897 53.0013 80.7497 50.5612 80.7497 49.3012C80.7497 46.7112 80.0597 44.3112 78.7897 42.5712C77.3397 40.5512 75.2097 39.4913 72.6297 39.4913H72.6397Z" fill="#005EB8"/>
<path d="M39.9999 90.4214L37.6799 92.7414V74.8514C37.6799 74.0714 37.0399 73.4414 36.2699 73.4414C35.4999 73.4414 34.8599 74.0814 34.8599 74.8514V92.7414L32.5399 90.4214C32.2699 90.1514 31.9199 90.0114 31.5399 90.0114C31.1599 90.0114 30.8099 90.1514 30.5399 90.4214C30.2699 90.6914 30.1299 91.0414 30.1299 91.4214C30.1299 91.8014 30.2699 92.1514 30.5399 92.4214L35.2599 97.1414C35.2599 97.1414 35.3199 97.2014 35.3599 97.2414C35.3599 97.2414 35.3699 97.2481 35.3899 97.2614L35.4099 97.2814C35.4099 97.2814 35.4599 97.3114 35.4699 97.3314C35.4899 97.3314 35.4899 97.3514 35.4999 97.3514H35.5199C35.5199 97.3514 35.5799 97.3814 35.5999 97.4014H35.6499C35.6499 97.4014 35.7099 97.4314 35.7499 97.4514H35.7799C35.7799 97.4514 35.8399 97.4814 35.8899 97.4814H35.9199C35.9199 97.4814 35.9999 97.5014 36.0299 97.5114H36.0799C36.0799 97.5114 36.1399 97.5314 36.1799 97.5314H36.4699C36.4699 97.5314 36.5299 97.5114 36.5699 97.5114H36.6199C36.6199 97.5114 36.6799 97.4914 36.7299 97.4814H36.7599C36.7599 97.4814 36.8199 97.4614 36.8699 97.4514H36.8999C36.8999 97.4514 36.9599 97.4214 36.9999 97.4014H37.0299C37.0299 97.4014 37.0799 97.3714 37.1099 97.3514H37.1299C37.1299 97.3514 37.1499 97.3314 37.1599 97.3314C37.1899 97.3114 37.2099 97.3014 37.2399 97.2814L37.2599 97.2614C37.2599 97.2614 37.2799 97.2414 37.2899 97.2414C37.3199 97.2114 37.3699 97.1814 37.3899 97.1414L42.1099 92.4214C42.6699 91.8614 42.6699 90.9714 42.1099 90.4214C41.4899 89.8614 40.5799 89.8614 40.0399 90.4214H39.9999Z" fill="#005EB8"/>
<path d="M36.4404 98.0109H36.1504C36.1504 98.0109 36.0204 98.0009 35.9804 97.9909C35.9204 97.9909 35.8704 97.9909 35.8204 97.9609C35.7304 97.9609 35.6604 97.9309 35.6104 97.9209C35.5704 97.9209 35.5304 97.9009 35.5004 97.8809L35.4604 97.8609C35.4104 97.8509 35.3604 97.8309 35.3104 97.8009C35.3104 97.8009 35.3004 97.8009 35.2904 97.8009C35.2204 97.7809 35.1504 97.7409 35.1004 97.6909C35.0604 97.6709 35.0204 97.6409 34.9904 97.6109L34.8904 97.5109L30.1704 92.7909C29.8104 92.4309 29.6104 91.9509 29.6104 91.4409C29.6104 90.9309 29.8104 90.4509 30.1704 90.0909C30.8904 89.3709 32.1604 89.3709 32.8804 90.0909L34.3504 91.5609V74.8709C34.3504 73.8109 35.2104 72.9609 36.2604 72.9609C37.3104 72.9609 38.1704 73.8209 38.1704 74.8709V91.5609L39.2804 90.4509L39.2204 90.3909C39.0204 90.1909 39.0204 89.8809 39.2204 89.6809C39.4204 89.4809 39.7304 89.4809 39.9304 89.6809L40.0303 89.7809C40.7503 89.3609 41.7004 89.4609 42.3904 90.0709C42.7704 90.4509 42.9704 90.9309 42.9704 91.4409C42.9704 91.9509 42.7704 92.4309 42.4104 92.7909L37.6904 97.5109C37.6904 97.5109 37.6204 97.5809 37.6004 97.6009C37.5804 97.6109 37.5704 97.6309 37.5504 97.6409C37.5304 97.6509 37.5204 97.6709 37.5004 97.6809C37.4704 97.7009 37.4404 97.7209 37.4204 97.7309C37.4204 97.7309 37.4104 97.7309 37.4004 97.7409C37.3504 97.7809 37.2904 97.8009 37.2304 97.8209C37.2104 97.8309 37.1804 97.8409 37.1604 97.8509L37.0904 97.8909C37.0304 97.9209 36.9704 97.9309 36.9104 97.9409H36.8904C36.8304 97.9709 36.8204 97.9709 36.7604 97.9709C36.7004 97.9909 36.6204 98.0009 36.5804 98.0009C36.5804 98.0009 36.5104 98.0209 36.4404 98.0209V98.0109ZM36.0904 97.0009C36.1404 97.0009 36.2104 97.0109 36.2304 97.0209L36.5504 97.0009C36.6004 96.9809 36.6504 96.9709 36.6704 96.9609C36.6904 96.9609 36.7104 96.9509 36.7304 96.9409H36.7404C36.7404 96.9409 36.7904 96.9109 36.8204 96.9009C36.8204 96.9009 36.8404 96.8909 36.8504 96.8809C36.8704 96.8809 36.8904 96.8609 36.9104 96.8609C36.9104 96.8609 36.9604 96.8209 36.9904 96.7909L41.7104 92.0709C41.8804 91.9009 41.9804 91.6709 41.9804 91.4209C41.9804 91.1709 41.8804 90.9509 41.7104 90.7709C41.3104 90.4109 40.7104 90.4009 40.3604 90.7709L38.0404 93.0909C37.9004 93.2309 37.6804 93.2809 37.5004 93.2009C37.3104 93.1209 37.1904 92.9409 37.1904 92.7409V74.8409C37.1904 74.3409 36.7804 73.9309 36.2804 73.9309C35.7804 73.9309 35.3704 74.3409 35.3704 74.8409V92.7409C35.3704 92.9409 35.2504 93.1209 35.0604 93.2009C34.8704 93.2809 34.6604 93.2409 34.5204 93.0909L32.2004 90.7709C31.8504 90.4209 31.2504 90.4209 30.9004 90.7709C30.7304 90.9409 30.6304 91.1709 30.6304 91.4209C30.6304 91.6709 30.7204 91.8909 30.9004 92.0709L35.6204 96.7909C35.6204 96.7909 35.6904 96.8409 35.7204 96.8709C35.7204 96.8709 35.7204 96.8709 35.7304 96.8709C35.7304 96.8709 35.7404 96.8709 35.7504 96.8709C35.7604 96.8709 35.7704 96.8809 35.7804 96.8909C35.8104 96.8909 35.8504 96.9109 35.8704 96.9209H35.9004C35.9004 96.9209 35.9404 96.9409 35.9604 96.9509C36.0104 96.9509 36.0604 96.9709 36.1004 96.9809L36.0904 97.0009Z" fill="#005EB8"/>
<path d="M66.2401 92.4097C66.8001 91.8497 66.8001 90.9597 66.2401 90.4097C65.7001 89.8697 64.7901 89.8497 64.2501 90.4097L61.9301 92.7297V74.8397C61.9301 74.0597 61.2901 73.4297 60.5201 73.4297C59.7501 73.4297 59.1101 74.0697 59.1101 74.8397V92.7297L56.7901 90.4097C56.5201 90.1397 56.1701 89.9997 55.7901 89.9997C55.4101 89.9997 55.0601 90.1397 54.7901 90.4097C54.2301 90.9697 54.2301 91.8597 54.7901 92.4097L59.5101 97.1297C59.5101 97.1297 59.5701 97.1897 59.6101 97.2297C59.6101 97.2297 59.6201 97.2364 59.6401 97.2497L59.6601 97.2697C59.6601 97.2697 59.7101 97.3197 59.7201 97.3197C59.7201 97.3197 59.7301 97.3264 59.7501 97.3397H59.7701C59.7701 97.3397 59.8301 97.3697 59.8501 97.3897H59.8801C59.8801 97.3897 59.9401 97.4197 59.9801 97.4397C59.9801 97.4397 59.9868 97.4464 60.0001 97.4597C60.0001 97.4597 60.0801 97.4897 60.1001 97.4897H60.1301C60.1301 97.4897 60.2101 97.5097 60.2401 97.5197H60.2901C60.2901 97.5197 60.3501 97.5397 60.3901 97.5397C60.4901 97.5597 60.5801 97.5597 60.6801 97.5397C60.7101 97.5397 60.7301 97.5397 60.7801 97.5197H60.8301C60.8301 97.5197 60.8901 97.4997 60.9401 97.4897H60.9601C60.9601 97.4897 61.0401 97.4697 61.0701 97.4597H61.1001C61.1001 97.4597 61.1601 97.4297 61.2001 97.4097L61.2301 97.3897C61.2301 97.3897 61.2801 97.3597 61.3101 97.3397L61.3301 97.3197L61.3501 97.2997C61.3801 97.2797 61.4101 97.2497 61.4301 97.2397H61.4501L61.4701 97.2197C61.5001 97.1897 61.5501 97.1597 61.5701 97.1197L66.3101 92.4197L66.2401 92.4097Z" fill="#005EB8"/>
<path d="M60.5103 98.0292C60.4403 98.0292 60.3603 98.0292 60.2803 98.0092C60.2203 98.0092 60.1104 97.9892 60.0404 97.9692C59.9104 97.9592 59.8203 97.9192 59.7603 97.8892C59.7403 97.8792 59.7103 97.8692 59.6903 97.8492C59.6503 97.8392 59.6004 97.8192 59.5604 97.7992C59.4504 97.7692 59.3704 97.6992 59.3204 97.6592C59.2904 97.6392 59.2704 97.6192 59.2404 97.5992L59.1404 97.4992L54.4203 92.7792C54.0603 92.4192 53.8604 91.9392 53.8604 91.4292C53.8604 90.9192 54.0603 90.4392 54.4203 90.0792C55.1403 89.3592 56.4104 89.3592 57.1304 90.0792L58.6003 91.5492V74.8592C58.6003 73.7992 59.4603 72.9492 60.5103 72.9492C61.5603 72.9492 62.4203 73.8092 62.4203 74.8592V91.5492L63.8904 90.0792C64.2304 89.7292 64.7104 89.5292 65.2204 89.5192C65.2204 89.5192 65.2204 89.5192 65.2304 89.5192C65.7404 89.5192 66.2304 89.7192 66.5904 90.0792C67.3404 90.8292 67.3404 92.0392 66.5904 92.7892L61.8503 97.4992C61.8203 97.5392 61.7904 97.5692 61.7704 97.5892C61.7704 97.5892 61.6904 97.6592 61.6504 97.6892C61.6404 97.6892 61.6304 97.7092 61.6104 97.7192C61.5704 97.7492 61.5304 97.7892 61.4904 97.8092L61.3804 97.8692C61.3304 97.8992 61.2204 97.9392 61.1404 97.9592C61.1204 97.9592 61.0904 97.9692 61.0804 97.9792C61.0404 97.9992 61.0204 98.0092 60.9904 98.0092C60.9404 98.0292 60.8804 98.0392 60.8204 98.0392C60.7604 98.0492 60.7104 98.0592 60.6604 98.0592C60.6304 98.0592 60.5804 98.0692 60.5204 98.0692L60.5103 98.0292ZM61.3904 97.1392L61.4504 97.1792L61.3904 97.1092V97.1292V97.1392ZM60.2904 97.0092C60.3404 97.0092 60.4104 97.0192 60.4304 97.0292C60.4804 97.0292 60.5204 97.0292 60.5604 97.0292C60.6104 97.0092 60.6804 97.0092 60.7304 97.0092C60.7904 96.9892 60.8403 96.9792 60.8703 96.9692C60.9003 96.9592 60.9204 96.9492 60.9304 96.9492C60.9304 96.9492 60.9504 96.9492 60.9504 96.9392C60.9804 96.9092 61.0204 96.8792 61.0704 96.8592L61.0904 96.8392C61.1104 96.8192 61.1204 96.7992 61.1404 96.7792L65.8804 92.0792C66.2404 91.7192 66.2404 91.1492 65.8804 90.7892C65.7104 90.6192 65.4804 90.5192 65.2304 90.5192C64.9904 90.5192 64.7704 90.6092 64.6104 90.7792L62.2803 93.1092C62.1403 93.2492 61.9204 93.2992 61.7404 93.2192C61.5504 93.1392 61.4304 92.9592 61.4304 92.7592V74.8592C61.4304 74.3592 61.0204 73.9492 60.5204 73.9492C60.0204 73.9492 59.6104 74.3592 59.6104 74.8592V92.7592C59.6104 92.9592 59.4904 93.1392 59.3004 93.2192C59.1104 93.2992 58.9003 93.2592 58.7603 93.1092L56.4403 90.7892C56.0903 90.4392 55.4904 90.4392 55.1404 90.7892C54.9704 90.9592 54.8703 91.1892 54.8703 91.4392C54.8703 91.6892 54.9704 91.9092 55.1404 92.0892L59.8604 96.8092C59.8604 96.8092 59.9404 96.8692 59.9704 96.8992C59.9704 96.8992 59.9804 96.8992 59.9904 96.8992C60.0004 96.8992 60.0204 96.9092 60.0404 96.9192C60.0604 96.9192 60.0903 96.9392 60.1003 96.9492L60.2004 96.9992C60.2004 96.9992 60.2004 96.9992 60.2104 96.9992C60.2404 96.9992 60.2704 97.0092 60.3004 97.0192L60.2904 97.0092Z" fill="#005EB8"/>
<path d="M90.4704 92.4097C91.0304 91.8497 91.0304 90.9597 90.4704 90.4097C89.9104 89.8597 89.0204 89.8497 88.4804 90.4097L86.1604 92.7297V74.8397C86.1604 74.0597 85.5204 73.4297 84.7504 73.4297C83.9804 73.4297 83.3403 74.0697 83.3403 74.8397V92.7297L81.0203 90.4097C80.4603 89.8497 79.5703 89.8497 79.0203 90.4097C78.7503 90.6797 78.6104 91.0297 78.6104 91.4097C78.6104 91.7897 78.7503 92.1397 79.0203 92.4097L83.7604 97.1497C83.7604 97.1497 83.8204 97.2097 83.8604 97.2297C83.8604 97.2297 83.8704 97.2364 83.8904 97.2497L83.9104 97.2697C83.9104 97.2697 83.9603 97.2997 83.9903 97.3197C84.0103 97.3197 84.0103 97.3397 84.0203 97.3397H84.0404C84.0404 97.3397 84.0904 97.3697 84.1204 97.3897C84.1404 97.3897 84.1404 97.4097 84.1504 97.4097H84.1703C84.1703 97.4097 84.2303 97.4397 84.2703 97.4597L84.2904 97.4797C84.2904 97.4797 84.3704 97.5097 84.4004 97.5097H84.4304C84.4304 97.5097 84.4904 97.5297 84.5404 97.5397H84.5903C84.5903 97.5397 84.6504 97.5597 84.6904 97.5597C84.7904 97.5797 84.8804 97.5797 84.9804 97.5597C85.0104 97.5597 85.0304 97.5597 85.0804 97.5397H85.1303C85.1303 97.5397 85.1904 97.5197 85.2304 97.5097L85.2604 97.4897C85.2604 97.4897 85.3204 97.4697 85.3604 97.4597H85.3904C85.3904 97.4597 85.4503 97.4297 85.4903 97.4097H85.5104C85.5104 97.4097 85.5603 97.3797 85.5903 97.3597H85.6104C85.6104 97.3597 85.6304 97.3397 85.6404 97.3397C85.6704 97.3197 85.7004 97.2897 85.7204 97.2797H85.7403L85.7604 97.2597C85.7604 97.2597 85.8404 97.1997 85.8704 97.1597L90.5404 92.4197L90.4704 92.4097Z" fill="#005EB8"/>
<path d="M84.8004 98.0397C84.7304 98.0397 84.6504 98.0397 84.5704 98.0197C84.5204 98.0197 84.4104 97.9997 84.3604 97.9897C84.3504 97.9897 84.3303 97.9897 84.3103 97.9797C84.1903 97.9697 84.1004 97.9297 84.0504 97.8997C84.0204 97.8897 84.0004 97.8697 83.9704 97.8497C83.9704 97.8497 83.9603 97.8497 83.9503 97.8497C83.9203 97.8497 83.9003 97.8297 83.8803 97.8197C83.8803 97.8197 83.8503 97.7997 83.8403 97.7897C83.8403 97.7897 83.8304 97.7897 83.8204 97.7897C83.8004 97.7897 83.7704 97.7697 83.7504 97.7597C83.7504 97.7597 83.7004 97.7297 83.6804 97.7097H83.6604C83.6604 97.7097 83.6304 97.6897 83.6104 97.6797C83.5904 97.6697 83.5703 97.6597 83.5603 97.6397C83.4903 97.5997 83.4404 97.5397 83.4104 97.5097L78.6703 92.7697C78.3103 92.4097 78.1104 91.9297 78.1104 91.4197C78.1104 90.9097 78.3103 90.4197 78.6703 90.0597C79.4203 89.3097 80.6303 89.3097 81.3803 90.0597L82.8503 91.5297V74.8397C82.8503 73.7797 83.7104 72.9297 84.7604 72.9297C85.8104 72.9297 86.6703 73.7897 86.6703 74.8397V91.5297L88.1404 90.0597C88.4804 89.7097 88.9604 89.5097 89.4704 89.4997C89.4704 89.4997 89.4704 89.4997 89.4804 89.4997C89.9904 89.4997 90.4803 89.6997 90.8403 90.0597C91.5903 90.8097 91.5903 92.0197 90.8403 92.7697L86.1703 97.5097C86.1703 97.5097 86.0804 97.5897 86.0704 97.5997C86.0404 97.6397 85.9903 97.6697 85.9503 97.6997C85.9103 97.7297 85.8703 97.7597 85.8103 97.7897C85.8103 97.7897 85.7704 97.8097 85.7504 97.8197C85.7304 97.8197 85.7104 97.8397 85.6904 97.8497C85.6604 97.8597 85.6303 97.8697 85.6003 97.8797C85.5603 97.8997 85.5104 97.9197 85.4604 97.9297C85.4404 97.9297 85.4104 97.9497 85.4004 97.9497C85.3704 97.9697 85.2703 98.0197 85.1303 98.0297C85.0703 98.0397 85.0204 98.0497 84.9704 98.0497C84.9404 98.0497 84.8904 98.0597 84.8304 98.0597L84.8004 98.0397ZM84.0203 97.4097V97.4497L84.0603 97.3497L84.0203 97.4097ZM83.8803 97.3697V97.4297L83.9404 97.2897L83.8803 97.3697ZM84.5903 97.0197C84.6403 97.0197 84.7104 97.0297 84.7304 97.0397C84.7804 97.0397 84.8204 97.0397 84.8604 97.0397C84.9004 97.0297 84.9604 97.0197 85.0004 97.0197C85.0804 96.9897 85.1204 96.9797 85.1404 96.9697C85.1704 96.9597 85.1904 96.9497 85.2104 96.9397C85.2104 96.9397 85.2304 96.9297 85.2504 96.9197C85.2604 96.9197 85.2804 96.8997 85.3004 96.8897C85.3204 96.8897 85.3303 96.8697 85.3503 96.8697C85.3803 96.8397 85.4003 96.8297 85.4203 96.8097L90.1104 92.0597C90.4704 91.6897 90.4704 91.1297 90.1104 90.7597C89.9404 90.5897 89.7104 90.4897 89.4604 90.4897C89.1804 90.4997 88.9904 90.5797 88.8304 90.7497L86.5004 93.0797C86.3604 93.2197 86.1404 93.2697 85.9604 93.1897C85.7704 93.1097 85.6504 92.9297 85.6504 92.7297V74.8297C85.6504 74.3297 85.2403 73.9197 84.7403 73.9197C84.2403 73.9197 83.8304 74.3297 83.8304 74.8297V92.7297C83.8304 92.9297 83.7103 93.1097 83.5203 93.1897C83.3303 93.2697 83.1204 93.2297 82.9804 93.0797L80.6604 90.7597C80.3004 90.3997 79.7304 90.3997 79.3604 90.7597C79.1904 90.9297 79.0903 91.1597 79.0903 91.4097C79.0903 91.6597 79.1804 91.8797 79.3604 92.0597L84.1003 96.7997C84.1003 96.7997 84.1304 96.8197 84.1404 96.8297C84.1604 96.8397 84.1704 96.8497 84.1904 96.8597C84.2104 96.8597 84.2203 96.8697 84.2403 96.8797C84.2703 96.8897 84.2904 96.9097 84.3204 96.9197C84.3404 96.9197 84.3603 96.9297 84.3803 96.9397C84.3803 96.9397 84.4604 96.9797 84.4804 96.9897C84.5204 96.9897 84.5603 96.9997 84.5903 97.0197Z" fill="#005EB8"/>
<path d="M98.4202 82.9917C98.5902 82.9317 98.7702 82.8517 98.9402 82.7817C101.58 81.6717 103.96 80.0617 106 78.0317C108.03 76.0017 109.64 73.6117 110.75 70.9717C111.91 68.2417 112.5 65.3317 112.5 62.3217C112.5 59.3117 111.94 56.5517 110.83 53.8717L110.81 53.8217C109.73 51.2117 108.17 48.8617 106.2 46.8317C104.23 44.8017 101.92 43.1917 99.3502 42.0517C97.4602 41.2117 95.4702 40.6417 93.4202 40.3517L93.0102 40.2917L92.9302 39.8817C92.5802 37.9117 91.9802 36.0017 91.1202 34.2117C89.9402 31.7117 88.3202 29.4917 86.3002 27.5817C82.1702 23.6717 76.7502 21.5117 71.0402 21.5117C67.4602 21.5117 63.9202 22.3817 60.7602 24.0217L60.4902 24.1617L60.2202 24.0217C57.0702 22.3717 53.5102 21.5117 49.9402 21.5117C44.2302 21.5117 38.8302 23.6717 34.6802 27.5817C32.6602 29.4917 31.0402 31.7117 29.8602 34.2117C29.0002 36.0217 28.4002 37.9317 28.0502 39.8817L27.9702 40.2917L27.5602 40.3517C25.5302 40.6417 23.5202 41.2117 21.6302 42.0517C19.0602 43.1917 16.7502 44.8217 14.7802 46.8317C12.8102 48.8617 11.2502 51.2217 10.1702 53.8217C9.06023 56.5217 8.49023 59.3817 8.49023 62.3217C8.49023 65.2617 9.08023 68.2317 10.2402 70.9717C11.3502 73.6117 12.9602 75.9917 14.9902 78.0317C17.0202 80.0617 19.4102 81.6717 22.0502 82.7817C22.2202 82.8617 22.4002 82.9217 22.5702 82.9917C23.0102 83.1617 23.5102 83.1217 23.9102 82.8517C24.3102 82.5817 24.5302 82.1517 24.5302 81.6717C24.5302 81.0817 24.1802 80.5617 23.6402 80.3517C20.0602 78.9417 17.0102 76.5217 14.8002 73.3617C12.5402 70.1317 11.3402 66.3417 11.3202 62.4117C11.2702 51.9717 19.7302 43.2417 30.1502 42.9617C30.3902 42.9617 30.5802 42.7717 30.5902 42.5317C31.1902 32.3117 39.7002 24.3217 49.9502 24.3217C53.6102 24.3217 57.1702 25.3417 60.2502 27.2817C60.3902 27.3817 60.5802 27.3817 60.7302 27.2817C63.8102 25.3417 67.3702 24.3217 71.0302 24.3217C81.2602 24.3217 89.7702 32.3117 90.3902 42.5317C90.4102 42.7717 90.6002 42.9417 90.8302 42.9617C101.26 43.2517 109.71 51.9917 109.66 62.4117C109.64 66.3517 108.44 70.1317 106.18 73.3617C103.97 76.5217 100.92 78.9217 97.3402 80.3517C96.8202 80.5617 96.4502 81.1017 96.4502 81.6717C96.4502 82.1517 96.6702 82.5817 97.0702 82.8517C97.4702 83.1017 97.9602 83.1717 98.4002 82.9917H98.4202Z" fill="#005EB8"/>
<path d="M23.12 83.59C22.88 83.59 22.64 83.55 22.4 83.45C22.2 83.38 22.03 83.31 21.85 83.23C19.16 82.1 16.73 80.46 14.65 78.38C12.57 76.3 10.93 73.87 9.79 71.16C8.6 68.37 8 65.39 8 62.32C8 59.25 8.58 56.4 9.72 53.63C10.82 50.98 12.41 48.57 14.43 46.48C16.47 44.39 18.82 42.75 21.44 41.59C23.37 40.73 25.41 40.15 27.5 39.85H27.56L27.57 39.77C27.93 37.76 28.55 35.81 29.42 33.98C30.62 31.44 32.27 29.16 34.34 27.2C38.59 23.2 44.13 21 49.95 21C53.63 21 57.27 21.89 60.47 23.57L60.51 23.59L60.55 23.57C63.8 21.89 67.43 21 71.07 21C76.9 21 82.44 23.2 86.67 27.21C88.74 29.16 90.39 31.44 91.59 33.99C92.46 35.81 93.08 37.76 93.44 39.79V39.85L93.52 39.86C95.6 40.15 97.64 40.73 99.58 41.6C102.22 42.77 104.58 44.42 106.59 46.49C108.62 48.59 110.2 50.99 111.3 53.64C112.45 56.42 113.02 59.33 113.02 62.33C113.02 65.33 112.42 68.38 111.23 71.17C110.09 73.87 108.45 76.3 106.37 78.38C104.29 80.46 101.86 82.1 99.15 83.24C99.04 83.28 98.96 83.31 98.87 83.35C98.78 83.39 98.69 83.42 98.6 83.46C98.02 83.68 97.36 83.61 96.82 83.27C96.28 82.9 95.97 82.32 95.97 81.67C95.97 80.89 96.45 80.17 97.18 79.89C100.68 78.49 103.65 76.13 105.79 73.08C107.99 69.93 109.16 66.24 109.18 62.41C109.23 52.24 101 43.74 90.83 43.46C90.31 43.43 89.93 43.05 89.9 42.56C89.3 32.61 81.01 24.81 71.04 24.81C67.47 24.81 64 25.81 61.01 27.69C60.71 27.89 60.3 27.89 59.99 27.69C57.01 25.81 53.54 24.82 49.97 24.82C39.98 24.82 31.7 32.61 31.11 42.56C31.08 43.07 30.66 43.46 30.17 43.46C20.02 43.74 11.79 52.24 11.84 62.41C11.86 66.24 13.03 69.93 15.23 73.08C17.38 76.16 20.36 78.52 23.84 79.89C24.57 80.17 25.05 80.87 25.05 81.67C25.05 82.32 24.74 82.9 24.21 83.26C23.89 83.48 23.51 83.59 23.13 83.59H23.12ZM49.95 22C44.39 22 39.1 24.11 35.04 27.93C33.06 29.8 31.48 31.98 30.33 34.41C29.5 36.16 28.9 38.03 28.56 39.96L28.48 40.38C28.44 40.59 28.27 40.75 28.07 40.78L27.66 40.84C25.65 41.12 23.7 41.68 21.86 42.5C19.36 43.61 17.11 45.18 15.16 47.18C13.22 49.18 11.71 51.48 10.66 54.01C9.57 56.66 9.01 59.46 9.01 62.32C9.01 65.18 9.58 68.1 10.72 70.77C11.81 73.36 13.37 75.68 15.37 77.67C17.36 79.66 19.68 81.23 22.27 82.31C22.44 82.39 22.59 82.44 22.74 82.5C23.08 82.63 23.4 82.6 23.65 82.42C23.91 82.24 24.05 81.97 24.05 81.66C24.05 81.27 23.83 80.94 23.48 80.81C19.81 79.36 16.68 76.88 14.41 73.64C12.09 70.32 10.86 66.44 10.84 62.41C10.79 51.7 19.46 42.75 30.16 42.46C30.74 32.02 39.46 23.82 49.98 23.82C53.74 23.82 57.39 24.87 60.54 26.85C63.64 24.87 67.29 23.82 71.05 23.82C81.55 23.82 90.27 32.03 90.91 42.5C101.57 42.75 110.24 51.7 110.19 62.41C110.17 66.44 108.94 70.33 106.62 73.64C104.37 76.86 101.24 79.34 97.56 80.81C97.23 80.94 96.98 81.3 96.98 81.67C96.98 81.99 97.12 82.26 97.38 82.43C97.64 82.6 97.96 82.63 98.25 82.52L98.49 82.43C98.59 82.39 98.68 82.35 98.78 82.32C101.34 81.24 103.66 79.68 105.65 77.68C107.64 75.68 109.2 73.37 110.29 70.78C111.42 68.11 112 65.27 112 62.33C112 59.39 111.45 56.68 110.37 54.07C109.3 51.49 107.79 49.19 105.85 47.19C103.93 45.21 101.68 43.64 99.16 42.52C97.31 41.69 95.36 41.14 93.37 40.86L92.95 40.8C92.74 40.77 92.57 40.61 92.53 40.4L92.45 39.99C92.1 38.04 91.51 36.18 90.68 34.44C89.53 32.01 87.95 29.83 85.97 27.96C81.93 24.13 76.63 22.03 71.06 22.03C67.59 22.03 64.11 22.88 61.01 24.49L60.74 24.63C60.59 24.71 60.42 24.71 60.27 24.63L60 24.49C56.94 22.89 53.47 22.04 49.95 22.04V22Z" fill="#005EB8"/>
</g>
<defs>
<clipPath id="clip0_3607_230004">
<rect width="105" height="77.04" fill="white" transform="translate(8 21)"/>
</clipPath>
</defs>
</svg>
