<svg width="120" height="120" viewBox="0 0 120 120" fill="none" xmlns="http://www.w3.org/2000/svg">
<path fill-rule="evenodd" clip-rule="evenodd" d="M59.3454 36.4729C56.3517 38.2845 53.9312 41.032 52.0338 44.8335C51.577 45.7485 50.465 46.12 49.55 45.6633C48.6349 45.2066 48.2634 44.0945 48.7201 43.1795C49.5995 41.4176 50.5977 39.8191 51.7236 38.392C50.7369 37.7783 49.7876 37.2507 48.7121 36.8228C47.0829 36.1745 45.0988 35.734 42.2691 35.734C32.6002 35.734 24.815 44.352 23.9401 54.3118C24.8419 54.2635 25.6669 54.8817 25.8518 55.7932C26.055 56.7955 25.4073 57.7728 24.405 57.9761C17.1542 59.4467 11.7035 65.0083 11.7035 72.3769C11.7035 76.7358 13.2006 80.3012 15.6719 82.7724C18.1432 85.2437 21.7086 86.7408 26.0674 86.7408H72.684C73.7067 86.7408 74.5358 87.5699 74.5358 88.5926C74.5358 89.6153 73.7067 90.4443 72.684 90.4443H26.0674C20.8342 90.4443 16.2917 88.6297 13.0532 85.3912C9.81463 82.1527 8 77.6102 8 72.3769C8 64.2328 13.2144 58.0483 20.1682 55.367C20.5669 43.3634 29.7951 32.0305 42.2691 32.0305C45.5169 32.0305 47.9717 32.5422 50.0814 33.3817C51.6696 34.0137 53.0246 34.82 54.2946 35.6353C55.2644 34.7604 56.3077 33.9824 57.4281 33.3044C61.1237 31.0681 65.5269 30 70.6395 30C79.883 30 86.4902 33.7214 90.7511 38.9287C94.7315 43.7933 96.6027 49.8725 96.7977 55.2396C100.324 56.1458 103.217 57.681 105.463 59.6986C109.22 63.0718 111 67.6447 111 72.3769C111 77.6102 109.185 82.1527 105.947 85.3912C102.708 88.6297 98.1659 90.4443 92.9326 90.4443H88.8857C87.863 90.4443 87.0339 89.6153 87.0339 88.5926C87.0339 87.5699 87.863 86.7408 88.8857 86.7408H92.9326C97.2915 86.7408 100.857 85.2437 103.328 82.7724C105.799 80.3012 107.297 76.7358 107.297 72.3769C107.297 68.5952 105.891 65.0603 102.989 62.4541C100.078 59.8404 95.4928 58.013 88.8857 58.013C87.863 58.013 87.0339 57.184 87.0339 56.1613C87.0339 55.1386 87.863 54.3095 88.8857 54.3095C90.3442 54.3095 91.7331 54.3907 93.0518 54.5475C92.7298 50.0995 91.0916 45.1931 87.8849 41.274C84.3285 36.9277 78.774 33.7035 70.6395 33.7035C66.048 33.7035 62.3433 34.6589 59.3454 36.4729ZM32.3095 58.1917C32.3095 52.688 36.7654 48.2321 42.2691 48.2321C47.7728 48.2321 52.2287 52.688 52.2287 58.1917C52.2287 59.2144 51.3996 60.0435 50.3769 60.0435C49.3542 60.0435 48.5252 59.2144 48.5252 58.1917C48.5252 54.7334 45.7274 51.9356 42.2691 51.9356C38.8108 51.9356 36.013 54.7334 36.013 58.1917V70.3465C36.013 73.8048 38.8108 76.6026 42.2691 76.6026C45.7274 76.6026 48.5252 73.8048 48.5252 70.3465C48.5252 69.3238 49.3542 68.4947 50.3769 68.4947C51.3996 68.4947 52.2287 69.3238 52.2287 70.3465C52.2287 75.8502 47.7728 80.3061 42.2691 80.3061C36.7654 80.3061 32.3095 75.8502 32.3095 70.3465V58.1917ZM54.6026 58.1917C54.6026 52.688 59.0585 48.2321 64.5622 48.2321C70.0659 48.2321 74.5218 52.688 74.5218 58.1917V70.3465C74.5218 75.8502 70.0659 80.3061 64.5622 80.3061C59.0585 80.3061 54.6026 75.8502 54.6026 70.3465V58.1917ZM64.5622 51.9356C61.1038 51.9356 58.3061 54.7334 58.3061 58.1917V70.3465C58.3061 73.8048 61.1038 76.6026 64.5622 76.6026C68.0205 76.6026 70.8183 73.8048 70.8183 70.3465V58.1917C70.8183 54.7334 68.0205 51.9356 64.5622 51.9356ZM80.9205 64.9871C80.7657 65.2192 80.5991 65.6119 80.5991 66.2996C80.5991 67.3223 79.7701 68.1513 78.7474 68.1513C77.7247 68.1513 76.8956 67.3223 76.8956 66.2996C76.8956 64.9638 77.2349 63.8389 77.839 62.9328C78.4353 62.0383 79.2172 61.465 79.9427 61.1022C80.661 60.7431 81.3569 60.5728 81.8575 60.4893C82.1123 60.4469 82.3286 60.4249 82.4885 60.4135C82.5687 60.4078 82.6357 60.4046 82.6872 60.4029L82.7528 60.4012L82.7767 60.401L82.7863 60.4009L82.7905 60.4009L82.7924 60.4009C82.7934 60.4009 82.7943 60.4009 82.7943 62.2526C82.7943 60.4009 82.7952 60.4009 82.7962 60.4009L82.7981 60.4009L82.8024 60.4009L82.812 60.401L82.8358 60.4012L82.9015 60.4029C82.9529 60.4046 83.0199 60.4078 83.1002 60.4135C83.26 60.4249 83.4764 60.4469 83.7311 60.4893C84.2318 60.5728 84.9276 60.7431 85.6459 61.1023C86.3714 61.465 87.1533 62.0383 87.7496 62.9328C88.3537 63.8389 88.693 64.9638 88.693 66.2996C88.693 67.8234 87.9697 69.4474 87.1818 70.8253C86.3548 72.2716 85.276 73.7483 84.2331 75.0516C83.7967 75.5968 83.3611 76.1185 82.9451 76.6026H86.8412C87.8639 76.6026 88.693 77.4316 88.693 78.4543C88.693 79.477 87.8639 80.3061 86.8412 80.3061H78.7334C77.9844 80.3061 77.3092 79.8549 77.0226 79.1629C76.736 78.4711 76.8943 77.6748 77.4238 77.1452C77.4238 77.1451 77.4239 77.145 77.424 77.1449L77.4242 77.1447L77.4273 77.1416L77.442 77.1268L77.5043 77.0637C77.5599 77.0072 77.643 76.9222 77.7496 76.8118C77.963 76.5908 78.2701 76.2684 78.6396 75.8681C79.3804 75.0657 80.3633 73.9599 81.3415 72.7375C82.3255 71.5079 83.2737 70.1989 83.9669 68.9868C84.6992 67.7062 84.9895 66.7992 84.9895 66.2996C84.9895 65.6119 84.8229 65.2192 84.6681 64.9871C84.5057 64.7434 84.2758 64.5578 83.9896 64.4147C83.6962 64.268 83.3803 64.1854 83.1222 64.1424C82.9975 64.1216 82.8977 64.112 82.8363 64.1076C82.8187 64.1063 82.8046 64.1055 82.7943 64.105C82.784 64.1055 82.7699 64.1063 82.7524 64.1076C82.6909 64.112 82.5911 64.1216 82.4664 64.1424C82.2083 64.1854 81.8924 64.268 81.599 64.4147C81.3128 64.5578 81.0829 64.7434 80.9205 64.9871Z" fill="#005EB8"/>
</svg>
