<svg width="120" height="120" viewBox="0 0 120 120" fill="none" xmlns="http://www.w3.org/2000/svg">
<g clip-path="url(#clip0_3607_230470)">
<mask id="mask0_3607_230470" style="mask-type:luminance" maskUnits="userSpaceOnUse" x="-1" y="-1" width="122" height="122">
<path d="M120 120H0V0H120V120Z" fill="white" stroke="white" stroke-width="0.3"/>
</mask>
<g mask="url(#mask0_3607_230470)">
<path d="M103.668 104.985H67.371C66.6504 104.985 66.0527 104.388 66.0527 103.667V53.4667C66.0527 52.746 66.6504 52.1484 67.371 52.1484H103.668C104.389 52.1484 104.986 52.746 104.986 53.4667V103.667C104.986 104.388 104.389 104.985 103.668 104.985ZM68.6893 102.349H102.35V54.785H68.6893V102.349Z" fill="#005EB8" stroke="#005EB8" stroke-width="0.3"/>
<path d="M67.3734 104.986H16.3115C15.5908 104.986 14.9932 104.389 14.9932 103.668V84.1573C14.9932 83.5245 15.4502 82.9796 16.083 82.8566L28.2816 80.6243V76.7749C28.2816 76.1421 28.7386 75.5972 29.3538 75.4742L67.1273 68.2323C67.514 68.162 67.9183 68.2675 68.2171 68.5136C68.5159 68.7596 68.6917 69.1463 68.6917 69.533V103.668C68.6917 104.389 68.0941 104.986 67.3734 104.986ZM17.6298 102.35H66.0551V71.1326L30.9182 77.8822V81.7317C30.9182 82.3644 30.4612 82.9093 29.8284 83.0324L17.6298 85.2471V102.35Z" fill="#005EB8" stroke="#005EB8" stroke-width="0.3"/>
</g>
<path d="M36.5993 76.762C35.9138 76.762 35.3338 76.2347 35.281 75.5316L33.3827 47.1443H32.5038C31.7832 47.1443 31.1855 46.5467 31.1855 45.8261C31.1855 45.1054 31.7832 44.5078 32.5038 44.5078H34.6131C35.2986 44.5078 35.8787 45.0527 35.9314 45.7382L36.5993 55.7221L37.9176 75.3559C37.9704 76.0765 37.4255 76.7093 36.6872 76.762C36.6521 76.762 36.6169 76.762 36.5993 76.762Z" fill="#005EB8" stroke="#005EB8" stroke-width="0.3"/>
<path d="M22.0844 84.4121C22.0493 84.4121 22.0317 84.4121 21.9965 84.4121C21.2759 84.3594 20.7134 83.7266 20.7661 83.0059L23.2621 45.7421C23.3148 45.0566 23.8773 44.5117 24.5804 44.5117H33.1757C33.8963 44.5117 34.494 45.1093 34.494 45.83C34.494 46.5507 33.8963 47.1483 33.1757 47.1483H25.8284L23.4027 83.1817C23.35 83.8848 22.7699 84.4121 22.0844 84.4121Z" fill="#005EB8" stroke="#005EB8" stroke-width="0.3"/>
<path d="M46.311 74.8908C46.2758 74.8908 46.2582 74.8908 46.2231 74.8908C45.5024 74.8381 44.94 74.2053 44.9927 73.4847L47.225 40.2109C47.2777 39.5254 47.8402 38.9805 48.5433 38.9805H58.5623C59.2478 38.9805 59.8279 39.5254 59.8806 40.2109L61.0231 57.2609C61.0231 57.2784 61.0231 57.296 61.0231 57.296L61.4977 70.4614C61.5329 71.182 60.9528 71.7972 60.2322 71.8324C59.5115 71.85 58.8963 71.2875 58.8611 70.5668L58.3866 57.4366L57.3319 41.6347H49.7737L47.6293 73.6604C47.5765 74.3635 46.9965 74.8908 46.311 74.8908Z" fill="#005EB8" stroke="#005EB8" stroke-width="0.3"/>
<mask id="mask1_3607_230470" style="mask-type:luminance" maskUnits="userSpaceOnUse" x="-1" y="-1" width="122" height="122">
<path d="M120 120H0V0H120V120Z" fill="white" stroke="white" stroke-width="0.3"/>
</mask>
<g mask="url(#mask1_3607_230470)">
<path d="M90.5395 104.968H80.5029C79.7822 104.968 79.1846 104.37 79.1846 103.649V91.6972C79.1846 90.9765 79.7822 90.3789 80.5029 90.3789H90.5395C91.2601 90.3789 91.8578 90.9765 91.8578 91.6972V103.649C91.8578 104.388 91.2601 104.968 90.5395 104.968ZM81.8212 102.331H89.2212V93.0155H81.8212V102.331Z" fill="#005EB8" stroke="#005EB8" stroke-width="0.3"/>
</g>
<path d="M96.4247 67.1071H74.6289C73.9083 67.1071 73.3105 66.5095 73.3105 65.7888V60.8144C73.3105 60.0938 73.9083 59.4961 74.6289 59.4961H96.4247C97.1454 59.4961 97.743 60.0938 97.743 60.8144V65.7888C97.743 66.5095 97.1454 67.1071 96.4247 67.1071ZM75.9472 64.4705H95.1063V62.1327H75.9472V64.4705Z" fill="#005EB8" stroke="#005EB8" stroke-width="0.3"/>
<path d="M82.8804 77.3063H74.6191C73.8984 77.3063 73.3008 76.7087 73.3008 75.988V71.0136C73.3008 70.293 73.8984 69.6953 74.6191 69.6953H82.8804C83.6011 69.6953 84.1987 70.293 84.1987 71.0136V75.988C84.1987 76.7262 83.6186 77.3063 82.8804 77.3063ZM75.9549 74.6697H81.5797V72.3319H75.9549V74.6697Z" fill="#005EB8" stroke="#005EB8" stroke-width="0.3"/>
<path d="M96.4263 77.3063H88.165C87.4443 77.3063 86.8467 76.7087 86.8467 75.988V71.0136C86.8467 70.293 87.4443 69.6953 88.165 69.6953H96.4263C97.147 69.6953 97.7446 70.293 97.7446 71.0136V75.988C97.7446 76.7262 97.147 77.3063 96.4263 77.3063ZM89.4833 74.6697H95.108V72.3319H89.4833V74.6697Z" fill="#005EB8" stroke="#005EB8" stroke-width="0.3"/>
<path d="M82.8804 87.5132H74.6191C73.8984 87.5132 73.3008 86.9156 73.3008 86.195V81.2206C73.3008 80.4999 73.8984 79.9023 74.6191 79.9023H82.8804C83.6011 79.9023 84.1987 80.4999 84.1987 81.2206V86.195C84.1987 86.9156 83.6186 87.5132 82.8804 87.5132ZM75.9549 84.8767H81.5797V82.5389H75.9549V84.8767Z" fill="#005EB8" stroke="#005EB8" stroke-width="0.3"/>
<path d="M96.4263 87.5132H88.165C87.4443 87.5132 86.8467 86.9156 86.8467 86.195V81.2206C86.8467 80.4999 87.4443 79.9023 88.165 79.9023H96.4263C97.147 79.9023 97.7446 80.4999 97.7446 81.2206V86.195C97.7446 86.9156 97.147 87.5132 96.4263 87.5132ZM89.4833 84.8767H95.108V82.5389H89.4833V84.8767Z" fill="#005EB8" stroke="#005EB8" stroke-width="0.3"/>
<mask id="mask2_3607_230470" style="mask-type:luminance" maskUnits="userSpaceOnUse" x="-1" y="-1" width="122" height="122">
<path d="M120 120H0V0H120V120Z" fill="white" stroke="white" stroke-width="0.3"/>
</mask>
<g mask="url(#mask2_3607_230470)">
<path d="M103.673 54.7768H90.5426C90.1208 54.7768 89.7341 54.5835 89.488 54.2319C89.2419 53.898 89.1716 53.4585 89.2947 53.0542L92.3004 43.5274C92.4761 42.9825 92.9859 42.6133 93.5659 42.6133H103.673C104.394 42.6133 104.991 43.211 104.991 43.9316V53.4585C104.991 54.1792 104.394 54.7768 103.673 54.7768ZM92.3355 52.1402H102.355V45.2499H94.5151L92.3355 52.1402Z" fill="#005EB8" stroke="#005EB8" stroke-width="0.3"/>
<path d="M53.5557 35.6241C52.5362 35.6241 51.5871 35.2374 50.8664 34.5168C50.1457 33.7961 49.759 32.8469 49.759 31.8275V29.3666C49.759 29.3491 49.7414 29.3315 49.7239 29.3315C48.3177 29.3315 46.9818 28.8042 45.9623 27.8374C44.9253 26.8531 44.3452 25.5172 44.3276 24.111C44.3101 22.6697 44.855 21.3163 45.8744 20.2968C46.8764 19.2949 48.2122 18.75 49.6184 18.75H52.5011C52.7472 17.9414 53.2042 17.2208 53.8018 16.6055C54.8037 15.6036 56.1396 15.0587 57.5458 15.0587H65.4379C68.3382 15.0412 70.7111 17.4141 70.7111 20.3319C70.7111 21.7557 70.1662 23.074 69.1643 24.0759C68.1624 25.0778 66.8266 25.6227 65.4204 25.6227H62.5377C62.2916 26.4312 61.8346 27.1519 61.237 27.7671C60.2351 28.769 58.9168 29.3139 57.493 29.3139H57.3876C57.37 29.3139 57.3524 29.3315 57.3524 29.3491V31.8099C57.3524 33.9192 55.6474 35.6241 53.5557 35.6241ZM49.6184 21.369C48.9153 21.369 48.2474 21.6502 47.7376 22.1424C47.2279 22.6521 46.9467 23.3376 46.9642 24.0583C46.9818 24.7614 47.2631 25.4118 47.7904 25.9039C48.3177 26.3961 49.0032 26.6773 49.7239 26.6773C51.2004 26.6773 52.3956 27.8726 52.3956 29.3491V31.8099C52.3956 32.1263 52.5187 32.4075 52.7296 32.636C52.9581 32.8645 53.2393 32.97 53.5557 32.97C54.2061 32.97 54.7158 32.4427 54.7158 31.8099V29.3491C54.7158 27.8726 55.9111 26.6773 57.3876 26.6773H57.493C58.1961 26.6773 58.8641 26.3961 59.3738 25.9039C59.8308 25.4469 60.0945 24.8493 60.1472 24.2165C60.1999 23.531 60.7624 22.9861 61.4655 22.9861H65.4204C66.1235 22.9861 66.7914 22.7049 67.3011 22.2127C67.7933 21.703 68.0745 21.035 68.0745 20.3319C68.0745 18.873 66.8793 17.6778 65.4204 17.6778H57.5282C56.8251 17.6778 56.1572 17.959 55.6474 18.4512C55.1904 18.9082 54.9267 19.5058 54.874 20.1386C54.8213 20.8241 54.2588 21.369 53.5557 21.369H49.6184Z" fill="#005EB8" stroke="#005EB8" stroke-width="0.3"/>
<path d="M29.5921 41.6162C28.5727 41.6162 27.6235 41.2119 26.9028 40.5088C26.1821 39.7882 25.7954 38.839 25.7954 37.8195V35.3587C25.7954 35.3411 25.7779 35.3235 25.7603 35.3235C24.3541 35.3235 23.0182 34.7962 21.9988 33.8295C21.2078 33.0912 20.698 32.1421 20.4695 31.1226C18.1493 30.4371 16.4619 28.2575 16.4619 25.7615C16.4619 22.6855 18.9755 20.1719 22.0515 20.1719C24.7935 20.1719 27.061 22.1406 27.5532 24.742H33.547C36.4648 24.7245 38.8378 27.0974 38.8378 30.0152C38.8378 31.4214 38.2929 32.7573 37.291 33.7592C36.2891 34.7611 34.9532 35.306 33.547 35.306H33.4416C33.424 35.306 33.4064 35.3235 33.4064 35.3411V37.8019C33.4064 39.9112 31.7014 41.6162 29.5921 41.6162ZM23.0007 30.0504C23.0182 30.7359 23.2995 31.4038 23.8268 31.896C24.3541 32.3881 25.0396 32.6694 25.7603 32.6694C27.2368 32.6694 28.432 33.8646 28.432 35.3411V37.8019C28.432 38.1183 28.5551 38.3996 28.766 38.6281C28.9945 38.8566 29.2757 38.962 29.5921 38.962C30.2425 38.962 30.7522 38.4347 30.7522 37.8019V35.3411C30.7522 33.8646 31.9475 32.6694 33.424 32.6694H33.5294C34.2325 32.6694 34.9005 32.3881 35.4102 31.896C35.92 31.3862 36.2012 30.7183 36.2012 30.0152C36.2012 28.5563 35.0059 27.361 33.547 27.361H26.3228C25.9536 27.361 25.6021 27.2029 25.356 26.9392C25.1099 26.6755 24.9869 26.3064 25.0045 25.9373C25.0045 25.867 25.0045 25.8142 25.0045 25.7439C25.0045 24.1093 23.6862 22.791 22.0515 22.791C20.4168 22.791 19.0985 24.1093 19.0985 25.7439C19.0985 27.2556 20.2762 28.5563 21.7878 28.6793C22.4733 28.7321 23.0007 29.3121 23.0007 29.9976V30.0504Z" fill="#005EB8" stroke="#005EB8" stroke-width="0.3"/>
<path d="M35.8272 65.3295H23.3649C22.9957 65.3295 22.6442 65.1714 22.3981 64.9077C22.152 64.644 22.029 64.2749 22.0466 63.9234L22.5915 55.7148C22.6442 55.0293 23.2067 54.4844 23.9098 54.4844H35.2647C35.9502 54.4844 36.5302 55.0293 36.583 55.7148L37.1454 63.9234C37.163 64.2925 37.04 64.644 36.7939 64.9077C36.5478 65.1714 36.1963 65.3295 35.8272 65.3295ZM24.7711 62.693H34.421L34.0518 57.121H25.1578L24.7711 62.693Z" fill="#005EB8" stroke="#005EB8" stroke-width="0.3"/>
<path d="M59.71 58.6733H47.4059C47.0368 58.6733 46.6852 58.5151 46.4391 58.2514C46.1931 57.9878 46.07 57.6187 46.0876 57.2671L46.6149 49.4804C46.6676 48.7949 47.2301 48.25 47.9332 48.25H59.1827C59.8682 48.25 60.4482 48.7949 60.5009 49.4804L61.0283 57.2671C61.0458 57.6362 60.9228 57.9878 60.6767 58.2514C60.4306 58.5151 60.0791 58.6733 59.71 58.6733ZM48.8121 56.0367H58.3038L57.9522 50.8866H49.1636L48.8121 56.0367Z" fill="#005EB8" stroke="#005EB8" stroke-width="0.3"/>
<path d="M42.0993 86.7106H37.5292C36.8086 86.7106 36.2109 86.1129 36.2109 85.3923V80.8222C36.2109 80.1015 36.8086 79.5039 37.5292 79.5039H42.0993C42.82 79.5039 43.4176 80.1015 43.4176 80.8222V85.3923C43.4176 86.1129 42.82 86.7106 42.0993 86.7106ZM38.83 84.074H40.7635V82.1405H38.83V84.074Z" fill="#005EB8" stroke="#005EB8" stroke-width="0.3"/>
<path d="M51.4986 86.7106H46.9286C46.2079 86.7106 45.6104 86.1129 45.6104 85.3923V80.8222C45.6104 80.1015 46.2079 79.5039 46.9286 79.5039H51.4986C52.2193 79.5039 52.817 80.1015 52.817 80.8222V85.3923C52.817 86.1129 52.2193 86.7106 51.4986 86.7106ZM48.2469 84.074H50.1805V82.1405H48.2469V84.074Z" fill="#005EB8" stroke="#005EB8" stroke-width="0.3"/>
<path d="M60.9079 86.7106H56.3378C55.6172 86.7106 55.0195 86.1129 55.0195 85.3923V80.8222C55.0195 80.1015 55.6172 79.5039 56.3378 79.5039H60.9079C61.6286 79.5039 62.2262 80.1015 62.2262 80.8222V85.3923C62.2262 86.1129 61.6462 86.7106 60.9079 86.7106ZM57.6561 84.074H59.5896V82.1405H57.6561V84.074Z" fill="#005EB8" stroke="#005EB8" stroke-width="0.3"/>
<path d="M60.9064 92.4374H24.2226C23.5019 92.4374 22.9043 91.8398 22.9043 91.1191C22.9043 90.3984 23.5019 89.8008 24.2226 89.8008H60.9064C61.627 89.8008 62.2247 90.3984 62.2247 91.1191C62.2247 91.8398 61.6446 92.4374 60.9064 92.4374Z" fill="#005EB8" stroke="#005EB8" stroke-width="0.3"/>
</g>
</g>
<defs>
<clipPath id="clip0_3607_230470">
<rect width="120" height="120" fill="white"/>
</clipPath>
</defs>
</svg>
