<svg width="120" height="120" viewBox="0 0 120 120" fill="none" xmlns="http://www.w3.org/2000/svg">
<path d="M54.3995 47.2998C54.4995 47.2998 54.5995 47.2998 54.5995 47.2998C57.3995 51.4998 59.5995 56.0998 61.0995 60.8998C61.6995 62.8998 63.5995 64.2998 65.6995 64.2998H65.7995C67.8995 64.2998 69.6995 62.9998 70.3995 61.0998C73.3995 52.7998 72.9995 43.4998 69.3995 35.3998C69.7995 34.4998 70.0995 33.5998 70.0995 32.5998C70.0995 31.5998 69.9995 30.6998 69.6995 29.8998L69.9995 29.6998C70.8995 28.7998 71.4995 27.6998 71.4995 26.3998C71.5995 25.0998 71.0995 23.8998 70.1995 22.8998L67.5995 19.9998C66.6995 19.0998 65.5995 18.4998 64.2995 18.4998C62.9995 18.3998 61.7995 18.8998 60.7995 19.7998L60.4995 19.9998C59.6995 19.5998 58.7995 19.3998 57.7995 19.3998C56.7995 19.3998 55.7995 19.4998 54.8995 19.8998C47.1995 15.5998 37.8995 14.4998 29.2995 16.7998C27.1995 17.3998 25.7995 19.0998 25.6995 21.1998C25.5995 23.2998 26.7995 25.1998 28.6995 25.9998C33.3995 27.8998 37.7995 30.4998 41.7995 33.6998C41.7995 33.7998 41.7995 33.9998 41.7995 34.0998C41.7995 34.9998 41.8995 35.9998 42.1995 36.7998L15.0995 61.8998C14.1995 62.7998 13.5995 63.8998 13.5995 65.1998C13.4995 66.4998 13.9995 67.6998 14.8995 68.6998L17.4995 71.4998C18.3995 72.3998 19.4995 72.9998 20.8995 72.9998H21.0995C22.2995 72.9998 23.4995 72.4998 24.3995 71.6998L51.5995 46.5998C52.2995 47.0998 53.3995 47.2998 54.3995 47.2998ZM67.5995 26.6998L63.4995 22.1998C63.6995 22.0998 63.8995 21.9998 64.1995 21.9998C64.4995 21.9998 64.7995 22.0998 64.9995 22.3998L67.5995 25.1998C67.7995 25.3998 67.8995 25.6998 67.8995 25.9998C67.7995 26.2998 67.6995 26.5998 67.5995 26.6998ZM60.0995 23.9998L65.5995 29.9998C66.1995 30.6998 66.4995 31.4998 66.4995 32.3998C66.4995 32.9998 66.2995 33.4998 65.9995 33.9998C65.8995 34.0998 65.7995 34.2998 65.6995 34.3998C65.5995 34.4998 65.4995 34.5998 65.3995 34.7998L56.6995 42.7998C56.3995 43.0998 55.9995 43.2998 55.5995 43.4998C55.2995 43.4998 54.8995 43.4998 54.5995 43.6998C54.4995 43.6998 54.3995 43.6998 54.1995 43.6998C53.2995 43.6998 52.4995 43.2998 51.7995 42.5998L46.2995 36.5998C45.6995 35.8998 45.3995 35.0998 45.3995 34.1998C45.3995 33.2998 45.7995 32.4998 46.4995 31.7998L55.1995 23.7998C55.7995 23.1998 56.5995 22.8998 57.4995 22.8998H57.5995C58.5995 22.9998 59.4995 23.3998 60.0995 23.9998ZM44.0995 29.1998C43.7995 29.4998 43.4995 29.7998 43.2995 30.0998C39.1995 26.9998 34.7995 24.4998 30.1995 22.5998C29.4995 22.2998 29.3995 21.5998 29.3995 21.3998C29.3995 21.0998 29.4995 20.4998 30.2995 20.2998C37.3995 18.3998 44.9995 19.0998 51.5995 22.2998L44.0995 29.1998ZM48.4995 44.3998L21.6995 69.0998C21.4995 69.2998 21.1995 69.3998 20.8995 69.3998C20.5995 69.3998 20.2995 69.2998 20.0995 68.9998L17.4995 66.1998C17.2995 65.9998 17.1995 65.6998 17.1995 65.3998C17.1995 65.0998 17.2995 64.7998 17.5995 64.5998L44.3995 39.7998L48.4995 44.3998ZM58.1995 46.1998C58.4995 45.9998 58.7995 45.7998 59.0995 45.4998L66.6995 38.4998C69.2995 45.2998 69.3995 52.8998 66.8995 59.7998C66.5995 60.4998 65.9995 60.5998 65.6995 60.5998C65.4995 60.5998 64.7995 60.4998 64.4995 59.6998C63.0995 54.9998 60.8995 50.4998 58.1995 46.1998Z" fill="#005EB8"/>
<path d="M48.6 68.9998L44.1 66.6998C42.9 66.0998 41.5 65.9998 40.2 66.4998C38.9 66.9998 37.9 67.9998 37.4 69.1998L37 70.1998C36.5 71.4998 36.5 72.8998 37 74.0998C37.6 75.2998 38.6 76.2998 39.9 76.7998L44.6 78.3998C45.1 78.5998 45.6 78.6998 46.2 78.6998C48.2 78.6998 50 77.4998 50.8 75.6998L51 75.2998C51.9 72.8998 51 70.1998 48.6 68.9998ZM47.5 73.8998L47.3 74.2998C47 74.8998 46.3 75.1998 45.7 74.9998L41 73.3998C40.7 73.2998 40.4 72.9998 40.3 72.6998C40.2 72.3998 40.2 71.9998 40.3 71.6998L40.7 70.6998C40.8 70.3998 41.1 70.0998 41.4 69.9998C41.5 69.9998 41.7 69.8998 41.8 69.8998C42 69.8998 42.2 69.8998 42.4 69.9998L46.9 72.2998C47.5 72.4998 47.8 73.2998 47.5 73.8998Z" fill="#005EB8"/>
<path d="M57.0998 67.0983L57.3998 66.7983C59.4998 65.2983 59.9998 62.3983 58.5998 60.1983L55.8998 55.9983C55.0998 54.8983 53.9998 54.0983 52.5998 53.7983C51.2998 53.5983 49.8998 53.8983 48.7998 54.6983L47.8998 55.3983C46.7998 56.1983 46.0998 57.4983 45.9998 58.7983C45.7998 60.1983 46.2998 61.4983 47.1998 62.5983L50.4998 66.3983C51.3998 67.4983 52.7998 68.0983 54.1998 68.0983C55.1998 68.0983 56.1998 67.6983 57.0998 67.0983ZM55.2998 63.8983L54.8998 64.1983C54.3998 64.5983 53.5998 64.4983 53.1998 63.9983L49.8998 60.1983C49.6998 59.8983 49.5998 59.5983 49.5998 59.1983C49.5998 58.7983 49.7998 58.4983 50.0998 58.2983L50.9998 57.5983C51.1998 57.3983 51.4998 57.2983 51.6998 57.2983H51.8998C52.1998 57.3983 52.5998 57.5983 52.6998 57.8983L55.3998 62.0983C55.9998 62.6983 55.7998 63.4983 55.2998 63.8983Z" fill="#005EB8"/>
<path d="M93.8998 45C87.4998 45 82.2998 50.2 82.2998 56.6V61C80.7998 60.4 79.2998 60.1 77.7998 60.1C74.6998 60.1 71.7998 61.3 69.5998 63.5C68.4998 64.6 67.6998 65.9 67.0998 67.3C62.9998 68.3 59.6998 71 57.7998 74.6C56.1998 75.2 54.6998 76.1 53.4998 77.3C51.2998 79.5 50.0998 82.4 50.0998 85.5V86.7C49.8998 86.6 49.5998 86.5 49.3998 86.4L49.0998 86C48.7998 83.4 46.4998 81.5 43.9998 81.7L38.9998 81.9C37.5998 82 36.2998 82.6 35.4998 83.6C34.5998 84.6 34.1998 86 34.3998 87.4L34.4998 88.5C34.5998 89.5 34.9998 90.4 35.5998 91.1C34.3998 93 33.7998 95.1 33.7998 97.4V104.2C33.7998 105.2 34.5998 106 35.5998 106H61.4998H61.5998H61.6998H97.2998H97.3998H97.4998H103.8C104.3 106 104.8 105.8 105.1 105.5C105.4 105.1 105.6 104.7 105.6 104.2V56.6C105.5 50.2 100.3 45 93.8998 45ZM44.1998 85.3C44.7998 85.3 45.3998 85.8 45.3998 86.4L45.4998 86.9C45.5998 87.6 45.0998 88.2 44.4998 88.3L39.5998 89.2C39.2998 89.3 38.8998 89.2 38.5998 89C38.2998 88.8 38.0998 88.5 38.0998 88.1L37.9998 87C37.9998 86.6 38.0998 86.3 38.2998 86C38.4998 85.7 38.8998 85.6 39.1998 85.6L44.1998 85.3ZM37.3998 97.4C37.3998 95.7 37.8998 94.2 38.7998 92.8C38.9998 92.8 39.0998 92.8 39.2998 92.8C39.5998 92.8 39.8998 92.8 40.1998 92.7L45.0998 91.8C46.2998 91.6 47.3998 90.9 48.0998 89.9C48.9998 90.2 49.7998 90.7 50.4998 91.3C50.7998 91.6 51.1998 91.7 51.6998 91.7C51.9998 91.7 52.2998 91.6 52.4998 91.5C53.1998 91.2 53.5998 90.6 53.5998 89.8V85.3C53.5998 83.2 54.3998 81.2 55.8998 79.7L55.9998 79.6C55.8998 80.1 55.8998 80.6 55.8998 81.2C55.8998 85.5 57.7998 89.5 60.9998 92.3C60.0998 93.9 59.5998 95.8 59.5998 97.7V102.2H37.3998V97.4ZM70.3998 70.5C73.7998 70.5 76.9998 72.1 78.9998 74.8C76.9998 76.9 75.7998 79.7 75.7998 82.7V87.1C74.2998 86.5 72.7998 86.2 71.2998 86.2C68.1998 86.2 65.3998 87.4 63.2998 89.4C60.9998 87.4 59.5998 84.4 59.5998 81.3C59.5998 75.3 64.4998 70.5 70.3998 70.5ZM63.3998 97.8C63.3998 93.4 66.9998 89.8 71.3998 89.8C73.2998 89.8 75.0998 90.5 76.5998 91.7C77.0998 92.2 77.8998 92.3 78.5998 92C79.2998 91.7 79.6998 91.1 79.6998 90.3V82.7C79.6998 78.3 83.2998 74.7 87.6998 74.7C92.0998 74.7 95.6998 78.3 95.6998 82.7V102.3H63.3998V97.8ZM87.4998 71.1C85.4998 71.1 83.5998 71.6 81.8998 72.5C79.3998 69.2 75.4998 67.1 71.2998 66.8C71.4998 66.5 71.7998 66.2 71.9998 66C73.4998 64.5 75.4998 63.7 77.5998 63.7C79.4998 63.7 81.2998 64.4 82.7998 65.6C83.2998 66.1 84.0998 66.2 84.7998 65.9C85.4998 65.6 85.8998 65 85.8998 64.2V56.6C85.8998 52.2 89.4998 48.6 93.8998 48.6C98.2998 48.6 101.9 52.2 101.9 56.6V102.3H99.1998V82.7C99.0998 76.3 93.8998 71.1 87.4998 71.1Z" fill="#005EB8"/>
</svg>
