<svg width="120" height="120" viewBox="0 0 120 120" fill="none" xmlns="http://www.w3.org/2000/svg">
<path d="M103.548 96.3462H102.097V45.8654C102.097 45.4829 101.944 45.116 101.672 44.8455C101.399 44.575 101.03 44.4231 100.645 44.4231H86.129C85.744 44.4231 85.3748 44.575 85.1026 44.8455C84.8304 45.116 84.6774 45.4829 84.6774 45.8654V56.9495C83.7596 56.5147 82.7807 56.2205 81.7742 56.0769V54.5192C81.7742 53.3717 81.3154 52.2711 80.4987 51.4596C79.682 50.6482 78.5743 50.1923 77.4194 50.1923H60V48.75C59.9963 47.8583 59.7154 46.9895 59.1957 46.2625C58.676 45.5354 57.9429 44.9857 57.0968 44.6885V40.0962C57.0937 37.4194 56.0222 34.8532 54.1172 32.9605C52.2123 31.0677 49.6295 30.0031 46.9355 30H26.6129C23.9189 30.0031 21.3361 31.0677 19.4312 32.9605C17.5262 34.8532 16.4547 37.4194 16.4516 40.0962V96.3462C16.0666 96.3462 15.6974 96.4981 15.4252 96.7686C15.1529 97.0391 15 97.4059 15 97.7885V103.558C15 103.94 15.1529 104.307 15.4252 104.578C15.6974 104.848 16.0666 105 16.4516 105H103.548C103.933 105 104.303 104.848 104.575 104.578C104.847 104.307 105 103.94 105 103.558V97.7885C105 97.4059 104.847 97.0391 104.575 96.7686C104.303 96.4981 103.933 96.3462 103.548 96.3462ZM87.5806 96.3462V93.4615H99.1936V96.3462H87.5806ZM48.3871 44.6885C47.5409 44.9857 46.8079 45.5354 46.2882 46.2625C45.7685 46.9895 45.4876 47.8583 45.4839 48.75V50.1923H39.6774C38.5224 50.1923 37.4148 50.6482 36.5981 51.4596C35.7814 52.2711 35.3226 53.3717 35.3226 54.5192V56.0769C32.907 56.4252 30.698 57.625 29.099 59.4574C27.5 61.2898 26.6176 63.6325 26.6129 66.0577V83.3654C26.6176 85.7906 27.5 88.1333 29.099 89.9657C30.698 91.7981 32.907 92.9979 35.3226 93.3462V96.3462H25.1613V40.0962C25.1613 39.7136 25.3142 39.3468 25.5865 39.0763C25.8587 38.8058 26.2279 38.6538 26.6129 38.6538H46.9355C47.3205 38.6538 47.6897 38.8058 47.9619 39.0763C48.2342 39.3468 48.3871 39.7136 48.3871 40.0962V44.6885ZM80.3226 58.8462C82.2468 58.8484 84.0916 59.609 85.4523 60.9609C86.8129 62.3128 87.5783 64.1458 87.5806 66.0577V83.3654C87.5783 85.2773 86.8129 87.1103 85.4523 88.4622C84.0916 89.8141 82.2468 90.5746 80.3226 90.5769H36.7742C34.8499 90.5746 33.0052 89.8141 31.6445 88.4622C30.2839 87.1103 29.5184 85.2773 29.5161 83.3654V66.0577C29.5184 64.1458 30.2839 62.3128 31.6445 60.9609C33.0052 59.609 34.8499 58.8484 36.7742 58.8462H80.3226ZM99.1936 90.5769H87.5806V90.4168C89.4416 88.5356 90.4843 86.0032 90.4839 83.3654V66.0577C90.4846 63.4198 89.4419 60.8873 87.5806 59.0063V53.0769H99.1936V90.5769ZM38.2258 93.4615H78.871V96.3462H38.2258V93.4615ZM81.7742 93.3462C82.7807 93.2026 83.7596 92.9084 84.6774 92.4736V96.3462H81.7742V93.3462ZM99.1936 47.3077V50.1923H87.5806V47.3077H99.1936ZM78.871 54.5192V55.9615H38.2258V54.5192C38.2258 54.1367 38.3787 53.7698 38.651 53.4994C38.9232 53.2289 39.2924 53.0769 39.6774 53.0769H77.4194C77.8043 53.0769 78.1736 53.2289 78.4458 53.4994C78.718 53.7698 78.871 54.1367 78.871 54.5192ZM48.3871 50.1923V48.75C48.3871 48.3675 48.54 48.0006 48.8123 47.7301C49.0845 47.4596 49.4537 47.3077 49.8387 47.3077H55.6452C56.0302 47.3077 56.3994 47.4596 56.6716 47.7301C56.9438 48.0006 57.0968 48.3675 57.0968 48.75V50.1923H48.3871ZM19.3548 40.0962C19.3571 38.1842 20.1226 36.3513 21.4832 34.9994C22.8439 33.6474 24.6887 32.8869 26.6129 32.8846H46.9355C48.8597 32.8869 50.7045 33.6474 52.0652 34.9994C53.4258 36.3513 54.1912 38.1842 54.1935 40.0962V44.4231H51.2903V40.0962C51.2903 38.9486 50.8315 37.848 50.0148 37.0366C49.1981 36.2251 48.0905 35.7692 46.9355 35.7692H26.6129C25.4579 35.7692 24.3503 36.2251 23.5336 37.0366C22.7169 37.848 22.2581 38.9486 22.2581 40.0962V96.3462H19.3548V40.0962ZM102.097 102.115H17.9032V99.2308H102.097V102.115Z" fill="#005EB8"/>
<path d="M58.5 82C59.5214 82 60.5227 81.689 61.3915 81.1019C62.2604 80.5148 62.9626 79.6747 63.4193 78.6759C63.8761 77.677 64.0695 76.5588 63.9778 75.4466C63.886 74.3343 63.5128 73.272 62.9 72.3786L59.6 67.5679C59.4664 67.3903 59.2984 67.2473 59.1082 67.1491C58.918 67.0509 58.7103 67 58.5 67C58.2897 67 58.082 67.0509 57.8918 67.1491C57.7016 67.2473 57.5336 67.3903 57.4 67.5679L54.1 72.3786C53.4872 73.272 53.114 74.3343 53.0222 75.4466C52.9305 76.5588 53.1239 77.677 53.5807 78.6759C54.0374 79.6747 54.7396 80.5148 55.6085 81.1019C56.4773 81.689 57.4786 82 58.5 82ZM56.3 74.1826L58.5 70.976L60.7 74.1826C61.0547 74.7044 61.2475 75.3365 61.25 75.9866C61.25 76.784 60.9603 77.5488 60.4445 78.1127C59.9288 78.6765 59.2293 78.9933 58.5 78.9933C57.7707 78.9933 57.0712 78.6765 56.5555 78.1127C56.0397 77.5488 55.75 76.784 55.75 75.9866C55.7526 75.3365 55.9454 74.7044 56.3 74.1826Z" fill="#005EB8"/>
<path d="M59 88C61.5712 88 64.0846 87.2376 66.2224 85.8091C68.3602 84.3806 70.0265 82.3503 71.0104 79.9749C71.9944 77.5994 72.2518 74.9856 71.7502 72.4638C71.2486 69.9421 70.0105 67.6257 68.1924 65.8076C66.3743 63.9895 64.0579 62.7514 61.5362 62.2498C59.0144 61.7482 56.4006 62.0056 54.0251 62.9896C51.6497 63.9735 49.6194 65.6398 48.1909 67.7776C46.7624 69.9154 46 72.4288 46 75C46.0038 78.4466 47.3747 81.751 49.8118 84.1882C52.249 86.6253 55.5534 87.9962 59 88ZM59 64.8889C60.9998 64.8889 62.9547 65.4819 64.6174 66.5929C66.2802 67.7039 67.5762 69.2831 68.3414 71.1307C69.1067 72.9782 69.307 75.0112 68.9168 76.9726C68.5267 78.9339 67.5637 80.7356 66.1496 82.1496C64.7356 83.5637 62.9339 84.5267 60.9726 84.9168C59.0112 85.307 56.9782 85.1067 55.1306 84.3414C53.2831 83.5762 51.7039 82.2802 50.5929 80.6174C49.4819 78.9547 48.8889 76.9998 48.8889 75C48.8923 72.3194 49.9587 69.7496 51.8542 67.8542C53.7496 65.9587 56.3194 64.8923 59 64.8889Z" fill="#005EB8"/>
<path d="M58.7967 28.2354C59.9383 28.2346 61.0533 27.8831 61.9967 27.2266C62.2842 28.0684 62.7572 28.8317 63.3792 29.4574C63.2051 30.0131 63.1166 30.5931 63.1171 31.1765C63.1171 32.7366 63.724 34.2328 64.8043 35.336C65.8846 36.4391 67.3497 37.0588 68.8775 37.0588C69.6188 37.057 70.3527 36.9072 71.0377 36.6177C71.7227 36.9072 72.4565 37.057 73.1978 37.0588C74.216 37.0556 75.2152 36.7767 76.0935 36.2508C76.9718 35.7248 77.698 34.9705 78.1979 34.0648C79.4592 34.2377 80.741 33.9742 81.8385 33.3162C82.5221 33.7235 83.2812 33.9812 84.0676 34.0731C84.8539 34.165 85.6504 34.0891 86.4065 33.8501C86.7769 34.2269 87.1954 34.5509 87.6508 34.8133C87.6508 34.8427 87.6421 34.8721 87.6392 34.9015C86.7554 35.4129 86.0198 36.1539 85.5068 37.0493C84.9939 37.9447 84.722 38.9627 84.7187 40H87.5989C87.6029 39.3915 87.7916 38.7993 88.139 38.3049C88.4865 37.8106 88.9755 37.4384 89.5387 37.2397C89.8326 37.1353 90.0855 36.9364 90.2594 36.6729C90.4334 36.4093 90.519 36.0954 90.5036 35.778C90.5022 35.714 90.494 35.6504 90.4791 35.5883C90.4813 35.2132 90.5531 34.8419 90.6908 34.4942C90.7664 34.3016 90.8012 34.0949 90.793 33.8876C90.7848 33.6803 90.7337 33.4771 90.6431 33.2914C90.5525 33.1057 90.4245 32.9417 90.2674 32.8101C90.1103 32.6786 89.9278 32.5824 89.7317 32.528C89.0372 32.3391 88.4378 31.8902 88.0525 31.2707C87.8547 30.9546 87.546 30.7277 87.1897 30.6364C86.8334 30.5451 86.4563 30.5963 86.1358 30.7795C85.6154 31.0881 85.0121 31.2188 84.4138 31.1524C83.8156 31.086 83.2538 30.826 82.8106 30.4104C82.5459 30.1665 82.2021 30.0315 81.8457 30.0315C81.4892 30.0315 81.1454 30.1665 80.8808 30.4104C80.4846 30.7796 79.9944 31.0272 79.4665 31.1245C78.9386 31.2218 78.3945 31.1649 77.8969 30.9604C77.7082 30.8829 77.5057 30.8472 77.3025 30.8555C77.0993 30.8637 76.9002 30.9159 76.7182 31.0084C76.5361 31.1009 76.3754 31.2317 76.2464 31.3923C76.1175 31.5528 76.0233 31.7394 75.97 31.9398C75.8523 32.3703 75.64 32.7678 75.3492 33.1021C75.0584 33.4363 74.6969 33.6984 74.2921 33.8685C73.8872 34.0387 73.4497 34.1123 73.0128 34.0839C72.5759 34.0554 72.1511 33.9257 71.7707 33.7045C71.5504 33.5732 71.2999 33.504 71.0449 33.504C70.7898 33.504 70.5393 33.5732 70.3191 33.7045C69.8842 33.9718 69.3866 34.1141 68.8789 34.1162C68.1151 34.1162 67.3825 33.8064 66.8423 33.2548C66.3022 32.7032 65.9987 31.9551 65.9987 31.1751C66.003 30.6701 66.1371 30.1752 66.3876 29.7398C66.5705 29.4113 66.6225 29.0236 66.533 28.6569C66.4434 28.2903 66.2191 27.9729 65.9066 27.7707C65.4946 27.5085 65.1546 27.1437 64.9185 26.7105C64.6825 26.2773 64.5582 25.79 64.5572 25.2942C64.5572 24.9042 64.4055 24.5302 64.1354 24.2544C63.8653 23.9786 63.499 23.8237 63.1171 23.8237C62.8891 23.8195 62.6624 23.7879 62.4417 23.7295C62.1807 23.6672 61.908 23.6799 61.6538 23.7664C61.3995 23.8528 61.1738 24.0096 61.0015 24.2192C60.6924 24.5989 60.2944 24.8926 59.8444 25.0733C59.3944 25.2539 58.9071 25.3156 58.4275 25.2526C57.948 25.1897 57.4917 25.0041 57.1012 24.7131C56.7106 24.4221 56.3983 24.0351 56.1932 23.5879C55.9881 23.1408 55.897 22.6481 55.9281 22.1554C55.9592 21.6627 56.1117 21.186 56.3714 20.7695C56.631 20.353 56.9895 20.0102 57.4135 19.7729C57.8374 19.5356 58.3132 19.4114 58.7967 19.4119C59.0246 19.4159 59.2513 19.447 59.4722 19.5046C59.733 19.568 60.0061 19.5557 60.2605 19.4692C60.5149 19.3827 60.7407 19.2253 60.9123 19.0149C61.2864 18.5445 61.7945 18.2045 62.3662 18.0419C62.9379 17.8792 63.545 17.9021 64.1034 18.1072C64.6618 18.3123 65.1441 18.6895 65.4833 19.1867C65.8226 19.6839 66.0022 20.2765 65.9973 20.8825C65.9973 21.2725 66.149 21.6466 66.4191 21.9224C66.6892 22.1981 67.0555 22.3531 67.4374 22.3531C67.8193 22.3531 68.1856 22.1981 68.4557 21.9224C68.7258 21.6466 68.8775 21.2725 68.8775 20.8825C68.8791 20.2512 69.0795 19.6372 69.4491 19.1312C69.8188 18.6253 70.338 18.2541 70.9302 18.0728C71.5223 17.8914 72.1558 17.9094 72.7372 18.124C73.3185 18.3387 73.8168 18.7387 74.1584 19.2649C74.2973 19.4562 74.4782 19.6116 74.6865 19.7187C74.8948 19.8258 75.1248 19.8816 75.358 19.8816C75.5912 19.8816 75.8212 19.8258 76.0295 19.7187C76.2378 19.6116 76.4187 19.4562 76.5576 19.2649C76.7925 18.9213 77.0954 18.6318 77.4467 18.4152C77.7981 18.1986 78.19 18.0597 78.5971 18.0075C79.0043 17.9552 79.4177 17.9908 79.8106 18.1119C80.2034 18.233 80.5671 18.4369 80.8779 18.7105C81.1424 18.9535 81.4856 19.088 81.8414 19.088C82.1971 19.088 82.5403 18.9535 82.8048 18.7105C83.2124 18.3299 83.7191 18.0777 84.2638 17.9844C84.8085 17.8911 85.368 17.9606 85.875 18.1846C86.3819 18.4085 86.8146 18.7773 87.121 19.2466C87.4274 19.7159 87.5943 20.2656 87.6018 20.8296C87.6018 20.8737 87.5802 21.0325 87.5773 21.0752C87.5621 21.3921 87.6477 21.7056 87.8213 21.9688C87.995 22.232 88.2474 22.4308 88.5407 22.5354C88.7137 22.5971 88.8805 22.6754 89.039 22.7693C89.259 22.9 89.5089 22.9688 89.7634 22.9688C90.0179 22.9688 90.2678 22.9 90.4878 22.7693C90.9227 22.5019 91.4203 22.3596 91.9279 22.3575C92.365 22.3514 92.7977 22.4483 93.1921 22.6408C93.5866 22.8333 93.9322 23.1161 94.2021 23.4673C94.472 23.8185 94.659 24.2286 94.7483 24.6656C94.8377 25.1026 94.8271 25.5547 94.7174 25.9869C94.6551 26.2532 94.6669 26.5319 94.7514 26.7917C94.8358 27.0515 94.9897 27.2821 95.1955 27.4575C95.4969 27.7055 95.7452 28.0141 95.9249 28.3642C96.1047 28.7143 96.212 29.0984 96.2404 29.4926C96.2687 29.8868 96.2175 30.2828 96.0898 30.656C95.962 31.0291 95.7606 31.3715 95.4979 31.6618C95.2599 31.9319 95.1282 32.2823 95.1282 32.6456C95.1282 33.009 95.2599 33.3594 95.4979 33.6295C95.969 34.1472 96.2362 34.8243 96.2482 35.5309C96.2482 35.575 96.2266 35.7339 96.2237 35.7765C96.2083 36.0939 96.294 36.4079 96.4679 36.6714C96.6418 36.9349 96.8947 37.1338 97.1886 37.2383C97.7505 37.4385 98.2378 37.8115 98.5836 38.306C98.9294 38.8006 99.1167 39.3923 99.1198 40H102C101.998 38.9625 101.726 37.9441 101.213 37.0485C100.7 36.1529 99.964 35.4121 99.0795 34.9015C98.9846 34.1058 98.7307 33.3385 98.3335 32.6471C98.9481 31.5829 99.214 30.3461 99.0922 29.1169C98.9705 27.8877 98.4675 26.7303 97.6566 25.8134C97.6739 25.6369 97.6826 25.4648 97.6826 25.2942C97.6826 23.7342 97.0757 22.238 95.9954 21.1348C94.9151 20.0317 93.4499 19.4119 91.9221 19.4119C91.3912 19.413 90.8632 19.4913 90.3538 19.6443C90.0747 18.3296 89.3635 17.1521 88.3384 16.3073C87.3133 15.4625 86.036 15.0012 84.7187 15.0002C83.7059 15.0012 82.7117 15.2778 81.8385 15.8017C80.831 15.223 79.6787 14.9607 78.5259 15.0478C77.3731 15.135 76.2711 15.5675 75.358 16.2914C74.202 15.347 72.7344 14.8933 71.2596 15.0245C69.7848 15.1556 68.4161 15.8616 67.4374 16.9958C66.9383 16.4133 66.3309 15.9379 65.6504 15.5971C64.9699 15.2563 64.2299 15.0569 63.4733 15.0105C62.7167 14.9641 61.9587 15.0717 61.2431 15.3269C60.5276 15.5821 59.8688 15.9799 59.3051 16.4972C58.5276 16.4218 57.7433 16.5087 56.9997 16.7524C56.2561 16.9962 55.5689 17.3918 54.9796 17.9152C54.3904 18.4386 53.9116 19.0789 53.5723 19.7971C53.2329 20.5154 53.0401 21.2966 53.0056 22.0933C52.9711 22.89 53.0956 23.6856 53.3716 24.4316C53.6475 25.1776 54.0691 25.8586 54.6108 26.4331C55.1524 27.0076 55.8028 27.4636 56.5224 27.7734C57.242 28.0832 58.0158 28.2404 58.7967 28.2354Z" fill="#005EB8"/>
<path d="M81.1429 65.2857V71H84V65.2857C84 64.1491 83.5485 63.059 82.7447 62.2553C81.941 61.4515 80.8509 61 79.7143 61H74V63.8571H79.7143C80.0932 63.8571 80.4565 64.0077 80.7244 64.2756C80.9923 64.5435 81.1429 64.9068 81.1429 65.2857Z" fill="#005EB8"/>
</svg>
