<svg width="120" height="120" viewBox="0 0 120 120" fill="none" xmlns="http://www.w3.org/2000/svg">
<path d="M111.553 62.3164L107.7 61.5459C106.674 61.3391 105.72 60.8654 104.935 60.1724C104.15 59.4794 103.562 58.5916 103.229 57.5987L100.913 50.6514C100.493 49.3865 99.6846 48.2862 98.6033 47.5067C97.522 46.7273 96.2226 46.3084 94.8897 46.3096H83.7354C82.0431 46.3115 80.4207 46.9846 79.2241 48.1812C78.0275 49.3779 77.3544 51.0003 77.3526 52.6925V82.1269H40.085C39.6507 79.9583 38.4257 78.0286 36.648 76.7128C34.8703 75.397 32.6669 74.7891 30.4661 75.0073C28.2652 75.2255 26.224 76.2541 24.7393 77.8934C23.2545 79.5326 22.4322 81.6653 22.4322 83.8769C22.4322 86.0886 23.2545 88.2213 24.7393 89.8605C26.224 91.4997 28.2652 92.5284 30.4661 92.7466C32.6669 92.9647 34.8703 92.3569 36.648 91.0411C38.4257 89.7253 39.6507 87.7956 40.085 85.6269H79.1026C79.5667 85.6269 80.0118 85.4426 80.34 85.1144C80.6682 84.7862 80.8526 84.3411 80.8526 83.8769V64.1367H95.8174C96.2815 64.1367 96.7266 63.9524 97.0548 63.6242C97.383 63.296 97.5674 62.8509 97.5674 62.3867C97.5674 61.9226 97.383 61.4775 97.0548 61.1493C96.7266 60.8211 96.2815 60.6367 95.8174 60.6367H80.8526V52.6924C80.8533 51.9281 81.1573 51.1953 81.6977 50.6548C82.2382 50.1143 82.971 49.8103 83.7354 49.8095H94.8897C95.4879 49.8091 96.0711 49.9971 96.5564 50.3471C97.0416 50.697 97.4043 51.1909 97.5928 51.7587L99.9092 58.7059C100.437 60.2836 101.372 61.6941 102.62 62.7952C103.867 63.8963 105.383 64.649 107.014 64.9774L110.865 65.7474C111.514 65.8786 112.098 66.2299 112.518 66.7419C112.938 67.2539 113.168 67.8952 113.17 68.5574V70.3118C112.967 70.2305 112.75 70.1883 112.531 70.1873H107.756C107.292 70.1873 106.847 70.3717 106.518 70.6999C106.19 71.0281 106.006 71.4732 106.006 71.9373C106.006 72.4015 106.19 72.8466 106.518 73.1748C106.847 73.503 107.292 73.6873 107.756 73.6873H112.531C112.75 73.6866 112.967 73.6445 113.17 73.5633V79.2459C113.169 80.0097 112.865 80.7421 112.325 81.2822C111.785 81.8222 111.053 82.126 110.289 82.1267H104.556C104.121 79.9581 102.896 78.0284 101.119 76.7126C99.341 75.3968 97.1376 74.7889 94.9368 75.0071C92.7359 75.2253 90.6947 76.2539 89.21 77.8932C87.7252 79.5324 86.9029 81.6651 86.9029 83.8767C86.9029 86.0884 87.7252 88.2211 89.21 89.8603C90.6947 91.4995 92.7359 92.5282 94.9368 92.7464C97.1376 92.9645 99.341 92.3567 101.119 91.0409C102.896 89.7251 104.121 87.7954 104.556 85.6267H110.289C111.981 85.6249 113.603 84.952 114.799 83.7558C115.995 82.5595 116.668 80.9376 116.67 79.2459V68.5576C116.667 67.087 116.155 65.6627 115.223 64.5255C114.291 63.3883 112.994 62.6079 111.553 62.3164ZM31.3467 89.29C30.2759 89.29 29.2292 88.9725 28.339 88.3776C27.4487 87.7828 26.7548 86.9372 26.3451 85.948C25.9354 84.9588 25.8282 83.8703 26.0371 82.8201C26.246 81.77 26.7617 80.8053 27.5188 80.0483C28.276 79.2912 29.2407 78.7756 30.2908 78.5668C31.341 78.358 32.4295 78.4652 33.4187 78.8751C34.4079 79.2849 35.2533 79.9788 35.8481 80.8692C36.4429 81.7595 36.7604 82.8062 36.7603 83.8769C36.7584 85.3121 36.1875 86.688 35.1726 87.7027C34.1577 88.7175 32.7818 89.2883 31.3467 89.29ZM95.8174 89.29C94.7466 89.2901 93.6999 88.9727 92.8095 88.3779C91.9192 87.7831 91.2252 86.9376 90.8154 85.9484C90.4056 84.9591 90.2984 83.8706 90.5073 82.8204C90.7161 81.7702 91.2317 80.8056 91.9889 80.0484C92.746 79.2913 93.7107 78.7757 94.7608 78.5668C95.811 78.358 96.8996 78.4652 97.8888 78.875C98.878 79.2848 99.7235 79.9788 100.318 80.8691C100.913 81.7594 101.231 82.8062 101.23 83.8769C101.229 85.312 100.658 86.6878 99.643 87.7026C98.6282 88.7173 97.2524 89.2882 95.8174 89.29Z" fill="#005EB8"/>
<path d="M17.0203 82.1269H10.1338C9.25811 82.126 8.41859 81.7777 7.79942 81.1586C7.18024 80.5394 6.83198 79.6999 6.83105 78.8242V34.0097C6.83201 33.1341 7.18028 32.2946 7.79945 31.6754C8.41862 31.0563 9.25812 30.708 10.1338 30.707H74.0503C74.9259 30.708 75.7654 31.0562 76.3846 31.6754C77.0038 32.2946 77.3521 33.1341 77.3531 34.0097V40.8965C77.3531 41.3607 77.5374 41.8058 77.8656 42.134C78.1938 42.4622 78.6389 42.6465 79.1031 42.6465C79.5672 42.6465 80.0123 42.4622 80.3405 42.134C80.6687 41.8058 80.8531 41.3607 80.8531 40.8965V34.0097C80.851 32.2062 80.1336 30.4771 78.8582 29.2018C77.5829 27.9265 75.8538 27.2091 74.0503 27.207H10.1338C8.33016 27.209 6.60099 27.9263 5.32565 29.2016C4.05032 30.477 3.33299 32.2061 3.33105 34.0097V78.8242C3.33299 80.6278 4.05032 82.357 5.32565 83.6323C6.60099 84.9077 8.33016 85.625 10.1338 85.6269H17.0203C17.4844 85.6269 17.9295 85.4426 18.2577 85.1144C18.5859 84.7862 18.7703 84.3411 18.7703 83.8769C18.7703 83.4128 18.5859 82.9677 18.2577 82.6395C17.9295 82.3113 17.4844 82.1269 17.0203 82.1269Z" fill="#005EB8"/>
</svg>
