<svg xmlns="http://www.w3.org/2000/svg" viewBox="0 0 18.27 18.26"><defs><style>.cls-1{fill:#0073bc;}</style></defs><title>Asset 5</title><g id="Layer_2" data-name="Layer 2"><g id="Layer_1-2" data-name="Layer 1"><path class="cls-1" d="M17.35,5.14a.28.28,0,0,0-.5.24A8.57,8.57,0,0,1,6.29,17.21l.23-.5-1.67.17,1,1.35.22-.51a9,9,0,0,0,3.05.54A9.13,9.13,0,0,0,17.35,5.14"/><path class="cls-1" d="M12,1l-.23.51,1.67-.17L12.43,0l-.22.51A9.13,9.13,0,0,0,1,13.2a.28.28,0,0,0,.25.16l.12,0A.28.28,0,0,0,1.46,13,8.57,8.57,0,0,1,12,1"/><path class="cls-1" d="M7,5.5a1,1,0,1,1-1,1,1,1,0,0,1,1-1M7,8A1.51,1.51,0,1,0,5.48,6.45,1.52,1.52,0,0,0,7,8"/><path class="cls-1" d="M12,6.86a1,1,0,1,1-1,.95,1,1,0,0,1,1-.95m0,2.46a1.51,1.51,0,1,0-1.51-1.51A1.52,1.52,0,0,0,12,9.32"/><path class="cls-1" d="M7,13.31A.28.28,0,1,0,6.71,13a.29.29,0,0,0,.28.28"/><path class="cls-1" d="M7,10.48a.28.28,0,1,0-.28-.28.29.29,0,0,0,.28.28"/><path class="cls-1" d="M7,11.89a.28.28,0,1,0-.28-.28.28.28,0,0,0,.28.28"/><path class="cls-1" d="M7,14.72a.3.3,0,0,0,.2-.08.28.28,0,0,0,.08-.2.32.32,0,0,0-.08-.2.3.3,0,0,0-.4,0,.32.32,0,0,0-.08.2.28.28,0,0,0,.08.2.3.3,0,0,0,.2.08"/><path class="cls-1" d="M4.93,10.43v3.85a.43.43,0,0,1-.85,0V10.19A1.13,1.13,0,0,1,5.21,9.07H8.77a1.12,1.12,0,0,1,1.09.83,1.68,1.68,0,0,0-1.37,1.65v3.9a6.29,6.29,0,0,1-3-1.13V10.43a.29.29,0,0,0-.28-.28.28.28,0,0,0-.28.28m-1.41-.24V12.1a6.36,6.36,0,1,1,12-3,6.48,6.48,0,0,1-.24,1.71,1.68,1.68,0,0,0-1.52-1H10.42A1.67,1.67,0,0,0,8.77,8.51H5.21a1.69,1.69,0,0,0-1.69,1.68m11.34,1.69A6.14,6.14,0,0,1,14,13.2V11.79a.28.28,0,0,0-.28-.28.29.29,0,0,0-.28.28v2a6.25,6.25,0,0,1-3,1.56V11.79a.29.29,0,0,0-.28-.28.28.28,0,0,0-.28.28v3.85a.43.43,0,0,1-.85,0V11.55a1.13,1.13,0,0,1,1.13-1.12h1.5v3.33A.27.27,0,0,0,12,14a.28.28,0,0,0,.28-.28V10.43h1.5a1.12,1.12,0,0,1,1.12,1.12Zm-9.58,3A6.92,6.92,0,0,0,8.57,16a1,1,0,0,0,.9.6,1,1,0,0,0,.94-.69,6.93,6.93,0,1,0-6.89-2.78v1.13a1,1,0,0,0,1.76.59"/></g></g></svg>