<svg xmlns="http://www.w3.org/2000/svg" viewBox="0 0 16.54 16.54"><defs><style>.cls-1{fill:#0073bc;}</style></defs><title>Asset 3</title><g id="Layer_2" data-name="Layer 2"><g id="Layer_1-2" data-name="Layer 1"><path class="cls-1" d="M3.76,4.07a.28.28,0,0,0-.23-.23A.27.27,0,0,0,3.24,4a1.68,1.68,0,0,1-1.31.63,1,1,0,0,1,.27-.69A1.11,1.11,0,0,1,3,3.58h.08a1.11,1.11,0,0,1,.79.33,1,1,0,0,1,.27.62.62.62,0,0,1-.37-.46m.34,1.3A1,1,0,0,1,3,6.34H3A1,1,0,0,1,2,5.37V5.15a2.43,2.43,0,0,0,1.44-.54,1.22,1.22,0,0,0,.72.5Zm.16-1.84A1.66,1.66,0,0,0,3.07,3H3a1.63,1.63,0,0,0-1.18.5,1.53,1.53,0,0,0-.43,1.13l0,.74A1.58,1.58,0,0,0,3,6.89H3A1.58,1.58,0,0,0,4.65,5.4l0-.74a1.57,1.57,0,0,0-.43-1.13"/><path class="cls-1" d="M14.88,11.25l0,.74a1,1,0,0,1-1.06,1h0a1,1,0,0,1-1.06-1l0-.74a1,1,0,0,1,.27-.72,1.11,1.11,0,0,1,.79-.33h.08a1.11,1.11,0,0,1,.79.33,1,1,0,0,1,.27.72m.13-1.1a1.58,1.58,0,0,0-1.19-.5h-.08a1.58,1.58,0,0,0-1.18.5,1.47,1.47,0,0,0-.43,1.12l0,.74a1.58,1.58,0,0,0,1.61,1.49h0A1.58,1.58,0,0,0,15.4,12l0-.74A1.5,1.5,0,0,0,15,10.15"/><path class="cls-1" d="M8.14,4.7h0L4.63,8.47A.87.87,0,0,0,4.41,9v4.19H1.65V9.09a.27.27,0,0,0-.27-.27.28.28,0,0,0-.28.27V12.4a.28.28,0,0,1-.27.28.29.29,0,0,1-.28-.28V8.54a.83.83,0,0,1,.83-.82h2.8a.83.83,0,0,0,.59-.25L7.84,4.4a.21.21,0,0,1,.3.3M8.51,4A.75.75,0,0,0,7.45,4L4.38,7.08a.28.28,0,0,1-.2.09H1.38A1.37,1.37,0,0,0,0,8.54V12.4a.83.83,0,0,0,.83.83.86.86,0,0,0,.27-.05v.32a.28.28,0,0,0,.28.28h3.3A.27.27,0,0,0,5,13.5V9A.27.27,0,0,1,5,8.85L8.53,5.09A.76.76,0,0,0,8.51,4"/><path class="cls-1" d="M3,8a.28.28,0,0,0-.27.28v3.31a.27.27,0,0,0,.27.27.28.28,0,0,0,.28-.27V8.27A.29.29,0,0,0,3,8"/><path class="cls-1" d="M8.82,11.25l0,.74a1,1,0,0,1-1.06,1h0a1,1,0,0,1-1.06-1l0-.74a1,1,0,0,1,.28-.72,1.11,1.11,0,0,1,.78-.33h.09a1.09,1.09,0,0,1,.78.33,1,1,0,0,1,.28.72m.12-1.1a1.61,1.61,0,0,0-1.18-.5H7.67a1.61,1.61,0,0,0-1.18.5,1.55,1.55,0,0,0-.43,1.12l0,.74A1.58,1.58,0,0,0,7.71,13.5h0A1.58,1.58,0,0,0,9.34,12l0-.74a1.51,1.51,0,0,0-.43-1.12"/><path class="cls-1" d="M9.14,13.78H6.29A1.34,1.34,0,0,0,5,15.11v1.15a.28.28,0,1,0,.55,0V15.11a.78.78,0,0,1,.78-.78H9.14a.78.78,0,0,1,.78.78v1.15a.29.29,0,0,0,.28.28.28.28,0,0,0,.27-.28V15.11a1.33,1.33,0,0,0-1.33-1.33"/><path class="cls-1" d="M15.2,13.78H12.36A1.34,1.34,0,0,0,11,15.11v1.15a.28.28,0,0,0,.56,0V15.11a.78.78,0,0,1,.78-.78H15.2a.79.79,0,0,1,.79.78v1.15a.28.28,0,0,0,.27.28.29.29,0,0,0,.28-.28V15.11a1.34,1.34,0,0,0-1.34-1.33"/><path class="cls-1" d="M16,1.1H5.79V.83A.27.27,0,0,1,6.05.55h9.67A.28.28,0,0,1,16,.83ZM15.72,0H6.05a.81.81,0,0,0-.81.83V5a.28.28,0,0,0,.27.28A.29.29,0,0,0,5.79,5V1.65H16V8.27a.27.27,0,0,1-.27.27H6.32a.28.28,0,1,0,0,.56h9.4a.83.83,0,0,0,.82-.83V.83A.82.82,0,0,0,15.72,0"/><path class="cls-1" d="M15.16,3.51a.29.29,0,0,0-.28.28V7.72a.28.28,0,0,0,.28.27.27.27,0,0,0,.27-.27V3.79a.28.28,0,0,0-.27-.28"/><path class="cls-1" d="M14.06,5.24a.27.27,0,0,0-.28.27V7.72a.28.28,0,0,0,.55,0V5.51a.27.27,0,0,0-.27-.27"/><path class="cls-1" d="M13,4.69a.27.27,0,0,0-.27.27V7.72a.28.28,0,0,0,.55,0V5A.27.27,0,0,0,13,4.69"/><path class="cls-1" d="M11.85,6.34a.28.28,0,0,0-.28.27V7.72a.28.28,0,0,0,.56,0V6.61a.28.28,0,0,0-.28-.27"/><path class="cls-1" d="M15.31,2.25a.27.27,0,0,0-.38.08L14,3.74l-.87-.65a.28.28,0,0,0-.39.05.08.08,0,0,0,0,0L11.63,5.33l-1.05.79a.27.27,0,0,0-.05.38.26.26,0,0,0,.38.06L12,5.73a.34.34,0,0,0,.08-.09l1-1.91.84.62a.27.27,0,0,0,.39,0h0l1.1-1.66a.28.28,0,0,0-.08-.38"/><path class="cls-1" d="M9.92,2.2H6.61a.28.28,0,0,0,0,.56H9.92a.28.28,0,0,0,0-.56"/><path class="cls-1" d="M11.58,2.2H11a.28.28,0,0,0,0,.56h.56a.28.28,0,0,0,0-.56"/></g></g></svg>