<svg xmlns="http://www.w3.org/2000/svg" viewBox="0 0 17.64 17.64"><defs><style>.cls-1{fill:#0073bc;}</style></defs><title>Asset 2</title><g id="Layer_2" data-name="Layer 2"><g id="Layer_1-2" data-name="Layer 1"><path class="cls-1" d="M10.36,16.34a1.76,1.76,0,0,0-.72-.76,1.14,1.14,0,1,0-1.64,0,1.76,1.76,0,0,0-.72.76,2,2,0,1,1,3.08,0M8.25,14.79a.57.57,0,0,1,1.14,0,.57.57,0,0,1-1.14,0m-.52,1.95a1.14,1.14,0,0,1,2.18,0,2,2,0,0,1-2.18,0m1.09-4.22a2.56,2.56,0,1,0,2.56,2.56,2.56,2.56,0,0,0-2.56-2.56"/><path class="cls-1" d="M8.82,4.55a2,2,0,1,1,2-2,2,2,0,0,1-2,2M8,7.4H9.39a.28.28,0,0,1,0,.56h-2v.57h2a.28.28,0,0,1,.28.29.27.27,0,0,1-.28.28h-2v.57h2a.29.29,0,0,1,0,.57h-2v.57H8.82a.29.29,0,0,1,0,.57H4V7.73l.07-.19a1.51,1.51,0,0,1,.64-.81A2.05,2.05,0,0,0,5.69,5v-.7A.29.29,0,0,1,6,4a.86.86,0,0,1,.86.86V6.26A1.14,1.14,0,0,0,8,7.4m-4.56,4H.57V7.71l2.84.23ZM8.82,0A2.56,2.56,0,0,0,6.26,2.56a2.46,2.46,0,0,0,.18.94A1.45,1.45,0,0,0,6,3.41a.86.86,0,0,0-.85.86V5A1.52,1.52,0,0,1,4.4,6.25a2,2,0,0,0-.89,1.11v0L0,7.09V12H8.82a.85.85,0,0,0,.85-.85.83.83,0,0,0-.06-.32.86.86,0,0,0,.63-.82A.83.83,0,0,0,10,9.39a.85.85,0,0,0,0-1.14.83.83,0,0,0,.22-.57.85.85,0,0,0-.85-.85H8a.57.57,0,0,1-.57-.57V4.84a.78.78,0,0,0,0-.16A2.56,2.56,0,1,0,8.82,0"/><path class="cls-1" d="M15.08,10.81a2,2,0,1,1,2-2,2,2,0,0,1-2,2m0-4.55a2.56,2.56,0,1,0,2.56,2.56,2.56,2.56,0,0,0-2.56-2.56"/><polygon class="cls-1" points="15.93 7.96 15.93 9.1 15.36 9.1 15.36 7.4 14.79 7.4 14.79 9.1 14.22 9.1 14.22 8.53 13.65 8.53 13.65 9.67 16.5 9.67 16.5 7.96 15.93 7.96"/><rect class="cls-1" x="8.53" y="2.28" width="0.57" height="0.57"/><rect class="cls-1" x="9.67" y="2.28" width="0.57" height="0.57"/><rect class="cls-1" x="7.4" y="2.28" width="0.57" height="0.57"/><path class="cls-1" d="M14.84,5l.38.6.42-2.12-.56-.11-.15.76a7.34,7.34,0,0,0-2.86-2.26l-.24.51a6.77,6.77,0,0,1,3,2.62"/><path class="cls-1" d="M1.86,5.57l.51.24A6.77,6.77,0,0,1,5,2.8l.6-.38L3.47,2l-.11.55.76.16A7.34,7.34,0,0,0,1.86,5.57"/><path class="cls-1" d="M2.8,12.65,2.42,12,2,14.17l.55.11.16-.76a7.34,7.34,0,0,0,2.86,2.26l.24-.51a6.77,6.77,0,0,1-3-2.62"/><path class="cls-1" d="M15.78,12.07l-.52-.24a6.74,6.74,0,0,1-2.61,3l-.6.38,2.12.42.11-.56-.76-.15a7.41,7.41,0,0,0,2.26-2.86"/></g></g></svg>