<svg xmlns="http://www.w3.org/2000/svg" viewBox="0 0 15.24 15.18"><defs><style>.cls-1{fill:#0073bc;}</style></defs><title>Asset 4</title><g id="Layer_2" data-name="Layer 2"><g id="Layer_1-2" data-name="Layer 1"><path class="cls-1" d="M14.34,5.52a3.11,3.11,0,0,1-3.11,3.11h-.84l2.73-2.74a.45.45,0,0,0,0-.63.43.43,0,0,0-.63,0L9.76,8V7.13A3.12,3.12,0,0,1,12.88,4h1.46ZM6.66,6H5.77a.45.45,0,0,0-.45.45v.89a3.13,3.13,0,0,0,3.11,3.13h.44v.22A3.35,3.35,0,1,1,9.55,4.9a4,4,0,0,0-.67,2A3.08,3.08,0,0,0,6.66,6m1.2,1.92a.45.45,0,0,0-.63.63l1,1a2.22,2.22,0,0,1-2-2.22V6.84h.44a2.23,2.23,0,0,1,2.2,2Zm4,3.46.68.68-.62.63L11.26,12a.43.43,0,0,0-.58,0,5.29,5.29,0,0,1-2.32,1,.45.45,0,0,0-.37.44v1H7.1v-1a.45.45,0,0,0-.37-.44,5.29,5.29,0,0,1-2.32-1,.43.43,0,0,0-.58,0l-.68.68L2.53,12l.67-.68a.44.44,0,0,0,0-.58,5.3,5.3,0,0,1-1-2.34A.46.46,0,0,0,1.85,8h-1V7.14h1a.45.45,0,0,0,.44-.38,5.26,5.26,0,0,1,1-2.33.44.44,0,0,0,0-.58l-.67-.68.62-.63.68.68a.45.45,0,0,0,.58,0,5.29,5.29,0,0,1,2.32-1,.45.45,0,0,0,.37-.45v-1H8v1a.45.45,0,0,0,.37.45,5.29,5.29,0,0,1,2.32,1,.45.45,0,0,0,.58,0l.68-.68.59.6a4,4,0,0,0-2.4,1.08,4.24,4.24,0,1,0-.6,7.09.44.44,0,0,0,.23-.4V9.52a7.27,7.27,0,0,0,2.83-.24,5.37,5.37,0,0,1-.75,1.47.45.45,0,0,0,0,.58m2.91-8.21H13.63a.45.45,0,0,0-.12-.26L12.25,1.59a.45.45,0,0,0-.63,0l-.73.73a6.36,6.36,0,0,0-2-.84v-1A.45.45,0,0,0,8.43,0H6.66a.45.45,0,0,0-.45.45v1a6.36,6.36,0,0,0-2,.84l-.73-.73a.45.45,0,0,0-.63,0L1.58,2.86a.44.44,0,0,0,0,.62l.73.74a6.46,6.46,0,0,0-.84,2h-1A.45.45,0,0,0,0,6.7V8.48a.45.45,0,0,0,.45.45h1a6.46,6.46,0,0,0,.84,2l-.73.73a.45.45,0,0,0,0,.63l1.26,1.26a.43.43,0,0,0,.63,0l.73-.73a5.93,5.93,0,0,0,2,.84v1a.45.45,0,0,0,.45.45H8.43a.45.45,0,0,0,.45-.45v-1a5.93,5.93,0,0,0,2-.84l.73.73a.44.44,0,0,0,.63,0l1.26-1.26a.45.45,0,0,0,0-.63L12.78,11a6.57,6.57,0,0,0,.88-2.26,4,4,0,0,0,1.58-3.18V3.57a.45.45,0,0,0-.45-.45"/></g></g></svg>