<svg width="30" height="30" viewBox="0 0 30 30" fill="none" xmlns="http://www.w3.org/2000/svg">
<path fill-rule="evenodd" clip-rule="evenodd" d="M22.5 5.625H7.5C6.46447 5.625 5.625 6.46447 5.625 7.5V22.5C5.625 23.5355 6.46447 24.375 7.5 24.375H15V17.3162H12.1875V14.6691H15V13.2476C15 10.5565 16.3966 9.375 18.6797 9.375C19.7516 9.375 20.3284 9.45133 20.6086 9.48841L20.625 9.49059V12.0221H19.0678C18.0987 12.0221 17.8125 12.5232 17.8125 13.5379V14.6691H20.6007L20.2152 17.3162H17.8125V24.375H22.5C23.5355 24.375 24.375 23.5355 24.375 22.5V7.5C24.375 6.46447 23.5355 5.625 22.5 5.625Z" fill="white"/>
</svg>
