<svg width="20" height="20" viewBox="0 0 20 20" fill="none" xmlns="http://www.w3.org/2000/svg">
<path fill-rule="evenodd" clip-rule="evenodd" d="M6.25 0.625H13.75C16.8566 0.625 19.375 3.1434 19.375 6.25V13.75C19.375 16.8566 16.8566 19.375 13.75 19.375H6.25C3.1434 19.375 0.625 16.8566 0.625 13.75V6.25C0.625 3.1434 3.1434 0.625 6.25 0.625ZM15.625 3.4375C16.0938 3.4375 16.5625 3.90625 16.5625 4.375C16.5625 4.84375 16.0938 5.3125 15.625 5.3125C15.1562 5.3125 14.6875 4.84375 14.6875 4.375C14.6875 3.90625 15.1562 3.4375 15.625 3.4375ZM14.6875 10C14.6875 7.41484 12.5852 5.3125 10 5.3125C7.41484 5.3125 5.3125 7.41484 5.3125 10C5.3125 12.5852 7.41484 14.6875 10 14.6875C12.5852 14.6875 14.6875 12.5852 14.6875 10ZM10 7.1875C8.4467 7.1875 7.1875 8.4467 7.1875 10C7.1875 11.5533 8.4467 12.8125 10 12.8125C11.5533 12.8125 12.8125 11.5533 12.8125 10C12.8125 8.4467 11.5533 7.1875 10 7.1875Z" fill="white"/>
</svg>
