<svg width="30" height="30" viewBox="0 0 30 30" fill="none" xmlns="http://www.w3.org/2000/svg">
<path fill-rule="evenodd" clip-rule="evenodd" d="M22.5 5.625H7.5C6.46447 5.625 5.625 6.46447 5.625 7.5V22.5C5.625 23.5355 6.46447 24.375 7.5 24.375H22.5C23.5355 24.375 24.375 23.5355 24.375 22.5V7.5C24.375 6.46447 23.5355 5.625 22.5 5.625ZM9.375 9.90379C9.375 10.7133 10.0315 11.3709 10.8435 11.3709C11.6528 11.3709 12.3111 10.7133 12.3111 9.90379C12.3111 9.09515 11.6528 8.4375 10.8435 8.4375C10.0324 8.4375 9.375 9.0943 9.375 9.90379ZM9.60979 20.625H12.1284V12.5284H9.60979V20.625ZM21.5625 20.625H19.0456V16.6876C19.0456 15.7485 19.0285 14.5406 17.7368 14.5406C16.4262 14.5406 16.2248 15.5634 16.2248 16.6194V20.625H13.7079V12.5284H16.124V13.6348H16.1582C16.4945 12.9984 17.3159 12.3271 18.541 12.3271C21.0912 12.3271 21.5625 14.0041 21.5625 16.1843V20.625Z" fill="white"/>
</svg>
