<svg width="16" height="16" viewBox="0 0 16 16" fill="none" xmlns="http://www.w3.org/2000/svg">
<path fill-rule="evenodd" clip-rule="evenodd" d="M8 2C6.067 2 4.5 3.56701 4.5 5.5V6.5C3.94771 6.5 3.5 6.9418 3.5 7.48685V13.0132C3.5 13.5582 3.94771 14 4.5 14H11.5C12.0523 14 12.5 13.5582 12.5 13.0132V7.48685C12.5 6.9418 12.0523 6.5 11.5 6.5V5.5C11.5 3.56701 9.933 2 8 2ZM10.5 6.5V5.5C10.5 4.11929 9.3807 3 8 3C6.6193 3 5.5 4.11929 5.5 5.5V6.5H10.5ZM8 11C8.5523 11 9 10.5523 9 10C9 9.4477 8.5523 9 8 9C7.4477 9 7 9.4477 7 10C7 10.5523 7.4477 11 8 11Z" fill="white"/>
</svg>
