<svg width="58" height="51" viewBox="0 0 58 51" fill="none" xmlns="http://www.w3.org/2000/svg">
<path opacity="0.4" d="M26.7834 51H0V30.0625C0 22.3542 1.58033 16.2708 4.74098 11.8125C7.90163 7.35417 13.3199 3.41667 20.9958 0L26.7834 11.125C22.063 13.375 18.7997 15.625 16.9936 17.875C15.1875 20.0833 14.1819 22.7083 13.9766 25.75H26.7834V51ZM58 51H31.2166V30.0625C31.2166 22.3542 32.7969 16.2708 35.9575 11.8125C39.1182 7.35417 44.5364 3.41667 52.2123 0L58 11.125C53.2795 13.375 50.0163 15.625 48.2102 17.875C46.4041 20.0833 45.3984 22.7083 45.1932 25.75H58V51Z" fill="#004585"/>
</svg>
