<svg width="120" height="120" viewBox="0 0 120 120" fill="none" xmlns="http://www.w3.org/2000/svg">
<path d="M56.5938 49.0987V32.1397C56.5938 31.6756 56.4094 31.2305 56.0812 30.9023C55.7531 30.5741 55.3079 30.3897 54.8438 30.3897C54.3797 30.3897 53.9346 30.5741 53.6064 30.9023C53.2782 31.2305 53.0938 31.6756 53.0938 32.1397V49.0987C53.0938 49.5628 53.2782 50.008 53.6064 50.3361C53.9346 50.6643 54.3797 50.8487 54.8438 50.8487C55.3079 50.8487 55.7531 50.6643 56.0812 50.3361C56.4094 50.008 56.5938 49.5628 56.5938 49.0987Z" fill="#005EB8"/>
<path d="M66.2852 51.5213V32.1397C66.2852 31.6756 66.1008 31.2305 65.7726 30.9023C65.4445 30.5741 64.9993 30.3897 64.5352 30.3897C64.0711 30.3897 63.626 30.5741 63.2978 30.9023C62.9696 31.2305 62.7852 31.6756 62.7852 32.1397V51.5213C62.7852 51.9854 62.9696 52.4306 63.2978 52.7588C63.626 53.0869 64.0711 53.2713 64.5352 53.2713C64.9993 53.2713 65.4445 53.0869 65.7726 52.7588C66.1008 52.4306 66.2852 51.9854 66.2852 51.5213Z" fill="#005EB8"/>
<path d="M52.0216 63.6358C52.0216 63.1717 51.8372 62.7266 51.509 62.3984C51.1809 62.0702 50.7357 61.8858 50.2716 61.8858H43.003C42.5389 61.8858 42.0938 62.0702 41.7656 62.3984C41.4374 62.7266 41.253 63.1717 41.253 63.6358V70.9043C41.253 71.3684 41.4374 71.8136 41.7656 72.1417C42.0938 72.4699 42.5389 72.6543 43.003 72.6543H50.2716C50.7357 72.6543 51.1809 72.4699 51.509 72.1417C51.8372 71.8136 52.0216 71.3684 52.0216 70.9043V63.6358ZM48.5216 69.1543H44.753V65.3858H48.5216V69.1543Z" fill="#005EB8"/>
<path d="M62.3849 61.8858H55.1163C54.6522 61.8858 54.2071 62.0702 53.8789 62.3984C53.5507 62.7266 53.3663 63.1717 53.3663 63.6358V70.9043C53.3663 71.3684 53.5507 71.8136 53.8789 72.1417C54.2071 72.4699 54.6522 72.6543 55.1163 72.6543H62.3849C62.849 72.6543 63.2942 72.4699 63.6223 72.1417C63.9505 71.8136 64.1349 71.3684 64.1349 70.9043V63.6358C64.1349 63.1717 63.9505 62.7266 63.6223 62.3984C63.2942 62.0702 62.849 61.8858 62.3849 61.8858ZM60.6349 69.1543H56.8663V65.3858H60.6349V69.1543Z" fill="#005EB8"/>
<path d="M67.2306 72.6543H74.4991C74.9632 72.6543 75.4084 72.4699 75.7365 72.1417C76.0647 71.8136 76.2491 71.3684 76.2491 70.9043V63.6358C76.2491 63.1717 76.0647 62.7266 75.7365 62.3984C75.4084 62.0702 74.9632 61.8858 74.4991 61.8858H67.2306C66.7665 61.8858 66.3214 62.0702 65.9932 62.3984C65.665 62.7266 65.4806 63.1717 65.4806 63.6358V70.9043C65.4806 71.3684 65.665 71.8136 65.9932 72.1417C66.3214 72.4699 66.7665 72.6543 67.2306 72.6543ZM68.9806 65.3858H72.7491V69.1543H68.9806V65.3858Z" fill="#005EB8"/>
<path d="M52.0216 78.1719C52.0216 77.7078 51.8372 77.2627 51.509 76.9345C51.1809 76.6063 50.7357 76.4219 50.2716 76.4219H43.003C42.5389 76.4219 42.0938 76.6063 41.7656 76.9345C41.4374 77.2627 41.253 77.7078 41.253 78.1719V85.4405C41.253 85.9046 41.4374 86.3498 41.7656 86.6779C42.0938 87.0061 42.5389 87.1905 43.003 87.1905H50.2716C50.7357 87.1905 51.1809 87.0061 51.509 86.6779C51.8372 86.3498 52.0216 85.9046 52.0216 85.4405V78.1719ZM48.5216 83.6905H44.753V79.9219H48.5216V83.6905Z" fill="#005EB8"/>
<path d="M62.3849 76.4219H55.1163C54.6522 76.4219 54.2071 76.6063 53.8789 76.9345C53.5507 77.2627 53.3663 77.7078 53.3663 78.1719V85.4405C53.3663 85.9046 53.5507 86.3498 53.8789 86.6779C54.2071 87.0061 54.6522 87.1905 55.1163 87.1905H62.3849C62.849 87.1905 63.2942 87.0061 63.6223 86.6779C63.9505 86.3498 64.1349 85.9046 64.1349 85.4405V78.1719C64.1349 77.7078 63.9505 77.2627 63.6223 76.9345C63.2942 76.6063 62.849 76.4219 62.3849 76.4219ZM60.6349 83.6905H56.8663V79.9219H60.6349V83.6905Z" fill="#005EB8"/>
<path d="M65.4806 85.4405C65.4806 85.9046 65.665 86.3498 65.9932 86.6779C66.3214 87.0061 66.7665 87.1905 67.2306 87.1905H74.4991C74.9632 87.1905 75.4084 87.0061 75.7365 86.6779C76.0647 86.3498 76.2491 85.9046 76.2491 85.4405V78.1719C76.2491 77.7078 76.0647 77.2627 75.7365 76.9345C75.4084 76.6063 74.9632 76.4219 74.4991 76.4219H67.2306C66.7665 76.4219 66.3214 76.6063 65.9932 76.9345C65.665 77.2627 65.4806 77.7078 65.4806 78.1719V85.4405ZM68.9806 79.9219H72.7491V83.6905H68.9806V79.9219Z" fill="#005EB8"/>
<path d="M50.2716 90.959H43.003C42.5389 90.959 42.0938 91.1434 41.7656 91.4716C41.4374 91.7998 41.253 92.2449 41.253 92.709V99.9766C41.253 100.441 41.4374 100.886 41.7656 101.214C42.0938 101.542 42.5389 101.727 43.003 101.727H50.2716C50.7357 101.727 51.1809 101.542 51.509 101.214C51.8372 100.886 52.0216 100.441 52.0216 99.9766V92.709C52.0216 92.2449 51.8372 91.7998 51.509 91.4716C51.1809 91.1434 50.7357 90.959 50.2716 90.959ZM48.5216 98.2266H44.753V94.459H48.5216V98.2266Z" fill="#005EB8"/>
<path d="M62.3849 90.959H55.1163C54.6522 90.959 54.2071 91.1434 53.8789 91.4716C53.5507 91.7998 53.3663 92.2449 53.3663 92.709V99.9766C53.3663 100.441 53.5507 100.886 53.8789 101.214C54.2071 101.542 54.6522 101.727 55.1163 101.727H62.3849C62.849 101.727 63.2942 101.542 63.6223 101.214C63.9505 100.886 64.1349 100.441 64.1349 99.9766V92.709C64.1349 92.2449 63.9505 91.7998 63.6223 91.4716C63.2942 91.1434 62.849 90.959 62.3849 90.959ZM60.6349 98.2266H56.8663V94.459H60.6349V98.2266Z" fill="#005EB8"/>
<path d="M76.2491 99.9766V92.709C76.2491 92.2449 76.0647 91.7998 75.7365 91.4716C75.4084 91.1434 74.9632 90.959 74.4991 90.959H67.2306C66.7665 90.959 66.3214 91.1434 65.9932 91.4716C65.665 91.7998 65.4806 92.2449 65.4806 92.709V99.9766C65.4806 100.441 65.665 100.886 65.9932 101.214C66.3214 101.542 66.7665 101.727 67.2306 101.727H74.4991C74.9632 101.727 75.4084 101.542 75.7365 101.214C76.0647 100.886 76.2491 100.441 76.2491 99.9766ZM72.7491 98.2266H68.9806V94.459H72.7491V98.2266Z" fill="#005EB8"/>
<path d="M30.2159 85.4405C30.2239 83.5609 29.846 81.6996 29.1055 79.9719C28.3651 78.2443 27.2779 76.687 25.9112 75.3965C26.9791 73.2346 27.6184 70.8864 27.794 68.4815C27.794 62.9707 24.214 57.0401 16.3526 57.0401C8.4912 57.0401 4.9112 62.9707 4.9112 68.4813C5.08691 70.8861 5.72608 73.2342 6.7935 75.3963C5.42677 76.6868 4.33948 78.244 3.59896 79.9717C2.85844 81.6994 2.48045 83.5606 2.4884 85.4403C2.49399 88.8113 3.72658 92.0649 5.95593 94.5935C8.18528 97.122 11.2589 98.7525 14.6026 99.1803V105.495H9.0841C8.61998 105.495 8.17486 105.679 7.84667 106.007C7.51848 106.336 7.3341 106.781 7.3341 107.245C7.3341 107.709 7.51848 108.154 7.84667 108.482C8.17486 108.81 8.61998 108.995 9.0841 108.995H23.6212C24.0853 108.995 24.5305 108.81 24.8586 108.482C25.1868 108.154 25.3712 107.709 25.3712 107.245C25.3712 106.781 25.1868 106.336 24.8586 106.007C24.5305 105.679 24.0853 105.495 23.6212 105.495H18.1026V99.1807C21.4462 98.7528 24.5197 97.1222 26.7489 94.5936C28.9781 92.0651 30.2105 88.8114 30.2159 85.4405ZM5.9884 85.4405C5.9824 83.8303 6.35446 82.2411 7.07465 80.8009C7.79483 79.3607 8.84303 78.1097 10.1349 77.1485C10.1558 77.1324 10.1715 77.1123 10.192 77.0957C10.211 77.0801 10.232 77.0694 10.2511 77.0528C10.276 77.0303 10.294 77.0035 10.317 76.98C10.3612 76.9368 10.4029 76.8912 10.442 76.8433C10.4771 76.7998 10.5089 76.7549 10.5396 76.709C10.5719 76.6597 10.6021 76.6109 10.629 76.5596C10.6559 76.5083 10.6778 76.4585 10.699 76.4063C10.7202 76.3541 10.739 76.3018 10.7552 76.2481C10.7714 76.1944 10.784 76.1402 10.7952 76.0855C10.8064 76.0308 10.8152 75.9755 10.8201 75.919C10.8257 75.8645 10.8283 75.8097 10.8279 75.7549C10.8279 75.6973 10.8265 75.6407 10.8211 75.5835C10.8157 75.5288 10.8074 75.4756 10.7967 75.4214C10.7862 75.3648 10.7729 75.3088 10.7567 75.2535C10.7406 75.1997 10.7211 75.147 10.6996 75.0943C10.6781 75.0416 10.6552 74.9888 10.6283 74.9375C10.6004 74.8856 10.5698 74.8353 10.5365 74.7867C10.5175 74.7574 10.5043 74.7261 10.4833 74.6983C10.4672 74.6768 10.4472 74.6612 10.4306 74.6411C10.414 74.621 10.4042 74.6011 10.3876 74.5821C9.2777 72.7233 8.60209 70.6378 8.4112 68.4813C8.4112 67.6688 8.6339 60.5399 16.3526 60.5399C24.0713 60.5399 24.294 67.6688 24.294 68.4813C24.103 70.6377 23.4274 72.7232 22.3175 74.5819C22.3009 74.5999 22.2901 74.6219 22.2745 74.6405C22.2589 74.6591 22.2379 74.6766 22.2218 74.6981C22.2008 74.7259 22.1876 74.7572 22.1685 74.7865C22.1353 74.8351 22.1046 74.8855 22.0767 74.9373C22.0499 74.9891 22.0267 75.0408 22.005 75.0941C21.9833 75.1474 21.9644 75.1991 21.9483 75.2533C21.9321 75.3085 21.9187 75.3646 21.9083 75.4212C21.8983 75.4754 21.8897 75.5291 21.8844 75.5833C21.879 75.6405 21.8775 75.6971 21.8775 75.7542C21.8775 75.8094 21.8795 75.8642 21.8849 75.9188C21.8903 75.9734 21.8995 76.0296 21.9102 76.0853C21.9209 76.141 21.9332 76.1942 21.9493 76.2479C21.9654 76.3016 21.9849 76.3538 22.0064 76.4066C22.0279 76.4594 22.0499 76.5091 22.0758 76.5589C22.1031 76.6107 22.1334 76.6595 22.1658 76.7089C22.1966 76.7548 22.2283 76.7997 22.2635 76.8437C22.3025 76.8913 22.3441 76.9368 22.388 76.9799C22.4114 77.0034 22.4295 77.0299 22.4544 77.0527C22.4651 77.0627 22.4793 77.0649 22.4905 77.0746C22.5184 77.0981 22.5405 77.1259 22.5705 77.1484C24.1906 78.3626 25.4193 80.025 26.1047 81.93C26.79 83.8351 26.9019 85.8993 26.4265 87.8673C25.9511 89.8353 24.9093 91.6208 23.4299 93.0029C21.9505 94.3851 20.0984 95.3033 18.1027 95.644V88.5879L22.4357 84.2549C22.6022 84.0933 22.7349 83.9002 22.826 83.6869C22.9172 83.4736 22.965 83.2442 22.9668 83.0122C22.9685 82.7802 22.9241 82.5502 22.8361 82.3355C22.7481 82.1209 22.6183 81.9258 22.4542 81.7618C22.2902 81.5977 22.0952 81.4679 21.8805 81.3799C21.6658 81.292 21.4358 81.2475 21.2038 81.2493C20.9718 81.251 20.7425 81.2988 20.5291 81.39C20.3158 81.4812 20.1227 81.6138 19.9611 81.7803L18.1027 83.6387V68.4813C18.1027 68.0172 17.9183 67.5721 17.5901 67.2439C17.262 66.9157 16.8168 66.7313 16.3527 66.7313C15.8886 66.7313 15.4435 66.9157 15.1153 67.2439C14.7871 67.5721 14.6027 68.0172 14.6027 68.4813V71.5247L12.7443 69.6668C12.5829 69.4997 12.3898 69.3664 12.1763 69.2746C11.9628 69.1829 11.7331 69.1346 11.5008 69.1326C11.2684 69.1306 11.038 69.1749 10.8229 69.2629C10.6078 69.3509 10.4124 69.4808 10.2481 69.6451C10.0838 69.8094 9.95386 70.0048 9.86587 70.2199C9.77787 70.435 9.7336 70.6654 9.73562 70.8978C9.73763 71.1301 9.78591 71.3598 9.87763 71.5733C9.96934 71.7868 10.1027 71.9799 10.2698 72.1413L14.6028 76.4734V95.6434C12.1954 95.2294 10.0113 93.979 8.43539 92.1126C6.8595 90.2461 5.99294 87.8833 5.9884 85.4405Z" fill="#005EB8"/>
<path d="M93.8809 105.495H83.5167V56.3672C83.5161 56.0376 83.4216 55.715 83.2442 55.4372V24.8713C83.2442 24.4072 83.0598 23.9621 82.7316 23.6339C82.4034 23.3057 81.9583 23.1213 81.4942 23.1213H75.9766V12.7578C75.9766 12.2937 75.7922 11.8486 75.464 11.5204C75.1358 11.1922 74.6907 11.0078 74.2266 11.0078H54.8438C54.3797 11.0078 53.9346 11.1922 53.6064 11.5204C53.2782 11.8486 53.0938 12.2937 53.0938 12.7578V23.1213H47.5763C47.1122 23.1213 46.6671 23.3057 46.3389 23.6339C46.0107 23.9621 45.8263 24.4072 45.8263 24.8713V51.5213C45.8263 51.9854 46.0107 52.4306 46.3389 52.7588C46.6671 53.0869 47.1122 53.2713 47.5763 53.2713C48.0404 53.2713 48.4856 53.0869 48.8137 52.7588C49.1419 52.4306 49.3263 51.9854 49.3263 51.5213V26.6213H79.7442V54.6172H75.9766V32.1397C75.9766 31.6756 75.7922 31.2305 75.464 30.9023C75.1358 30.5741 74.6907 30.3897 74.2266 30.3897C73.7625 30.3897 73.3174 30.5741 72.9892 30.9023C72.661 31.2305 72.4766 31.6756 72.4766 32.1397V54.6172H35.7345C35.2704 54.6172 34.8253 54.8016 34.4971 55.1298C34.1689 55.458 33.9845 55.9031 33.9845 56.3672V105.495H28.4659C28.0018 105.495 27.5567 105.68 27.2285 106.008C26.9003 106.336 26.7159 106.781 26.7159 107.245C26.7159 107.709 26.9003 108.154 27.2285 108.483C27.5567 108.811 28.0018 108.995 28.4659 108.995H59.962C60.4261 108.995 60.8713 108.811 61.1994 108.483C61.5276 108.154 61.712 107.709 61.712 107.245C61.712 106.781 61.5276 106.336 61.1994 106.008C60.8713 105.68 60.4261 105.495 59.962 105.495H37.4845V58.1172H80.0167V105.495H72.0767C71.6126 105.495 71.1675 105.68 70.8393 106.008C70.5111 106.336 70.3267 106.781 70.3267 107.245C70.3267 107.709 70.5111 108.154 70.8393 108.483C71.1675 108.811 71.6126 108.995 72.0767 108.995H93.8809C94.345 108.995 94.7902 108.811 95.1183 108.483C95.4465 108.154 95.6309 107.709 95.6309 107.245C95.6309 106.781 95.4465 106.336 95.1183 106.008C94.7902 105.68 94.345 105.495 93.8809 105.495ZM56.5938 23.1213V14.5078H72.4766V23.1213H56.5938Z" fill="#005EB8"/>
<path d="M117.436 85.4405C117.436 77.585 104.067 59.7412 102.544 57.7325C102.381 57.5173 102.17 57.3427 101.928 57.2225C101.686 57.1023 101.42 57.0398 101.149 57.0398C100.879 57.0398 100.613 57.1023 100.371 57.2225C100.129 57.3427 99.9182 57.5173 99.755 57.7325C98.2315 59.7413 84.8624 77.585 84.8624 85.4405C84.8624 93.3755 91.5924 100.644 99.3995 101.61V107.245C99.3995 107.709 99.5839 108.154 99.9121 108.483C100.24 108.811 100.685 108.995 101.149 108.995C101.614 108.995 102.059 108.811 102.387 108.483C102.715 108.154 102.899 107.709 102.899 107.245V101.61C110.706 100.644 117.436 93.3755 117.436 85.4405ZM102.9 98.065V93.4331L109.655 86.6778C109.821 86.5162 109.954 86.3231 110.045 86.1098C110.136 85.8965 110.184 85.6671 110.186 85.4351C110.187 85.2031 110.143 84.9731 110.055 84.7584C109.967 84.5438 109.837 84.3487 109.673 84.1847C109.509 84.0206 109.314 83.8908 109.099 83.8028C108.885 83.7149 108.655 83.6704 108.423 83.6722C108.191 83.6739 107.961 83.7217 107.748 83.8129C107.535 83.9041 107.342 84.0367 107.18 84.2032L102.9 88.4839V75.7491C102.9 75.285 102.716 74.8399 102.388 74.5117C102.059 74.1835 101.614 73.9991 101.15 73.9991C100.686 73.9991 100.241 74.1835 99.9127 74.5117C99.5845 74.8399 99.4001 75.285 99.4001 75.7491V81.2159L97.5417 79.3575C97.2119 79.0374 96.7694 78.8598 96.3098 78.8633C95.8502 78.8667 95.4104 79.0508 95.0854 79.3758C94.7604 79.7008 94.5763 80.1406 94.5729 80.6002C94.5694 81.0598 94.747 81.5023 95.0671 81.8321L99.4001 86.1651V98.0651C93.5168 97.0951 88.363 91.4244 88.363 85.4406C88.363 80.3606 96.6081 67.9738 101.15 61.7286C105.692 67.9738 113.936 80.3605 113.936 85.4406C113.936 91.4239 108.782 97.0943 102.9 98.065Z" fill="#005EB8"/>
<path d="M31.4122 46.4502C31.7417 46.7706 32.1841 46.9485 32.6437 46.9455C33.1033 46.9424 33.5433 46.7587 33.8686 46.434C34.1938 46.1092 34.3783 45.6695 34.3821 45.2099C34.3859 44.7503 34.2087 44.3077 33.8888 43.9776C33.8448 43.9336 29.5538 39.5713 29.5538 35.5215C29.5538 31.4717 33.8448 27.1094 33.8868 27.0674C34.2069 26.7376 34.3845 26.2951 34.3811 25.8355C34.3776 25.3759 34.1935 24.9361 33.8685 24.6111C33.5435 24.2861 33.1037 24.102 32.6441 24.0986C32.1845 24.0951 31.742 24.2727 31.4122 24.5928C31.1934 24.8116 26.0538 30.0147 26.0538 35.5215C26.0538 41.0283 31.1934 46.2313 31.4122 46.4502Z" fill="#005EB8"/>
<path d="M27.8018 54.2295C28.1476 54.2297 28.4857 54.1273 28.7734 53.9355C29.0611 53.7437 29.2855 53.4709 29.4183 53.1516C29.5511 52.8323 29.5864 52.4808 29.5196 52.1415C29.4528 51.8023 29.287 51.4904 29.0431 51.2452C28.9757 51.1768 22.2862 44.3418 22.2862 35.5215C22.2862 26.7012 28.9757 19.8662 29.0411 19.7998C29.2076 19.6382 29.3403 19.4451 29.4314 19.2318C29.5226 19.0185 29.5704 18.7891 29.5722 18.5571C29.5739 18.3251 29.5295 18.0951 29.4415 17.8804C29.3535 17.6658 29.2237 17.4707 29.0596 17.3067C28.8956 17.1426 28.7006 17.0128 28.4859 16.9248C28.2712 16.8369 28.0412 16.7924 27.8092 16.7942C27.5772 16.7959 27.3479 16.8437 27.1345 16.9349C26.9212 17.0261 26.7281 17.1587 26.5665 17.3252C26.2491 17.6426 18.7865 25.2237 18.7865 35.5215C18.7865 45.8193 26.2494 53.4004 26.5665 53.7178C26.7285 53.8803 26.921 54.0092 27.133 54.0971C27.345 54.1849 27.5723 54.2299 27.8018 54.2295Z" fill="#005EB8"/>
<path d="M36.2579 41.6045C36.5857 41.9332 37.0306 42.1182 37.4948 42.1188C37.9589 42.1195 38.4043 41.9357 38.733 41.6079C39.0617 41.2801 39.2467 40.8352 39.2473 40.3711C39.248 39.9069 39.0642 39.4615 38.7364 39.1328C38.2393 38.6309 36.8224 36.8897 36.8224 35.5215C36.8224 34.1533 38.2393 32.4121 38.7324 31.9131C38.8989 31.7515 39.0316 31.5584 39.1227 31.3451C39.2139 31.1318 39.2617 30.9024 39.2635 30.6704C39.2652 30.4384 39.2208 30.2084 39.1328 29.9937C39.0448 29.7791 38.915 29.584 38.7509 29.42C38.5869 29.2559 38.3919 29.1261 38.1772 29.0381C37.9625 28.9502 37.7325 28.9057 37.5005 28.9075C37.2685 28.9092 37.0392 28.957 36.8258 29.0482C36.6125 29.1394 36.4194 29.272 36.2578 29.4385C35.957 29.7393 33.3223 32.4619 33.3223 35.5215C33.3223 38.5811 35.9571 41.3037 36.2579 41.6045Z" fill="#005EB8"/>
</svg>
