<svg width="120" height="120" viewBox="0 0 120 120" fill="none" xmlns="http://www.w3.org/2000/svg">
<path d="M84.3748 74.9656H35.6248C34.792 74.9656 34.1014 74.275 34.1014 73.4422V47.5437H29.4092C28.1701 47.5437 26.9717 47.0359 26.0779 46.1625C25.2045 45.2891 24.7373 44.1516 24.7373 42.9734C24.7373 41.5516 25.3873 40.2516 26.5248 39.3781C26.5654 39.3375 26.6061 39.2969 26.667 39.2562L39.4436 29.4047L57.1967 15.7141C58.842 14.4547 61.1373 14.4547 62.7826 15.7141L92.7029 38.7891C93.0076 39.0328 93.2514 39.2156 93.4342 39.3781C94.5717 40.2516 95.2217 41.5516 95.2217 42.9734C95.2217 44.1719 94.7545 45.3094 93.8811 46.1625C93.0076 47.0359 91.7889 47.5437 90.5498 47.5437H85.8576V73.4422C85.8982 74.275 85.2076 74.9656 84.3748 74.9656ZM37.1482 71.9187H82.8514V46.0203C82.8514 45.1875 83.542 44.4969 84.3748 44.4969H90.5904C91.017 44.4969 91.4436 44.3141 91.7482 44.0094C92.0326 43.725 92.1951 43.3594 92.1951 42.9734C92.1951 42.5062 91.9717 42.0594 91.6061 41.775C91.6061 41.775 91.6061 41.775 91.5857 41.7547C91.2201 41.4703 74.7264 28.7547 61.4623 18.5375L60.9342 18.1312C60.3857 17.7047 59.6139 17.7047 59.0654 18.1312L41.3123 31.8219C36.9248 35.1937 28.5967 41.6328 28.3936 41.775C28.0076 42.0594 27.8045 42.5062 27.8045 42.9734C27.8045 43.3594 27.967 43.725 28.2514 44.0094C28.5561 44.3141 28.9826 44.4969 29.4092 44.4969H35.6248C36.4576 44.4969 37.1482 45.1875 37.1482 46.0203V71.9187Z" fill="#005EB8"/>
<path fill-rule="evenodd" clip-rule="evenodd" d="M57.319 15.8737C57.3189 15.8737 57.3191 15.8736 57.319 15.8737L39.5665 29.5638L26.779 39.4238C26.7361 39.4524 26.7074 39.4799 26.667 39.5203L26.6578 39.5296L26.6474 39.5375C25.5582 40.3738 24.9381 41.6157 24.9381 42.9742C24.9381 44.098 25.3833 45.1845 26.2193 46.021C27.0773 46.8591 28.2258 47.3445 29.41 47.3445H34.3021V73.443C34.3021 74.1653 34.9032 74.7664 35.6256 74.7664H84.3756C85.1 74.7664 85.6934 74.1656 85.6586 73.4527L85.6582 73.443L85.6584 47.3445H90.5506C91.7364 47.3445 92.9043 46.858 93.7404 46.0219L93.7421 46.0202C94.5764 45.2053 95.0225 44.1196 95.0225 42.9742C95.0225 41.6157 94.4023 40.3738 93.3132 39.5375L93.3075 39.5332L93.3021 39.5284C93.1825 39.4221 93.0377 39.3083 92.8607 39.1691C92.7751 39.1018 92.6819 39.0285 92.5804 38.9473C92.5798 38.9469 92.5793 38.9464 92.5788 38.946L62.6618 15.8737C62.6618 15.8736 62.6619 15.8737 62.6618 15.8737C61.0884 14.6694 58.8925 14.6695 57.319 15.8737ZM57.0759 15.556C58.7929 14.2417 61.1879 14.2417 62.905 15.556L92.8287 38.6336C92.922 38.7084 93.0112 38.7785 93.0954 38.8447C93.2765 38.9871 93.4346 39.1114 93.5625 39.2247C94.7448 40.1352 95.4225 41.4914 95.4225 42.9742C95.4225 44.2252 94.9345 45.4141 94.0227 46.3053C94.0223 46.3057 94.0219 46.306 94.0216 46.3064L93.8818 46.1633L94.0227 46.3053C94.0225 46.3055 94.0229 46.3051 94.0227 46.3053C93.1119 47.2157 91.8426 47.7445 90.5506 47.7445H86.0584V47.5445H85.8584V47.7445H86.0584V73.4383C86.0583 73.4366 86.0582 73.4349 86.0582 73.4332L85.8584 73.443H86.0584V73.4383C86.1018 74.3888 85.3151 75.1664 84.3756 75.1664H35.6256C34.6823 75.1664 33.9021 74.3862 33.9021 73.443V47.7445H34.1021V47.5445H33.9021V47.7445H29.41C28.1163 47.7445 26.8683 47.2146 25.9389 46.3063L25.9373 46.3047C25.027 45.3944 24.5381 44.2063 24.5381 42.9742C24.5381 41.4934 25.2139 40.1388 26.3933 39.2283C26.391 39.2306 26.3888 39.2329 26.3865 39.2351L26.3842 39.2375L26.5256 39.3789L26.4038 39.2203C26.4003 39.223 26.3968 39.2256 26.3933 39.2283C26.4318 39.1899 26.4808 39.1422 26.5507 39.0947L26.5456 39.0986L26.6678 39.257L26.5568 39.0906C26.5548 39.092 26.5528 39.0934 26.5507 39.0947L39.3222 29.2471L57.0759 15.556ZM61.0578 17.9742C61.058 17.9744 61.0575 17.974 61.0578 17.9742L61.585 18.3798C74.8487 28.5967 91.3432 41.3128 91.7093 41.5976L91.7191 41.6052L91.7397 41.6258C92.1472 41.9477 92.3959 42.4485 92.3959 42.9742C92.3959 43.4181 92.2087 43.8333 91.8904 44.1516C91.5498 44.4922 91.073 44.6977 90.5912 44.6977H84.3756C83.6532 44.6977 83.0522 45.2987 83.0522 46.0211V72.1195H36.949V46.0211C36.949 45.2987 36.3479 44.6977 35.6256 44.6977H29.41C28.9282 44.6977 28.4514 44.4922 28.1107 44.1516C27.7925 43.8333 27.6053 43.4181 27.6053 42.9742C27.6053 42.4493 27.8341 41.9402 28.2757 41.6148L28.2796 41.6119L28.2805 41.6114L28.2828 41.6097L28.2906 41.6039L28.3165 41.5845L28.4035 41.5185C28.4764 41.4629 28.5782 41.385 28.706 41.2869C28.9616 41.0908 29.3206 40.8145 29.7595 40.4764C30.6373 39.8001 31.8345 38.8765 33.1624 37.852L33.3638 37.6966C35.9774 35.6802 39.0522 33.3079 41.191 31.6643M41.191 31.6643L58.9434 17.9742C58.9436 17.974 58.9433 17.9743 58.9434 17.9742C59.5638 17.492 60.4373 17.4921 61.0578 17.9742M60.8122 18.2899C60.336 17.9195 59.6652 17.9195 59.189 18.2899L41.4352 31.981C39.3145 33.6108 36.2675 35.9617 33.6641 37.9702C30.9084 40.0962 28.6496 41.8389 28.5117 41.9377C28.1823 42.1811 28.0053 42.5653 28.0053 42.9742C28.0053 43.3022 28.1431 43.6182 28.3936 43.8687C28.6623 44.1375 29.0386 44.2977 29.41 44.2977H35.6256C36.5689 44.2977 37.349 45.0778 37.349 46.0211V71.7195H82.6521V46.0211C82.6521 45.0778 83.4323 44.2977 84.3756 44.2977H90.5912C90.9626 44.2977 91.3389 44.1375 91.6076 43.8687C91.8581 43.6182 91.9959 43.3022 91.9959 42.9742C91.9959 42.5699 91.8019 42.1808 91.484 41.9336L91.4742 41.926M61.341 18.6967L60.813 18.2906L60.8122 18.2899M61.341 18.6967C74.5148 28.8443 90.8732 41.4556 91.454 41.9058L91.4629 41.9147C91.4633 41.9151 91.4636 41.9154 91.4639 41.9157C91.4575 41.9093 91.4655 41.9172 91.4654 41.9172" fill="#005EB8"/>
<path d="M66.0938 74.9648C65.2609 74.9648 64.5703 74.2742 64.5703 73.4414V47.543H55.4297V73.4414C55.4297 74.2742 54.7391 74.9648 53.9062 74.9648C53.0734 74.9648 52.3828 74.2742 52.3828 73.4414V46.0195C52.3828 45.1867 53.0734 44.4961 53.9062 44.4961H66.0938C66.9266 44.4961 67.6172 45.1867 67.6172 46.0195V73.4414C67.6172 74.2742 66.9266 74.9648 66.0938 74.9648Z" fill="#005EB8"/>
<path fill-rule="evenodd" clip-rule="evenodd" d="M53.9061 44.6969C53.1837 44.6969 52.5826 45.298 52.5826 46.0203V73.4422C52.5826 74.1645 53.1837 74.7656 53.9061 74.7656C54.6284 74.7656 55.2295 74.1645 55.2295 73.4422V47.3438H64.7701V73.4422C64.7701 74.1645 65.3712 74.7656 66.0936 74.7656C66.8159 74.7656 67.417 74.1645 67.417 73.4422V46.0203C67.417 45.298 66.8159 44.6969 66.0936 44.6969H53.9061ZM52.1826 46.0203C52.1826 45.077 52.9628 44.2969 53.9061 44.2969H66.0936C67.0368 44.2969 67.817 45.077 67.817 46.0203V73.4422C67.817 74.3855 67.0368 75.1656 66.0936 75.1656C65.1503 75.1656 64.3701 74.3855 64.3701 73.4422V47.7438H55.6295V73.4422C55.6295 74.3855 54.8493 75.1656 53.9061 75.1656C52.9628 75.1656 52.1826 74.3855 52.1826 73.4422V46.0203Z" fill="#005EB8"/>
<path d="M84.375 62.7773H72.1875C71.3547 62.7773 70.6641 62.0867 70.6641 61.2539V41.4492H49.3359V61.2539C49.3359 62.0867 48.6453 62.7773 47.8125 62.7773H35.625C34.7922 62.7773 34.1016 62.0867 34.1016 61.2539C34.1016 60.4211 34.7922 59.7305 35.625 59.7305H46.2891V39.9258C46.2891 39.093 46.9797 38.4023 47.8125 38.4023H72.1875C73.0203 38.4023 73.7109 39.093 73.7109 39.9258V59.7305H84.375C85.2078 59.7305 85.8984 60.4211 85.8984 61.2539C85.8984 62.0867 85.2078 62.7773 84.375 62.7773Z" fill="#005EB8"/>
<path fill-rule="evenodd" clip-rule="evenodd" d="M47.8123 38.6031C47.0899 38.6031 46.4889 39.2042 46.4889 39.9266V59.9313H35.6248C34.9024 59.9313 34.3014 60.5323 34.3014 61.2547C34.3014 61.977 34.9024 62.5781 35.6248 62.5781H47.8123C48.5347 62.5781 49.1357 61.977 49.1357 61.2547V41.25H70.8639V61.2547C70.8639 61.977 71.465 62.5781 72.1873 62.5781H84.3748C85.0972 62.5781 85.6982 61.977 85.6982 61.2547C85.6982 60.5323 85.0972 59.9313 84.3748 59.9313H73.5107V39.9266C73.5107 39.2042 72.9097 38.6031 72.1873 38.6031H47.8123ZM46.0889 39.9266C46.0889 38.9833 46.869 38.2031 47.8123 38.2031H72.1873C73.1306 38.2031 73.9107 38.9833 73.9107 39.9266V59.5312H84.3748C85.3181 59.5312 86.0982 60.3114 86.0982 61.2547C86.0982 62.198 85.3181 62.9781 84.3748 62.9781H72.1873C71.244 62.9781 70.4639 62.198 70.4639 61.2547V41.65H49.5357V61.2547C49.5357 62.198 48.7556 62.9781 47.8123 62.9781H35.6248C34.6815 62.9781 33.9014 62.198 33.9014 61.2547C33.9014 60.3114 34.6815 59.5312 35.6248 59.5312H46.0889V39.9266Z" fill="#005EB8"/>
<path d="M66.0938 68.8711H53.9062C53.0734 68.8711 52.3828 68.1805 52.3828 67.3477C52.3828 66.5148 53.0734 65.8242 53.9062 65.8242H66.0938C66.9266 65.8242 67.6172 66.5148 67.6172 67.3477C67.6172 68.1805 66.9266 68.8711 66.0938 68.8711Z" fill="#005EB8"/>
<path fill-rule="evenodd" clip-rule="evenodd" d="M53.9061 66.025C53.1837 66.025 52.5826 66.6261 52.5826 67.3484C52.5826 68.0708 53.1837 68.6719 53.9061 68.6719H66.0936C66.8159 68.6719 67.417 68.0708 67.417 67.3484C67.417 66.6261 66.8159 66.025 66.0936 66.025H53.9061ZM52.1826 67.3484C52.1826 66.4052 52.9628 65.625 53.9061 65.625H66.0936C67.0368 65.625 67.817 66.4052 67.817 67.3484C67.817 68.2917 67.0368 69.0719 66.0936 69.0719H53.9061C52.9628 69.0719 52.1826 68.2917 52.1826 67.3484Z" fill="#005EB8"/>
<path d="M104.383 105.434H15.6172C11.4125 105.434 8 102.021 8 97.8164V85.6289C8 81.4242 11.4125 78.0117 15.6172 78.0117H104.383C108.588 78.0117 112 81.4242 112 85.6289V97.8164C112 102.021 108.588 105.434 104.383 105.434ZM85.2281 102.387H104.362C106.881 102.387 108.933 100.335 108.933 97.8164V85.6289C108.933 83.1102 106.881 81.0586 104.362 81.0586H15.5969C13.0781 81.0586 11.0266 83.1102 11.0266 85.6289V97.8164C11.0266 100.335 13.0781 102.387 15.5969 102.387H85.2281Z" fill="#005EB8"/>
<path fill-rule="evenodd" clip-rule="evenodd" d="M15.617 78.2125C11.5228 78.2125 8.1998 81.5355 8.1998 85.6297V97.8172C8.1998 101.911 11.5228 105.234 15.617 105.234H104.383C108.477 105.234 111.8 101.911 111.8 97.8172V85.6297C111.8 81.5355 108.477 78.2125 104.383 78.2125H15.617ZM7.7998 85.6297C7.7998 81.3145 11.3018 77.8125 15.617 77.8125H104.383C108.698 77.8125 112.2 81.3145 112.2 85.6297V97.8172C112.2 102.132 108.698 105.634 104.383 105.634H15.617C11.3018 105.634 7.7998 102.132 7.7998 97.8172V85.6297ZM10.8264 85.6297C10.8264 83.0005 12.9675 80.8594 15.5967 80.8594H104.362C106.992 80.8594 109.133 83.0005 109.133 85.6297V97.8172C109.133 100.446 106.992 102.588 104.362 102.588H15.5967C12.9675 102.588 10.8264 100.446 10.8264 97.8172V85.6297ZM15.5967 81.2594C13.1884 81.2594 11.2264 83.2214 11.2264 85.6297V97.8172C11.2264 100.225 13.1884 102.188 15.5967 102.188H104.362C106.771 102.188 108.733 100.225 108.733 97.8172V85.6297C108.733 83.2214 106.771 81.2594 104.362 81.2594H15.5967Z" fill="#005EB8"/>
<path d="M104.383 99.3398H15.6172C14.7844 99.3398 14.0938 98.6492 14.0938 97.8164V85.6289C14.0938 84.7961 14.7844 84.1055 15.6172 84.1055H104.383C105.216 84.1055 105.906 84.7961 105.906 85.6289V97.8164C105.906 98.6492 105.216 99.3398 104.383 99.3398ZM17.1406 96.293H102.859V87.1523H17.1406V96.293Z" fill="#005EB8"/>
<path fill-rule="evenodd" clip-rule="evenodd" d="M15.617 84.3063C14.8946 84.3063 14.2936 84.9073 14.2936 85.6297V97.8172C14.2936 98.5395 14.8946 99.1406 15.617 99.1406H104.383C105.105 99.1406 105.706 98.5395 105.706 97.8172V85.6297C105.706 84.9073 105.105 84.3063 104.383 84.3063H15.617ZM13.8936 85.6297C13.8936 84.6864 14.6737 83.9062 15.617 83.9062H104.383C105.326 83.9062 106.106 84.6864 106.106 85.6297V97.8172C106.106 98.7605 105.326 99.5406 104.383 99.5406H15.617C14.6737 99.5406 13.8936 98.7605 13.8936 97.8172V85.6297ZM16.9404 86.9531H103.059V96.4937H16.9404V86.9531ZM17.3404 87.3531V96.0938H102.659V87.3531H17.3404Z" fill="#005EB8"/>
<path d="M82.1816 99.3398C81.3488 99.3398 80.6582 98.6492 80.6582 97.8164V85.6289C80.6582 84.7961 81.3488 84.1055 82.1816 84.1055C83.0145 84.1055 83.7051 84.7961 83.7051 85.6289V97.8164C83.7254 98.6492 83.0348 99.3398 82.1816 99.3398Z" fill="#005EB8"/>
<path fill-rule="evenodd" clip-rule="evenodd" d="M82.1814 84.3063C81.4591 84.3063 80.858 84.9073 80.858 85.6297V97.8172C80.858 98.5395 81.4591 99.1406 82.1814 99.1406C82.9269 99.1406 83.5224 98.5379 83.5049 97.8221L83.5048 97.8172H83.5049V85.6297C83.5049 84.9073 82.9038 84.3063 82.1814 84.3063ZM80.458 85.6297C80.458 84.6864 81.2382 83.9062 82.1814 83.9062C83.1247 83.9062 83.9049 84.6864 83.9049 85.6297V97.8148C83.9266 98.7635 83.1414 99.5406 82.1814 99.5406C81.2382 99.5406 80.458 98.7605 80.458 97.8172V85.6297Z" fill="#005EB8"/>
<path d="M60 99.3398C59.1672 99.3398 58.4766 98.6492 58.4766 97.8164V85.6289C58.4766 84.7961 59.1672 84.1055 60 84.1055C60.8328 84.1055 61.5234 84.7961 61.5234 85.6289V97.8164C61.5234 98.6492 60.8328 99.3398 60 99.3398Z" fill="#005EB8"/>
<path fill-rule="evenodd" clip-rule="evenodd" d="M59.9998 84.3063C59.2774 84.3063 58.6764 84.9073 58.6764 85.6297V97.8172C58.6764 98.5395 59.2774 99.1406 59.9998 99.1406C60.7222 99.1406 61.3232 98.5395 61.3232 97.8172V85.6297C61.3232 84.9073 60.7222 84.3063 59.9998 84.3063ZM58.2764 85.6297C58.2764 84.6864 59.0565 83.9062 59.9998 83.9062C60.9431 83.9062 61.7232 84.6864 61.7232 85.6297V97.8172C61.7232 98.7605 60.9431 99.5406 59.9998 99.5406C59.0565 99.5406 58.2764 98.7605 58.2764 97.8172V85.6297Z" fill="#005EB8"/>
<path d="M37.8184 99.3398C36.9855 99.3398 36.2949 98.6492 36.2949 97.8164V85.6289C36.2949 84.7961 36.9855 84.1055 37.8184 84.1055C38.6512 84.1055 39.3418 84.7961 39.3418 85.6289V97.8164C39.3215 98.6492 38.6512 99.3398 37.8184 99.3398Z" fill="#005EB8"/>
<path fill-rule="evenodd" clip-rule="evenodd" d="M37.8182 84.3063C37.0958 84.3063 36.4947 84.9073 36.4947 85.6297V97.8172C36.4947 98.5395 37.0958 99.1406 37.8182 99.1406C38.5354 99.1406 39.1226 98.5442 39.1416 97.8147V85.6297C39.1416 84.9073 38.5405 84.3063 37.8182 84.3063ZM36.0947 85.6297C36.0947 84.6864 36.8749 83.9062 37.8182 83.9062C38.7614 83.9062 39.5416 84.6864 39.5416 85.6297V97.8221C39.5188 98.7571 38.7657 99.5406 37.8182 99.5406C36.8749 99.5406 36.0947 98.7605 36.0947 97.8172V85.6297Z" fill="#005EB8"/>
</svg>
