<svg width="120" height="120" viewBox="0 0 120 120" fill="none" xmlns="http://www.w3.org/2000/svg">
<path fill-rule="evenodd" clip-rule="evenodd" d="M32.2154 31.5037C32.2154 31.5039 32.2155 31.5035 32.2154 31.5037L26.8571 46.4905C28.4446 45.9315 30.1517 45.6275 31.9289 45.6275H40.5342C41.3627 45.6275 42.0342 46.2991 42.0342 47.1275C42.0342 47.956 41.3627 48.6275 40.5342 48.6275H31.9289C25.1581 48.6275 19.6544 54.1185 19.6544 60.902V76.4094C19.6544 79.3246 21.963 81.6947 24.854 81.7934C24.9155 81.7857 24.9781 81.7818 25.0417 81.7818H93.9436C96.9217 81.7818 99.3308 79.3726 99.3308 76.3946V60.8872C99.3308 54.1164 93.8399 48.6127 87.0564 48.6127H76.7181C75.8897 48.6127 75.2181 47.9412 75.2181 47.1127C75.2181 46.2843 75.8897 45.6127 76.7181 45.6127H87.0564C88.845 45.6127 90.5613 45.9201 92.1557 46.4848L86.7995 31.5037C86.7994 31.5035 86.7995 31.5039 86.7995 31.5037C85.2948 27.3019 81.3132 24.5 76.8514 24.5H42.1635C37.7017 24.5 33.7201 27.3019 32.2154 31.5037ZM96.2337 48.6769C99.9376 51.466 102.331 55.9004 102.331 60.8872V76.3946C102.331 76.8004 102.302 77.1995 102.246 77.5899C102.311 77.7568 102.346 77.938 102.346 78.1275V91.9019C102.346 94.6452 100.115 96.853 97.3947 96.853H90.5074C87.7641 96.853 85.5564 94.622 85.5564 91.9019V84.7818H33.4437V91.9019C33.4437 94.6452 31.2127 96.853 28.4927 96.853H21.6054C18.8622 96.853 16.6544 94.622 16.6544 91.9019V78.1275C16.6544 77.9505 16.6851 77.7806 16.7414 77.6229C16.6841 77.2267 16.6544 76.8215 16.6544 76.4094V60.902C16.6544 55.9046 19.0542 51.4714 22.7603 48.6856L20.9841 46.9094H14.7182C12.9419 46.9094 11.5001 45.4677 11.5001 43.6913V40.2456C11.4822 37.4981 13.7016 35.2893 16.4363 35.2893H18.1544C20.8745 35.2893 23.1054 37.497 23.1054 40.2403V44.7881L23.9705 45.6532L29.3908 30.4931C31.3225 25.0975 36.4353 21.5 42.1635 21.5H76.8514C82.5796 21.5 87.6921 25.0968 89.6239 30.4925L95.0366 45.6314L95.8947 44.7733V40.2403C95.8947 37.497 98.1256 35.2893 100.846 35.2893H102.564C105.292 35.2893 107.5 37.5054 107.5 40.2403V43.6913C107.5 45.4677 106.058 46.9094 104.282 46.9094H98.0012L96.2337 48.6769ZM98.8947 43.9094H104.282C104.401 43.9094 104.5 43.8108 104.5 43.6913V40.2403C104.5 39.1539 103.627 38.2893 102.564 38.2893H100.846C99.7741 38.2893 98.8947 39.1622 98.8947 40.2403V43.9094ZM20.1054 43.9094V40.2403C20.1054 39.1622 19.226 38.2893 18.1544 38.2893H16.4363C15.3518 38.2893 14.4918 39.1577 14.5001 40.2287L14.5002 40.2403L14.5001 43.6913C14.5001 43.8108 14.5987 43.9094 14.7182 43.9094H20.1054ZM19.6544 82.8398V91.9019C19.6544 92.9736 20.5274 93.853 21.6054 93.853H28.4927C29.5643 93.853 30.4437 92.98 30.4437 91.9019V84.7818H25.2534C25.1842 84.7916 25.1135 84.7966 25.0417 84.7966C22.99 84.7966 21.1113 84.0614 19.6544 82.8398ZM88.5564 84.7818V91.9019C88.5564 92.9736 89.4294 93.853 90.5074 93.853H97.3947C98.4662 93.853 99.3457 92.98 99.3457 91.9019V82.8125C97.8867 84.0416 96.0022 84.7818 93.9436 84.7818H88.5564ZM59.912 26.7289C60.5523 26.9154 60.9926 27.5022 60.9926 28.1691V36.9926H73.2671C73.8042 36.9926 74.3002 37.2797 74.5678 37.7454C74.8353 38.211 74.8334 38.7842 74.5629 39.2481L62.5065 59.9246C62.1652 60.5101 61.4736 60.7939 60.8194 60.6171C60.1651 60.4403 59.7107 59.8468 59.7107 59.1691V48.6127H47.4363C46.8888 48.6127 46.3848 48.3144 46.1213 47.8345C45.8579 47.3546 45.8769 46.7692 46.1708 46.3073L58.2272 27.3637C58.5852 26.8011 59.2717 26.5425 59.912 26.7289ZM50.1689 45.6127H61.2107C62.0392 45.6127 62.7107 46.2843 62.7107 47.1127V53.6187L70.6561 39.9926H59.4926C58.6642 39.9926 57.9926 39.321 57.9926 38.4926V33.3197L50.1689 45.6127ZM75.2181 64.3234C75.2181 60.6364 78.2003 57.6543 81.8873 57.6543H88.7745C91.5178 57.6543 93.7255 59.8852 93.7255 62.6053V66.0563C93.7255 68.7996 91.4946 71.0073 88.7745 71.0073H81.8873C78.1975 71.0073 75.2181 68.0224 75.2181 64.3234ZM81.8873 60.6543C79.8571 60.6543 78.2181 62.2933 78.2181 64.3234C78.2181 66.3711 79.8599 68.0073 81.8873 68.0073H88.7745C89.8461 68.0073 90.7255 67.1344 90.7255 66.0563V62.6053C90.7255 61.5337 89.8525 60.6543 88.7745 60.6543H81.8873ZM25.2598 62.6201C25.2598 59.8769 27.4907 57.6691 30.2108 57.6691H37.098C40.7906 57.6691 43.7672 60.6716 43.7672 64.353C43.7672 68.04 40.785 71.0222 37.098 71.0222H30.2108C27.4675 71.0222 25.2598 68.7912 25.2598 66.0711V62.6201ZM30.2108 60.6691C29.1392 60.6691 28.2598 61.542 28.2598 62.6201V66.0711C28.2598 67.1427 29.1328 68.0222 30.2108 68.0222H37.098C39.1282 68.0222 40.7672 66.3831 40.7672 64.353C40.7672 62.3173 39.1226 60.6691 37.098 60.6691H30.2108Z" fill="#005EB8"/>
</svg>
