<svg width="120" height="120" viewBox="0 0 120 120" fill="none" xmlns="http://www.w3.org/2000/svg">
<path fill-rule="evenodd" clip-rule="evenodd" d="M69.2881 17.5C65.6894 17.5 62.2043 17.9567 58.8958 18.8064C58.0934 19.0125 57.2759 18.5291 57.0698 17.7267C56.8638 16.9243 57.3472 16.1068 58.1496 15.9007C61.6992 14.9891 65.435 14.5 69.2881 14.5C93.7589 14.5 113.602 34.1231 113.602 58.3525C113.602 82.5989 93.7417 102.205 69.2881 102.205C67.622 102.205 65.9661 102.121 64.3217 101.935C63.4985 101.841 62.9069 101.098 63.0002 100.275C63.0935 99.452 63.8364 98.8603 64.6596 98.9536C66.1804 99.126 67.7228 99.205 69.2881 99.205C90.6958 99.205 108.285 83.1167 110.391 62.5108H105.755C105.256 62.5108 104.79 62.2628 104.511 61.8491L100.737 56.2484H97.9144L96.2425 57.9022C95.9617 58.18 95.5826 58.3359 95.1876 58.3359H88.857C88.462 58.3359 88.0829 58.1801 87.8021 57.9023L77.6729 47.8823H64.4741C63.6457 47.8823 62.9741 47.2107 62.9741 46.3823V42.2074C62.9741 39.6063 63.7638 37.1529 65.3144 35.3237C66.8857 33.4699 69.1725 32.3412 71.9423 32.3412H75.5461L79.3282 28.5999C79.609 28.3221 79.9881 28.1663 80.3831 28.1663H90.382L93.6006 25.3164C86.7823 20.4015 78.3817 17.5 69.2881 17.5ZM96.0089 27.1911L91.9451 30.7894C91.6708 31.0322 91.317 31.1663 90.9507 31.1663H80.9997L77.2176 34.9076C76.9368 35.1854 76.5577 35.3412 76.1627 35.3412H71.9423C70.0465 35.3412 68.5993 36.088 67.6029 37.2635C66.5857 38.4635 65.9741 40.1932 65.9741 42.2074V44.8823H78.2894C78.6844 44.8823 79.0635 45.0381 79.3443 45.3159L89.4735 55.3359H94.571L96.2429 53.682C96.5237 53.4042 96.9028 53.2484 97.2978 53.2484H101.535C102.034 53.2484 102.5 53.4964 102.779 53.9101L106.553 59.5108H110.586C110.597 59.126 110.602 58.7399 110.602 58.3525C110.602 45.8714 104.94 34.6878 96.0089 27.1911ZM33.3982 27.5789C33.3982 22.1199 37.8769 17.7127 43.3555 17.7127C48.8525 17.7127 53.3129 22.1218 53.3129 27.5789V79.6056C57.156 82.5489 59.6435 87.1663 59.6435 92.3715C59.6435 101.288 52.3292 108.5 43.3555 108.5C34.3819 108.5 27.0675 101.288 27.0675 92.3715C27.0675 87.1663 29.555 82.5489 33.3982 79.6056V27.5789ZM43.3555 20.7127C39.503 20.7127 36.3982 23.8073 36.3982 27.5789V80.3687C36.3982 80.8614 36.1561 81.3228 35.7507 81.6028C32.3101 83.9794 30.0675 87.9156 30.0675 92.3715C30.0675 99.6004 36.008 105.5 43.3555 105.5C50.703 105.5 56.6435 99.6004 56.6435 92.3715C56.6435 87.9156 54.4009 83.9794 50.9603 81.6028C50.5549 81.3228 50.3129 80.8614 50.3129 80.3687V27.5789C50.3129 23.8055 47.2226 20.7127 43.3555 20.7127ZM16.5 29.6663C16.5 28.8379 17.1716 28.1663 18 28.1663H26.4573C27.2858 28.1663 27.9573 28.8379 27.9573 29.6663C27.9573 30.4947 27.2858 31.1663 26.4573 31.1663H18C17.1716 31.1663 16.5 30.4947 16.5 29.6663ZM43.3555 32.3412C44.1839 32.3412 44.8555 33.0128 44.8555 33.8412V94.4427C44.8555 95.2711 44.1839 95.9427 43.3555 95.9427C42.5271 95.9427 41.8555 95.2711 41.8555 94.4427V33.8412C41.8555 33.0128 42.5271 32.3412 43.3555 32.3412ZM16.5 42.2074C16.5 41.3789 17.1716 40.7074 18 40.7074H26.4573C27.2858 40.7074 27.9573 41.3789 27.9573 42.2074C27.9573 43.0358 27.2858 43.7074 26.4573 43.7074H18C17.1716 43.7074 16.5 43.0358 16.5 42.2074ZM16.5 54.7484C16.5 53.9199 17.1716 53.2484 18 53.2484H26.4573C27.2858 53.2484 27.9573 53.9199 27.9573 54.7484C27.9573 55.5768 27.2858 56.2484 26.4573 56.2484H18C17.1716 56.2484 16.5 55.5768 16.5 54.7484ZM66.5808 53.7747C66.8658 53.4407 67.2828 53.2484 67.7219 53.2484H78.2894C78.6616 53.2484 79.0206 53.3868 79.2964 53.6367L90.8367 64.0902C91.1506 64.3746 91.3296 64.7784 91.3296 65.202V77.743C91.3296 78.1725 91.1455 78.5813 90.824 78.866L81.394 87.2158C81.1197 87.4587 80.766 87.5928 80.3996 87.5928H75.0417C74.2132 87.5928 73.5417 86.9212 73.5417 86.0928V72.1845L69.3052 68.7894H62.3639C61.5355 68.7894 60.8639 68.1178 60.8639 67.2894V61.027C60.8639 60.6701 60.9912 60.3249 61.2229 60.0534L66.5808 53.7747ZM68.4138 56.2484L63.8639 61.5801V65.7894H69.8321C70.1731 65.7894 70.504 65.9056 70.7701 66.1189L75.9797 70.2938C76.3349 70.5785 76.5417 71.0091 76.5417 71.4643V84.5928H79.831L88.3296 77.0677V65.8671L77.711 56.2484H68.4138ZM16.5 67.2731C16.5 66.4447 17.1716 65.7731 18 65.7731H26.4573C27.2858 65.7731 27.9573 66.4447 27.9573 67.2731C27.9573 68.1016 27.2858 68.7731 26.4573 68.7731H18C17.1716 68.7731 16.5 68.1016 16.5 67.2731Z" fill="#005EB8"/>
</svg>
