<svg width="120" height="120" viewBox="0 0 120 120" fill="none" xmlns="http://www.w3.org/2000/svg">
<path d="M60.1117 112.501C60.0417 112.501 59.9717 112.501 59.9117 112.491C59.8417 112.491 59.7817 112.501 59.7117 112.501C49.4217 112.501 31.8617 110.221 29.7717 94.9514C27.4217 77.7314 47.6017 52.4914 68.3217 46.7214C69.2517 46.4614 70.2217 47.0114 70.4817 47.9414C70.7417 48.8714 70.1917 49.8414 69.2617 50.0914C54.3117 54.2514 39.2117 69.8514 34.5417 83.8414C39.3017 85.3714 59.7316 90.9214 71.2516 77.4914C81.8716 65.0914 86.9616 46.5014 86.2216 34.2514C81.0716 36.7514 74.6717 37.4414 67.9417 38.1714C58.8617 39.1514 48.5717 40.2714 39.5317 46.1014C22.1917 57.2814 28.5817 72.4514 28.8617 73.1014C29.2517 73.9814 28.8517 75.0214 27.9617 75.4014C27.0817 75.7914 26.0517 75.4014 25.6617 74.5114C25.5817 74.3314 17.7217 55.9914 37.6417 43.1614C47.3717 36.8814 58.1117 35.7214 67.5717 34.6914C75.2917 33.8514 81.9517 33.1314 86.7317 29.9414C87.2317 29.6114 87.8716 29.5514 88.4216 29.8014C88.9716 30.0514 89.3517 30.5614 89.4417 31.1514C91.2417 43.8214 86.4216 65.1714 73.9216 79.7614C67.8216 86.8714 58.6517 90.3214 47.4117 89.7514C41.1817 89.4314 35.9717 87.9814 33.6217 87.2214C33.0817 89.7514 32.9317 92.2014 33.2417 94.4614C34.5417 103.961 43.6917 108.991 59.7117 108.991C59.7817 108.991 59.8517 108.991 59.9117 109.001C59.9717 109.001 60.0417 108.991 60.1017 108.991C73.2617 108.901 85.5917 103.691 94.8316 94.3214C104.072 84.9514 109.102 72.5514 109.002 59.4014C108.912 46.2414 103.702 33.9114 94.3316 24.6714C85.0517 15.5214 72.7917 10.5014 59.7917 10.5014C59.6617 10.5014 59.5417 10.5014 59.4117 10.5014C46.2517 10.5914 33.9217 15.8014 24.6817 25.1714C15.4317 34.5414 10.4017 46.9414 10.5017 60.1014C10.5817 71.6814 14.7617 82.9014 22.2717 91.7114C22.9017 92.4514 22.8117 93.5514 22.0717 94.1814C21.3417 94.8114 20.2317 94.7214 19.6017 93.9814C11.5617 84.5414 7.09165 72.5214 7.00165 60.1214C6.89165 46.0314 12.2817 32.7514 22.1817 22.7114C32.0717 12.6814 45.2817 7.10137 59.3817 7.00137C73.4517 6.90137 86.7516 12.2814 96.7916 22.1814C106.832 32.0714 112.412 45.2914 112.502 59.3814C112.612 73.4714 107.212 86.7514 97.3216 96.7914C87.4316 106.831 74.2117 112.411 60.1217 112.501H60.1117Z" fill="#005EB8"/>
</svg>
