<svg width="120" height="120" viewBox="0 0 120 120" fill="none" xmlns="http://www.w3.org/2000/svg">
<path fill-rule="evenodd" clip-rule="evenodd" d="M32.1684 15.4692C32.8885 10.9558 36.8049 7.5 41.5192 7.5H84.4114C89.2468 7.5 93.2171 11.1117 93.8055 15.7698C96.0278 16.5286 97.6183 18.6378 97.6183 21.1021V25.5312C97.6183 26.3597 96.9467 27.0312 96.1183 27.0312H93.7433L86.9745 97.384C86.5213 102.015 82.6374 105.571 77.9735 105.571H55.5476C54.7192 105.571 54.0476 104.899 54.0476 104.071C54.0476 103.243 54.7192 102.571 55.5476 102.571H77.9735C81.0811 102.571 83.6847 100.199 83.9888 97.0918L90.7294 27.0312H35.0499V77.6605C35.0499 78.489 34.3784 79.1605 33.5499 79.1605C32.7215 79.1605 32.0499 78.489 32.0499 77.6605V27.0312H29.6476C28.8192 27.0312 28.1476 26.3597 28.1476 25.5312V18.4692H24C23.1716 18.4692 22.5 17.7977 22.5 16.9692C22.5 16.1408 23.1716 15.4692 24 15.4692H32.1684ZM35.2254 15.4692H90.7061C90.0311 12.6214 87.4756 10.5 84.4114 10.5H41.5192C38.4676 10.5 35.9035 12.6226 35.2254 15.4692ZM31.1476 18.4692V24.0312H94.6183V21.1021C94.6183 19.6544 93.4419 18.4692 91.9855 18.4692H31.1476ZM56.2443 46.5814C57.4539 43.8647 60.1648 42.1102 63.1382 42.1102C66.2004 42.1102 68.9593 43.9569 70.1229 46.8007L71.3401 49.2778C71.6711 48.981 72.1301 48.8336 72.602 48.9165C73.4179 49.0599 73.9631 49.8376 73.8197 50.6536L73.3422 53.3704C73.2704 53.7785 73.0331 54.1388 72.6863 54.3658C72.3396 54.5927 71.9144 54.6661 71.5117 54.5686L68.8607 53.9264C68.0556 53.7313 67.561 52.9205 67.756 52.1154C67.8919 51.5545 68.3266 51.1443 68.8501 51.013L67.4066 48.0752C67.3898 48.041 67.3743 48.0061 67.3601 47.9708C66.6662 46.2359 64.9956 45.1102 63.1382 45.1102C61.3298 45.1102 59.6823 46.1897 58.9659 47.8448C58.9463 47.8903 58.9244 47.9347 58.9003 47.9779L56.694 51.9461C56.2914 52.6701 55.3781 52.9307 54.6541 52.5281C53.93 52.1256 53.6694 51.2123 54.072 50.4882L56.2443 46.5814ZM53.7995 54.6396C54.1553 54.8529 54.407 55.204 54.4946 55.6095L55.0709 58.2769C55.2459 59.0866 54.7313 59.8849 53.9215 60.0598C53.4733 60.1567 53.0285 60.0422 52.6911 59.7833L51.7145 61.6146C50.7138 63.9965 52.4742 66.66 55.0866 66.66H57.7046C58.533 66.66 59.2046 67.3316 59.2046 68.16C59.2046 68.9885 58.533 69.66 57.7046 69.66H55.0866C50.3077 69.66 47.0688 64.7535 48.9865 60.3641C49.0021 60.3284 49.0192 60.2932 49.0375 60.2588L50.1531 58.1671C49.5907 58.0817 49.1017 57.6784 48.9353 57.0957C48.7077 56.2992 49.1689 55.469 49.9655 55.2414L52.6164 54.484C53.0153 54.37 53.4436 54.4264 53.7995 54.6396ZM73.4428 56.9838C74.1864 56.6186 75.0853 56.9254 75.4505 57.669L76.8171 60.4516C76.8339 60.4857 76.8493 60.5205 76.8635 60.5558C78.6081 64.9173 75.3949 69.66 70.6958 69.66H67.6141C67.6441 70.0553 67.5183 70.4617 67.2316 70.7791C66.6763 71.3939 65.7278 71.4421 65.113 70.8868L63.0713 69.0427C62.7629 68.7642 62.5839 68.3703 62.5769 67.9548C62.5699 67.5394 62.7355 67.1397 63.0343 66.8509L64.9937 64.9574C65.5894 64.3817 66.539 64.3979 67.1147 64.9936C67.5561 65.4504 67.6495 66.1152 67.4005 66.66H70.6958C73.2569 66.66 75.0098 64.0944 74.0971 61.7187L72.7577 58.9915C72.3925 58.2479 72.6992 57.349 73.4428 56.9838ZM39.9879 82.6841C33.1093 82.6841 27.5253 88.2541 27.5253 95.1468C27.5253 102.025 33.0952 107.609 39.9879 107.609C46.8664 107.609 52.4505 102.039 52.4505 95.1468C52.4505 88.2694 46.8652 82.6841 39.9879 82.6841ZM24.5253 95.1468C24.5253 86.595 31.4548 79.6841 39.9879 79.6841C48.5221 79.6841 55.4505 86.6126 55.4505 95.1468C55.4505 103.699 48.5209 110.609 39.9879 110.609C31.436 110.609 24.5253 103.68 24.5253 95.1468ZM39.9879 92.3493C38.4453 92.3493 37.1904 93.6042 37.1904 95.1468C37.1904 96.6894 38.4453 97.9442 39.9879 97.9442C41.5305 97.9442 42.7853 96.6893 42.7853 95.1468C42.7853 93.6042 41.5304 92.3493 39.9879 92.3493ZM34.1904 95.1468C34.1904 91.9474 36.7884 89.3493 39.9879 89.3493C43.1873 89.3493 45.7853 91.9473 45.7853 95.1468C45.7853 98.3462 43.1873 100.944 39.9879 100.944C36.7884 100.944 34.1904 98.3462 34.1904 95.1468Z" fill="#005EB8"/>
</svg>
