<svg width="120" height="120" viewBox="0 0 120 120" fill="none" xmlns="http://www.w3.org/2000/svg">
<path fill-rule="evenodd" clip-rule="evenodd" d="M33.1811 16C33.1811 15.1716 33.8526 14.5 34.6811 14.5H60.1223C60.9507 14.5 61.6223 15.1716 61.6223 16C61.6223 16.8284 60.9507 17.5 60.1223 17.5H48.8727C48.8812 17.5645 48.8855 17.6303 48.8855 17.6971V25.7142C48.8855 25.8149 48.8756 25.9132 48.8567 26.0083H52.3315C54.6515 26.0083 56.5632 27.8806 56.5632 30.2238V33.0556H73.1662C83.7762 33.0556 92.4136 41.5854 92.4136 52.1414V58.8721C95.0938 58.9729 97.2464 61.1881 97.2464 63.8922V67.3511C97.2464 70.1398 94.9864 72.3748 92.2228 72.3748H75.3159C72.5479 72.3748 70.2923 70.1192 70.2923 67.3511V63.8922C70.2923 61.2646 72.3248 59.0987 74.8989 58.8857V54.6305C74.8989 52.2937 73.0356 50.441 70.7093 50.441H56.3269C55.3852 54.4811 51.7403 57.4721 47.4017 57.4721C43.0576 57.4721 39.4113 54.4625 38.474 50.4249H23.7676V60.3685C23.7676 61.197 23.096 61.8685 22.2676 61.8685C21.4392 61.8685 20.7676 61.197 20.7676 60.3685V23.1281C20.7676 22.2996 21.4392 21.6281 22.2676 21.6281C23.096 21.6281 23.7676 22.2996 23.7676 23.1281V33.0556H38.2402V30.2238C38.2402 27.8911 40.1576 26.0083 42.5042 26.0083H45.9144C45.8955 25.9132 45.8855 25.8149 45.8855 25.7142V17.6971C45.8855 17.6303 45.8899 17.5645 45.8984 17.5H34.6811C33.8526 17.5 33.1811 16.8284 33.1811 16ZM38.2402 36.0556H23.7676V47.4249H38.2402V36.0556ZM41.2402 30.2238C41.2402 29.5824 41.7797 29.0083 42.5042 29.0083H52.3315C53.0179 29.0083 53.5632 29.5606 53.5632 30.2238V34.2444C53.542 34.3448 53.5308 34.4489 53.5308 34.5556C53.5308 34.6622 53.542 34.7663 53.5632 34.8667V48.3753C53.5632 51.737 50.8206 54.4721 47.4017 54.4721C43.9849 54.4721 41.2402 51.7229 41.2402 48.3753V30.2238ZM56.5632 36.0556V47.441H70.7093C74.6868 47.441 77.8989 50.6313 77.8989 54.6305V58.8685H89.4136V52.1414C89.4136 43.269 82.1462 36.0556 73.1662 36.0556H56.5632ZM75.3159 61.8685C74.2048 61.8685 73.2923 62.781 73.2923 63.8922V67.3511C73.2923 68.4623 74.2047 69.3748 75.3159 69.3748H92.2228C93.3385 69.3748 94.2464 68.474 94.2464 67.3511V63.8922C94.2464 62.781 93.334 61.8685 92.2228 61.8685H75.3159ZM84.9592 78.9805L83.7694 79.894L82.5802 78.9798C82.8642 78.6103 83.3038 78.3938 83.7699 78.394C84.2359 78.3941 84.6754 78.6109 84.9592 78.9805ZM83.7687 82.4147C83.686 82.529 83.5998 82.6484 83.5107 82.7727C82.6353 83.9927 81.4709 85.6699 80.3089 87.5052C79.1438 89.3456 77.9986 91.3175 77.1498 93.1312C76.2751 95.0001 75.8138 96.4997 75.8138 97.4636C75.8138 101.916 79.3886 105.5 83.7694 105.5C88.1501 105.5 91.7249 101.916 91.7249 97.4636C91.7249 96.5042 91.264 95.007 90.389 93.1382C89.5402 91.3251 88.3949 89.3524 87.2296 87.5109C86.0676 85.6746 84.903 83.9957 84.0276 82.7744C83.9382 82.6495 83.8517 82.5295 83.7687 82.4147ZM83.7694 79.894C82.5802 78.9798 82.5803 78.9796 82.5802 78.9798L82.5794 78.9808L82.5718 78.9907L82.55 79.0192L82.4677 79.1274C82.3963 79.2216 82.2924 79.3594 82.1607 79.5359C81.8974 79.889 81.5225 80.3976 81.0732 81.0238C80.1756 82.2748 78.9762 84.0019 77.7742 85.9004C76.5755 87.7938 75.3568 89.8849 74.4326 91.8596C73.5344 93.7789 72.8138 95.7929 72.8138 97.4636C72.8138 103.55 77.7086 108.5 83.7694 108.5C89.8302 108.5 94.7249 103.55 94.7249 97.4636C94.7249 95.7964 94.004 93.7841 93.106 91.8662C92.182 89.8925 90.9633 87.801 89.7647 85.9068C88.5628 84.0074 87.3635 82.2788 86.466 81.0266C86.0167 80.3999 85.6419 79.8907 85.3786 79.5373C85.2469 79.3605 85.143 79.2226 85.0716 79.1283L84.9893 79.02L84.9675 78.9914L84.9617 78.9837L84.96 78.9816C84.9598 78.9814 84.9592 78.9805 83.7694 79.894Z" fill="#005EB8"/>
</svg>
