<svg width="345" height="240" viewBox="0 0 345 240" fill="none" xmlns="http://www.w3.org/2000/svg">
<g clip-path="url(#clip0_2809_235210)">
<path d="M-494 84.275C-443.528 160.217 -286.045 282.303 -59.8934 163.112C222.796 14.1233 258.879 -51.0176 632.331 66.57C931.091 160.64 1087.98 85.9452 1129.08 36.8391" stroke="#7B61FF" stroke-width="3"/>
<path d="M-494 104.275C-443.528 180.217 -286.045 302.303 -59.8934 183.112C222.796 34.1233 258.879 -31.0176 632.331 86.57C931.091 180.64 1087.98 105.945 1129.08 56.8391" stroke="#FFA666" stroke-width="3"/>
<path d="M-492.936 6C-448.369 95.6537 -285.214 242.244 10.8729 111.376C306.96 -19.4911 636.87 109.481 764.815 190.325C862.876 237.94 1076 285.666 1144 95.6537" stroke="#51B279" stroke-width="3"/>
</g>
<defs>
<clipPath id="clip0_2809_235210">
<rect width="345" height="240" fill="white"/>
</clipPath>
</defs>
</svg>
