<svg width="345" height="240" viewBox="0 0 345 240" fill="none" xmlns="http://www.w3.org/2000/svg">
<g clip-path="url(#clip0_2809_235227)">
<path d="M-149 84.275C-98.5276 160.217 58.955 282.303 285.107 163.112C567.796 14.1233 603.879 -51.0176 977.331 66.57C1276.09 160.64 1432.98 85.9452 1474.08 36.8391" stroke="#7B61FF" stroke-width="3"/>
<path d="M-149 104.275C-98.5276 180.217 58.955 302.303 285.107 183.112C567.796 34.1233 603.879 -31.0176 977.331 86.57C1276.09 180.64 1432.98 105.945 1474.08 56.8391" stroke="#FFA666" stroke-width="3"/>
<path d="M-147.936 6C-103.369 95.6537 59.7858 242.244 355.873 111.376C651.96 -19.4911 981.87 109.481 1109.81 190.325C1207.88 237.94 1421 285.666 1489 95.6537" stroke="#51B279" stroke-width="3"/>
</g>
<defs>
<clipPath id="clip0_2809_235227">
<rect width="345" height="240" fill="white"/>
</clipPath>
</defs>
</svg>
