<svg width="345" height="240" viewBox="0 0 345 240" fill="none" xmlns="http://www.w3.org/2000/svg">
<g clip-path="url(#clip0_2809_235204)">
<path d="M-839 84.275C-788.528 160.217 -631.045 282.303 -404.893 163.112C-122.204 14.1233 -86.1206 -51.0176 287.331 66.57C586.091 160.64 742.984 85.9452 784.085 36.8391" stroke="#7B61FF" stroke-width="3"/>
<path d="M-839 104.275C-788.528 180.217 -631.045 302.303 -404.893 183.112C-122.204 34.1233 -86.1206 -31.0176 287.331 86.57C586.091 180.64 742.984 105.945 784.085 56.8391" stroke="#FFA666" stroke-width="3"/>
<path d="M-837.936 6C-793.369 95.6537 -630.214 242.244 -334.127 111.376C-38.04 -19.4911 291.87 109.481 419.815 190.325C517.876 237.94 730.998 285.666 798.999 95.6537" stroke="#51B279" stroke-width="3"/>
</g>
<defs>
<clipPath id="clip0_2809_235204">
<rect width="345" height="240" fill="white"/>
</clipPath>
</defs>
</svg>
