<svg width="1477" height="282" viewBox="0 0 1477 282" fill="none" xmlns="http://www.w3.org/2000/svg">
<g clip-path="url(#clip0_2844_234649)">
<path d="M-2961 105.623C-2866.25 181.565 -2570.61 303.651 -2146.06 184.46C-1615.37 35.4709 -1547.63 -29.6699 -846.552 87.9177C-285.691 181.988 -70 117.649 25 87.9179C302.323 1.12822 597.5 21.0002 884 137C1275.59 295.549 1370.5 274.5 1488.5 254" stroke="#7B61FF" stroke-width="3"/>
<path d="M-2961 125.623C-2866.25 201.565 -2570.61 323.651 -2146.06 204.46C-1615.37 55.4711 -1547.63 -9.66966 -846.552 107.918C-285.691 201.988 1.5 107.687 95 77C188.5 46.313 377.352 27.3362 616.5 78.1869C902.5 139 1200 283.5 1360 269.5C1443.5 262.194 1483.5 233 1516 210.5" stroke="#FFA666" stroke-width="3"/>
<path d="M-2959 27.3476C-2875.34 117.001 -2569.05 263.592 -2013.21 132.724C-1457.36 1.85651 -862.176 140.762 -598.5 181C-319 223.653 -57.5 131.5 47.5 82.5003C125.053 46.3089 427 -28.3783 631.5 51.0001C927.806 166.014 1346.5 302 1494 243" stroke="#51B279" stroke-width="3"/>
</g>
<defs>
<clipPath id="clip0_2844_234649">
<rect width="1477" height="282" fill="white"/>
</clipPath>
</defs>
</svg>
