<svg width="1477" height="282" viewBox="0 0 1477 282" fill="none" xmlns="http://www.w3.org/2000/svg">
<g clip-path="url(#clip0_2844_234633)">
<path d="M-7 105.623C87.7512 181.565 383.392 303.651 807.944 184.46C1338.63 35.4709 1406.37 -29.6699 2107.45 87.9177C2668.31 181.988 2884 117.649 2979 87.9179C3256.32 1.12822 3551.5 21.0002 3838 137C4229.59 295.549 4337.5 261 4425.5 256.5" stroke="#7B61FF" stroke-width="3"/>
<path d="M-7 125.623C87.7512 201.565 383.392 323.651 807.944 204.46C1338.63 55.4712 1406.37 -9.66965 2107.45 107.918C2668.31 201.988 2961 107.874 3040 78.1869C3119 48.5002 3329.5 37.0002 3570.5 78.1869C3866.5 128.773 4156.5 279 4316.5 265C4400 257.694 4437.5 233 4470 210.5" stroke="#FFA666" stroke-width="3"/>
<path d="M-5 27.3474C78.6643 117.001 384.953 263.592 940.794 132.724C1496.64 1.85635 2091.82 140.762 2355.5 181C2635 223.653 2896.5 131.5 3001.5 82.5001C3079.05 46.3088 3398.5 -9.00003 3550.5 50C3846.81 165.013 4280.5 314 4428 255" stroke="#51B279" stroke-width="3"/>
</g>
<defs>
<clipPath id="clip0_2844_234633">
<rect width="1477" height="282" fill="white"/>
</clipPath>
</defs>
</svg>
