<svg width="1477" height="282" viewBox="0 0 1477 282" fill="none" xmlns="http://www.w3.org/2000/svg">
<g clip-path="url(#clip0_2844_234644)">
<path d="M-1484 105.623C-1389.25 181.565 -1093.61 303.651 -669.056 184.46C-138.366 35.4709 -70.6275 -29.6699 630.448 87.9177C1191.31 181.988 1407 117.649 1502 87.9179C1779.32 1.12822 2074.5 21.0002 2361 137C2752.59 295.549 2860.5 261 2948.5 256.5" stroke="#7B61FF" stroke-width="3"/>
<path d="M-1484 125.623C-1389.25 201.565 -1093.61 323.651 -669.056 204.46C-138.366 55.4712 -70.6275 -9.66965 630.448 107.918C1191.31 201.988 1484 107.874 1563 78.1869C1642 48.5002 1852.5 37.0002 2093.5 78.1869C2389.5 128.773 2679.5 279 2839.5 265C2923 257.694 2960.5 233 2993 210.5" stroke="#FFA666" stroke-width="3"/>
<path d="M-1482 27.3474C-1398.34 117.001 -1092.05 263.592 -536.206 132.724C19.6353 1.85635 614.824 140.762 878.5 181C1158 223.653 1419.5 131.5 1524.5 82.5001C1602.05 46.3088 1921.5 -9.00003 2073.5 50C2369.81 165.013 2803.5 314 2951 255" stroke="#51B279" stroke-width="3"/>
</g>
<defs>
<clipPath id="clip0_2844_234644">
<rect width="1477" height="282" fill="white"/>
</clipPath>
</defs>
</svg>
