<svg width="120" height="120" viewBox="0 0 120 120" fill="none" xmlns="http://www.w3.org/2000/svg">
<path fill-rule="evenodd" clip-rule="evenodd" d="M57.5144 17C57.5144 15.8954 58.4098 15 59.5144 15C83.666 15 103.377 34.0449 104.423 57.9526H111C111.715 57.9526 112.375 58.3338 112.732 58.9527C113.089 59.5716 113.089 60.3341 112.732 60.9529L99.0416 84.6558C98.6843 85.2744 98.0242 85.6555 97.3098 85.6555C96.5954 85.6555 95.9352 85.2744 95.5779 84.6558L81.8876 60.9529C81.5302 60.3341 81.5301 59.5716 81.8874 58.9527C82.2446 58.3338 82.9049 57.9526 83.6195 57.9526H90.3619C89.3315 41.8029 75.9101 29.027 59.5 29.027C49.8935 29.027 41.2997 33.4098 35.6302 40.2807C34.9272 41.1327 33.6666 41.2535 32.8147 40.5505C31.9627 39.8475 31.8419 38.5869 32.5449 37.7349C38.9423 29.9819 48.6501 25.027 59.5 25.027C78.7912 25.027 94.4255 40.6614 94.4255 59.9526C94.4255 61.0571 93.5301 61.9526 92.4255 61.9526H87.0843L97.3098 79.6567L107.535 61.9526H102.467C101.362 61.9526 100.467 61.0571 100.467 59.9526C100.467 37.3259 82.1275 19 59.5144 19C58.4098 19 57.5144 18.1046 57.5144 17ZM21.6902 34.264C22.4046 34.264 23.0648 34.6451 23.4221 35.2637L37.1124 58.9667C37.4698 59.5855 37.4699 60.3479 37.1126 60.9668C36.7554 61.5857 36.0951 61.967 35.3805 61.967H28.6381C29.6685 78.1166 43.0898 90.8925 59.5 90.8925C69.1065 90.8925 77.7002 86.5098 83.3698 79.6388C84.0728 78.7868 85.3333 78.6661 86.1853 79.3691C87.0373 80.0721 87.158 81.3326 86.455 82.1846C80.0576 89.9377 70.3498 94.8925 59.5 94.8925C40.2088 94.8925 24.5745 79.2581 24.5745 59.967C24.5745 58.8624 25.4699 57.967 26.5745 57.967H31.9157L21.6902 40.2629L11.4648 57.967H16.533C17.6376 57.967 18.533 58.8624 18.533 59.967C18.533 82.5936 36.8725 100.92 59.4856 100.92C60.5902 100.92 61.4856 101.815 61.4856 102.92C61.4856 104.024 60.5902 104.92 59.4856 104.92C35.334 104.92 15.6229 85.8746 14.5767 61.967H8C7.28541 61.967 6.62511 61.5857 6.26786 60.9668C5.91062 60.3479 5.91072 59.5855 6.26812 58.9667L19.9584 35.2637C20.3157 34.6451 20.9758 34.264 21.6902 34.264Z" fill="#005EB8"/>
</svg>
