<svg width="120" height="120" viewBox="0 0 120 120" fill="none" xmlns="http://www.w3.org/2000/svg">
<path fill-rule="evenodd" clip-rule="evenodd" d="M13.5 19C13.5 18.1716 14.1716 17.5 15 17.5H105.036C105.864 17.5 106.536 18.1716 106.536 19V32.0684C106.536 32.8969 105.864 33.5684 105.036 33.5684C104.207 33.5684 103.536 32.8969 103.536 32.0684V20.5H16.5V77.0428H65.8305C66.659 77.0428 67.3305 77.7144 67.3305 78.5428C67.3305 79.3712 66.659 80.0428 65.8305 80.0428H16.5V88.6548H65.8305C66.659 88.6548 67.3305 89.3263 67.3305 90.1548C67.3305 90.9832 66.659 91.6548 65.8305 91.6548H15C14.1716 91.6548 13.5 90.9832 13.5 90.1548V19ZM37.8058 39.8612C38.9868 37.2068 41.613 35.5072 44.5132 35.5072C47.5038 35.5072 50.1838 37.3134 51.3119 40.0748L52.4559 42.3964C52.7781 42.1427 53.2024 42.0213 53.6383 42.0961C54.4548 42.2363 55.003 43.0119 54.8628 43.8284L54.4126 46.45C54.3422 46.8597 54.1049 47.2219 53.7574 47.4501C53.4099 47.6782 52.9832 47.7519 52.5793 47.6535L50.0239 47.0312C49.219 46.8352 48.7254 46.0238 48.9214 45.2189C49.0535 44.6762 49.4654 44.2751 49.9664 44.1313L48.5964 41.3511C48.579 41.3159 48.5631 41.2801 48.5486 41.2437C47.8885 39.5887 46.295 38.5072 44.5132 38.5072C42.7792 38.5072 41.2164 39.5304 40.5278 41.1241C40.5078 41.1702 40.4856 41.2153 40.4612 41.2591L38.3294 45.0857C37.9263 45.8094 37.0128 46.0692 36.2891 45.666C35.5654 45.2629 35.3055 44.3494 35.7087 43.6257L37.8058 39.8612ZM74.5428 39.381C73.749 39.381 73.1368 40.0112 73.1431 40.7683L73.1432 40.7807L73.1431 45.0933H103.536V40.7807C103.536 40.0025 102.919 39.381 102.136 39.381H74.5428ZM103.536 48.0933H73.1431V88.6548H103.536V48.0933ZM103.536 91.6548H73.1431V98.8671C73.1431 99.6452 73.7603 100.267 74.5428 100.267H102.136C102.91 100.267 103.536 99.6407 103.536 98.8671V91.6548ZM70.1431 90.3547V98.8671C70.1431 101.293 72.0946 103.267 74.5428 103.267H102.136C104.567 103.267 106.536 101.298 106.536 98.8671V40.7807C106.536 38.3546 104.584 36.381 102.136 36.381H74.5428C72.1083 36.381 70.1268 38.3422 70.1431 40.7859V46.3934C70.1344 46.4588 70.1299 46.5255 70.1299 46.5933C70.1299 46.6611 70.1344 46.7279 70.1431 46.7933V89.9548C70.1344 90.0202 70.1299 90.087 70.1299 90.1548C70.1299 90.2226 70.1344 90.2893 70.1431 90.3547ZM35.5363 47.622C35.8934 47.8349 36.1462 48.1866 36.2342 48.593L36.7903 51.1617C36.9656 51.9714 36.4513 52.7698 35.6417 52.9451C35.2129 53.038 34.7873 52.9374 34.4557 52.702L33.5415 54.4162C32.5965 56.703 34.2711 59.221 36.741 59.221H39.2567C40.0851 59.221 40.7567 59.8926 40.7567 60.721C40.7567 61.5494 40.0851 62.221 39.2567 62.221H36.741C32.0799 62.221 28.9681 57.4422 30.809 53.1755C30.8254 53.1375 30.8433 53.1003 30.8627 53.0638L31.8999 51.1192C31.3773 51.0073 30.9315 50.6191 30.7721 50.0699C30.5413 49.2743 30.9991 48.4422 31.7947 48.2113L34.3502 47.4698C34.7495 47.354 35.1791 47.4091 35.5363 47.622ZM54.4561 49.8819C55.1992 49.5158 56.0984 49.8215 56.4645 50.5647L57.7886 53.2525C57.806 53.2878 57.8219 53.3237 57.8365 53.3602C59.5273 57.6046 56.3887 62.221 51.822 62.221H48.8984C48.9142 62.6007 48.7866 62.9867 48.5112 63.2906C47.955 63.9045 47.0064 63.9512 46.3925 63.395L44.4197 61.6075C44.1119 61.3287 43.9335 60.9347 43.927 60.5195C43.9205 60.1043 44.0864 59.7049 44.3852 59.4166L46.2786 57.5894C46.8747 57.0141 47.8243 57.031 48.3996 57.6271C48.8212 58.064 48.9248 58.6908 48.7152 59.221H51.822C54.2548 59.221 55.929 56.7769 55.0691 54.5207L53.7733 51.8904C53.4072 51.1472 53.7129 50.248 54.4561 49.8819ZM57.0614 84.3554C57.0614 83.527 57.733 82.8554 58.5614 82.8554H61.4744C62.3028 82.8554 62.9744 83.527 62.9744 84.3554C62.9744 85.1838 62.3028 85.8554 61.4744 85.8554H58.5614C57.733 85.8554 57.0614 85.1838 57.0614 84.3554ZM50.227 94.5124C51.0306 94.7137 51.5188 95.5284 51.3174 96.332L50.3282 100.28H67.2738C68.1022 100.28 68.7738 100.952 68.7738 101.78C68.7738 102.608 68.1022 103.28 67.2738 103.28H48.4396C48.418 103.28 48.3963 103.28 48.3746 103.28H42.5933C41.7649 103.28 41.0933 102.608 41.0933 101.78C41.0933 100.952 41.7649 100.28 42.5933 100.28H47.2354L48.4074 95.6028C48.6088 94.7992 49.4234 94.311 50.227 94.5124ZM86.1112 95.9674C86.1112 95.139 86.7828 94.4674 87.6112 94.4674H89.0677C89.8961 94.4674 90.5677 95.139 90.5677 95.9674C90.5677 96.7958 89.8961 97.4674 89.0677 97.4674H87.6112C86.7828 97.4674 86.1112 96.7958 86.1112 95.9674Z" fill="#005EB8"/>
</svg>
