<svg width="120" height="120" viewBox="0 0 120 120" fill="none" xmlns="http://www.w3.org/2000/svg">
<path d="M101.551 97.3309H84.8812C84.1212 97.3309 83.4412 96.9409 83.0612 96.2709L74.7212 81.8409C74.3412 81.1809 74.3412 80.4009 74.7212 79.7509L83.0712 65.3109C83.4412 64.6609 84.1212 64.2609 84.8912 64.2609H101.561C102.311 64.2609 103.011 64.6609 103.381 65.3209L111.721 79.7509C112.101 80.4109 112.101 81.1909 111.721 81.8509L103.381 96.2909C103.011 96.9409 102.331 97.3409 101.561 97.3409L101.551 97.3309ZM85.4012 94.3409H101.031L108.851 80.8109L101.031 67.2809H85.4012L77.5812 80.8109L85.4012 94.3409ZM49.9012 93.7409C48.7612 93.7409 47.6112 93.3009 46.7412 92.4309L41.1412 86.8309C40.3012 85.9909 39.8312 84.8609 39.8312 83.6709C39.8312 82.4809 40.2912 81.3509 41.1412 80.5109L43.9612 77.6909C43.6312 77.0809 43.7712 76.3009 44.3212 75.8409C44.8012 75.4309 45.4712 75.3809 45.9912 75.6609L47.7212 73.9309C47.3912 73.3209 47.5312 72.5409 48.0812 72.0809C48.5612 71.6709 49.2312 71.6209 49.7512 71.9009L51.4812 70.1709C51.1512 69.5609 51.2912 68.7809 51.8412 68.3209C52.3212 67.9109 52.9912 67.8609 53.5112 68.1409L55.2412 66.4109C54.9112 65.8009 55.0512 65.0209 55.6012 64.5609C56.0812 64.1509 56.7512 64.1009 57.2712 64.3809L59.0012 62.6509C58.6712 62.0409 58.8012 61.2609 59.3612 60.8009C59.8412 60.3909 60.5112 60.3409 61.0412 60.6209L62.7712 58.8909C62.4412 58.2809 62.5712 57.5009 63.1212 57.0409C63.6012 56.6309 64.2712 56.5809 64.8012 56.8609L66.5412 55.1209C66.2212 54.5109 66.3512 53.7409 66.9012 53.2709C67.3812 52.8609 68.0412 52.8109 68.5712 53.0909L70.3112 51.3509C69.9812 50.7409 70.1112 49.9609 70.6612 49.4909C71.1512 49.0809 71.8112 49.0309 72.3412 49.3109L74.0712 47.5809C73.7412 46.9709 73.8712 46.1909 74.4212 45.7209C74.9112 45.3109 75.5712 45.2609 76.1012 45.5509L84.0912 37.5609L80.8412 34.3109C80.3212 33.7909 80.0312 33.1009 80.0312 32.3709C80.0312 31.6409 80.3212 30.9509 80.8412 30.4309L87.4612 23.8109C87.9612 23.3009 88.6412 23.0109 89.3812 23.0009C90.1012 22.9809 90.8212 23.2809 91.3412 23.8109L109.741 42.2109C110.261 42.7309 110.551 43.4209 110.551 44.1509C110.551 44.8809 110.261 45.5709 109.741 46.0909L103.121 52.7109C102.601 53.2309 101.911 53.5209 101.171 53.5209H101.151C100.421 53.5209 99.7412 53.2309 99.2312 52.7109L96.0012 49.4809L89.4112 56.0709C89.5512 56.4709 89.5312 56.9309 89.3012 57.3309C88.9312 57.9709 88.1712 58.2309 87.5012 57.9909L85.6612 59.8309C85.8012 60.2309 85.7812 60.6909 85.5512 61.0909C85.1812 61.7309 84.4112 61.9909 83.7512 61.7509L81.9012 63.6009C82.0512 64.0009 82.0212 64.4709 81.7912 64.8709C81.4212 65.5109 80.6512 65.7709 79.9812 65.5309L78.1312 67.3809C78.2712 67.7809 78.2512 68.2409 78.0212 68.6309C77.6512 69.2709 76.8912 69.5309 76.2212 69.2909L74.3812 71.1309C74.5212 71.5309 74.5012 71.9909 74.2712 72.3809C73.9012 73.0209 73.1412 73.2809 72.4712 73.0409L70.6312 74.8809C70.7712 75.2809 70.7512 75.7409 70.5212 76.1409C70.1512 76.7809 69.3812 77.0409 68.7212 76.8009L66.8812 78.6409C67.0212 79.0409 67.0012 79.5009 66.7712 79.8909C66.4012 80.5309 65.6412 80.7909 64.9712 80.5509L63.1312 82.3909C63.2712 82.7909 63.2512 83.2509 63.0212 83.6409C62.6512 84.2809 61.8912 84.5409 61.2212 84.3009L59.3812 86.1409C59.5212 86.5409 59.5012 87.0009 59.2712 87.4009C58.9012 88.0409 58.1412 88.3009 57.4712 88.0609L53.1512 92.3809C52.2812 93.2509 51.1312 93.6909 49.9912 93.6909L49.9012 93.7409ZM46.0112 79.8809L43.2612 82.6309C42.9812 82.9109 42.8312 83.2809 42.8312 83.6709C42.8312 84.0609 42.9812 84.4309 43.2612 84.7109L48.8612 90.3109C49.4312 90.8809 50.3612 90.8809 50.9412 90.3109L54.7212 86.5309C50.5712 83.9109 47.7112 81.4809 46.0112 79.8809ZM48.1412 77.7509C49.8012 79.3109 52.7012 81.7509 56.9012 84.3509L58.4812 82.7709C54.3312 80.1509 51.4712 77.7209 49.7712 76.1209L48.1312 77.7509H48.1412ZM51.9012 73.9909C53.5612 75.5509 56.4612 77.9909 60.6612 80.5909L62.2412 79.0109C58.0912 76.3909 55.2312 73.9609 53.5312 72.3609L51.8912 73.9909H51.9012ZM55.6612 70.2309C57.3212 71.7909 60.2212 74.2309 64.4212 76.8309L66.0012 75.2509C61.8512 72.6309 58.9912 70.2009 57.2912 68.6009L55.6512 70.2409L55.6612 70.2309ZM59.4212 66.4709C61.0812 68.0309 63.9812 70.4709 68.1812 73.0709L69.7612 71.4909C65.6112 68.8709 62.7512 66.4409 61.0512 64.8409L59.4112 66.4809L59.4212 66.4709ZM63.1812 62.7109C64.8412 64.2709 67.7412 66.7109 71.9412 69.3009L73.5212 67.7209C69.3712 65.1009 66.5112 62.6709 64.8112 61.0709L63.1712 62.7009L63.1812 62.7109ZM66.9412 58.9509C68.6012 60.5109 71.5012 62.9509 75.7012 65.5409L77.2912 63.9509C73.1412 61.3309 70.2812 58.9009 68.5912 57.3009L66.9512 58.9409L66.9412 58.9509ZM70.7112 55.1809C72.3712 56.7409 75.2612 59.1809 79.4612 61.7809L81.0512 60.1909C76.9012 57.5709 74.0412 55.1409 72.3512 53.5509L70.7112 55.1909V55.1809ZM74.4812 51.4109C76.1412 52.9709 79.0412 55.4109 83.2312 58.0009L84.8112 56.4209C80.6612 53.8009 77.8012 51.3709 76.1112 49.7809L74.4812 51.4109ZM78.2412 47.6509C79.9012 49.2109 82.8012 51.6509 86.9912 54.2409L93.8612 47.3709C93.8612 47.3709 93.7812 47.2809 93.7512 47.2309L86.2012 39.6809L78.2412 47.6409V47.6509ZM97.1012 46.3509L101.171 50.4209L107.431 44.1609L103.361 40.0909L97.1012 46.3509ZM87.8012 37.0509L94.9812 44.2309L101.241 37.9709L94.0612 30.7909L87.8012 37.0509ZM83.1412 32.3909L85.6812 34.9309L91.9412 28.6709L89.4012 26.1309L83.1412 32.3909ZM93.2112 90.3709C87.9412 90.3709 83.6512 86.0809 83.6512 80.8109C83.6512 75.5409 87.9412 71.2509 93.2112 71.2509C98.4812 71.2509 102.771 75.5409 102.771 80.8109C102.771 86.0809 98.4812 90.3709 93.2112 90.3709ZM93.2112 74.2609C89.5912 74.2609 86.6512 77.2009 86.6512 80.8209C86.6512 84.4409 89.5912 87.3809 93.2112 87.3809C96.8312 87.3809 99.7712 84.4409 99.7712 80.8209C99.7712 77.2009 96.8312 74.2609 93.2112 74.2609ZM24.5712 78.6509C24.2112 78.6509 23.8512 78.5209 23.5612 78.2609L21.5312 76.4209C21.2212 76.1409 21.0412 75.7509 21.0412 75.3309C21.0412 74.9109 21.2012 74.5209 21.5012 74.2309L23.4512 72.3509C24.0512 71.7709 25.0012 71.7909 25.5712 72.3909C26.0112 72.8409 26.1012 73.5009 25.8612 74.0409H29.1412C30.3612 74.0409 31.4512 73.4609 32.1312 72.4509C32.8012 71.4609 32.9412 70.2509 32.5212 69.1409L31.1912 66.4309C30.8212 65.6909 31.1312 64.7909 31.8712 64.4209C32.6112 64.0609 33.5112 64.3609 33.8812 65.1009L35.2412 67.8709C35.2412 67.8709 35.2712 67.9409 35.2912 67.9809C36.1012 70.0209 35.8512 72.3209 34.6212 74.1309C33.3912 75.9509 31.3412 77.0409 29.1412 77.0409H26.0712C26.1012 77.4309 25.9712 77.8409 25.6912 78.1609C25.3912 78.4909 24.9912 78.6509 24.5812 78.6509H24.5712ZM16.2012 77.0409H13.6112C11.3812 77.0409 9.32121 75.9309 8.09121 74.0609C6.86121 72.1909 6.66121 69.8509 7.54121 67.7909C7.56121 67.7509 7.57121 67.7209 7.59121 67.6809L8.69121 65.6309C8.14121 65.5409 7.67121 65.1409 7.50121 64.5709C7.27121 63.7809 7.73121 62.9409 8.52121 62.7109L11.1512 61.9509C11.5512 61.8309 11.9812 61.8909 12.3412 62.1009C12.7012 62.3109 12.9512 62.6609 13.0412 63.0709L13.6112 65.7109C13.7912 66.5209 13.2712 67.3209 12.4612 67.4909C12.0112 67.5909 11.5712 67.4709 11.2312 67.2209L10.2612 69.0309C9.79121 70.1609 9.91121 71.3909 10.5812 72.4109C11.2612 73.4409 12.3612 74.0309 13.5912 74.0309H16.1812C17.0112 74.0309 17.6812 74.7009 17.6812 75.5309C17.6812 76.3609 17.0112 77.0309 16.1812 77.0309L16.2012 77.0409ZM30.2812 62.0909C30.1612 62.0909 30.0412 62.0809 29.9312 62.0509L27.3012 61.4109C26.5012 61.2109 26.0012 60.4009 26.2012 59.6009C26.3412 59.0409 26.7712 58.6409 27.2812 58.5009L25.8412 55.5909C25.8412 55.5909 25.8112 55.5209 25.7912 55.4809C25.1012 53.7509 23.4512 52.6409 21.6012 52.6409C19.7512 52.6409 18.1712 53.7109 17.4612 55.3609C17.4412 55.4109 17.4212 55.4509 17.3912 55.4909L15.2012 59.4309C14.8012 60.1509 13.8812 60.4109 13.1612 60.0109C12.4412 59.6109 12.1812 58.6909 12.5812 57.9709L14.7412 54.0909C15.9512 51.3809 18.6312 49.6309 21.6112 49.6309C24.5912 49.6309 27.4112 51.4609 28.5712 54.3109L29.7812 56.7609C30.1112 56.4809 30.5512 56.3409 31.0112 56.4209C31.8312 56.5609 32.3712 57.3409 32.2312 58.1509L31.7712 60.8509C31.7012 61.2609 31.4612 61.6209 31.1112 61.8509C30.8612 62.0109 30.5812 62.1009 30.2912 62.1009L30.2812 62.0909ZM60.1712 58.2509H43.5012C42.7412 58.2509 42.0612 57.8509 41.6812 57.1909L33.3412 42.7609C32.9612 42.1009 32.9612 41.3209 33.3412 40.6709L41.6912 26.2309C42.0612 25.5809 42.7412 25.1809 43.5112 25.1809H60.1812C60.9412 25.1809 61.6212 25.5709 62.0012 26.2309L70.3412 40.6609C70.7212 41.3209 70.7212 42.1009 70.3412 42.7609L62.0012 57.2009C61.6212 57.8609 60.9412 58.2509 60.1812 58.2509H60.1712ZM44.0212 55.2609H59.6512L67.4712 41.7309L59.6512 28.2009H44.0212L36.2012 41.7309L44.0212 55.2609ZM51.8312 51.2509C46.5612 51.2509 42.2712 46.9609 42.2712 41.6909C42.2712 36.4209 46.5612 32.1309 51.8312 32.1309C57.1012 32.1309 61.3912 36.4209 61.3912 41.6909C61.3912 46.9609 57.1012 51.2509 51.8312 51.2509ZM51.8312 35.1409C48.2212 35.1409 45.2712 38.0809 45.2712 41.7009C45.2712 45.3209 48.2112 48.2609 51.8312 48.2609C55.4512 48.2609 58.3912 45.3209 58.3912 41.7009C58.3912 38.0809 55.4512 35.1409 51.8312 35.1409Z" fill="#005EB8"/>
</svg>
