<svg width="120" height="120" viewBox="0 0 120 120" fill="none" xmlns="http://www.w3.org/2000/svg">
<path fill-rule="evenodd" clip-rule="evenodd" d="M28.3212 14.5L25.5043 97.7546C25.3677 101.716 28.5336 105 32.4855 105H88.3861C92.338 105 95.5039 101.716 95.3673 97.7546L92.5189 14.5H81.9095L80.5515 42.8935C80.5514 42.895 80.5514 42.8964 80.5513 42.8979C80.4153 45.9522 77.897 48.3816 74.818 48.3816H46.0226C42.9482 48.3816 40.425 45.9721 40.2893 42.8968C40.2892 42.8955 40.2891 42.8942 40.2891 42.893L38.9319 14.5H28.3212ZM24.8287 14.2215C24.8934 12.4418 26.3504 11 28.1592 11H39.0912C40.8733 11 42.3498 12.3974 42.4213 14.1944L43.7858 42.7409C43.8381 43.9436 44.8185 44.8816 46.0226 44.8816H74.818C76.0173 44.8816 77.0026 43.9328 77.0549 42.7404L77.0552 42.7334L78.4194 14.2098C78.4909 12.4137 79.9819 11 81.7649 11H92.6659C94.4899 11 95.9478 12.4417 96.012 14.2382L98.8652 97.6339C99.0698 103.565 94.3274 108.5 88.3861 108.5H32.4855C26.5442 108.5 21.8018 103.565 22.0064 97.6339L23.7553 97.6942L22.0063 97.6351L22.0064 97.6339L24.8287 14.2215ZM52.8579 65.2819C54.2398 62.1755 57.3132 60.1864 60.7072 60.1864C64.207 60.1864 67.3431 62.3002 68.6632 65.5317L70.0112 68.2672C70.3891 67.9616 70.8916 67.8141 71.4082 67.9028C72.3607 68.0664 73.0003 68.9712 72.8368 69.9238L72.3095 72.994C72.2275 73.4721 71.9507 73.8946 71.5452 74.1608C71.1397 74.427 70.642 74.513 70.1707 74.3982L67.178 73.6694C66.2389 73.4407 65.6631 72.4941 65.8918 71.555C66.0454 70.924 66.5232 70.457 67.1051 70.2879L65.4951 67.0208C65.4748 66.9797 65.4562 66.9379 65.4393 66.8955C64.6653 64.9547 62.7966 63.6864 60.7072 63.6864C58.6738 63.6864 56.8411 64.8863 56.0335 66.7553C56.0103 66.809 55.9843 66.8616 55.9558 66.9128L53.4593 71.3941C52.989 72.2385 51.9232 72.5416 51.0789 72.0712C50.2346 71.6009 49.9314 70.5351 50.4018 69.6908L52.8579 65.2819ZM50.2061 74.3891C50.6228 74.6375 50.9177 75.0478 51.0203 75.5219L51.6716 78.5302C51.8761 79.4748 51.2761 80.4063 50.3315 80.6108C49.826 80.7203 49.3243 80.5993 48.9357 80.3185L47.8673 82.3218C46.7584 85.0044 48.7228 87.9584 51.6204 87.9584H54.5666C55.5331 87.9584 56.3166 88.7419 56.3166 89.7084C56.3166 90.6749 55.5331 91.4584 54.5666 91.4584H51.6204C46.1665 91.4584 42.5253 85.8668 44.6794 80.8743C44.6985 80.83 44.7194 80.7866 44.7421 80.744L45.9535 78.4727C45.3433 78.3425 44.8226 77.8894 44.6365 77.2482C44.3672 76.32 44.9014 75.3492 45.8296 75.0799L48.8223 74.2115C49.2882 74.0763 49.7894 74.1406 50.2061 74.3891ZM72.37 77.0204C73.237 76.5933 74.2861 76.95 74.7132 77.817L76.2638 80.9648C76.2841 81.0059 76.3028 81.0479 76.3197 81.0905C78.2982 86.0568 74.6257 91.4584 69.2823 91.4584H65.8358C65.8561 91.9037 65.7074 92.3568 65.3844 92.7132C64.7355 93.4294 63.6288 93.484 62.9126 92.835L60.6021 90.7417C60.2431 90.4164 60.035 89.9568 60.0274 89.4723C60.0197 88.9879 60.2133 88.522 60.5619 88.1856L62.7793 86.0457C63.4748 85.3745 64.5826 85.3942 65.2538 86.0897C65.7482 86.602 65.8677 87.338 65.6184 87.9584H69.2823C72.1361 87.9584 74.1001 85.0911 73.0911 82.4444L71.5735 79.3636C71.1464 78.4966 71.503 77.4475 72.37 77.0204Z" fill="#005EB8"/>
</svg>
