<svg width="120" height="120" viewBox="0 0 120 120" fill="none" xmlns="http://www.w3.org/2000/svg">
<path fill-rule="evenodd" clip-rule="evenodd" d="M29.1855 46.237C29.1855 29.814 42.4995 16.5 58.9224 16.5H60.0648C76.4877 16.5 89.8017 29.814 89.8017 46.237C89.8017 57.487 83.5524 67.2459 74.3397 72.298C72.5845 73.261 71.499 75.1249 71.499 77.1436V81.4196C74.5056 82.1012 76.7485 84.7885 76.7485 88.002C76.7485 91.7311 73.7282 94.7515 69.999 94.7515H69.6448C68.92 99.7064 64.6576 103.505 59.5 103.505C54.3424 103.505 50.0801 99.7064 49.3552 94.7515H49.001C45.2719 94.7515 42.2515 91.7311 42.2515 88.002C42.2515 84.793 44.488 82.1089 47.4882 81.4225V77.1436C47.4882 75.1135 46.404 73.2616 44.6473 72.2979C35.4473 67.2585 29.1855 57.4866 29.1855 46.237ZM50.4882 81.2525V77.1436C50.4882 74.0396 48.8257 71.1683 46.0901 69.6677C37.8093 65.1321 32.1855 56.3444 32.1855 46.237C32.1855 31.4709 44.1564 19.5 58.9224 19.5H60.0648C74.8308 19.5 86.8017 31.4709 86.8017 46.237C86.8017 56.3443 81.1915 65.1191 72.8972 69.6676C70.1604 71.1689 68.499 74.054 68.499 77.1436V81.2525H50.4882ZM49.001 84.2525C46.9287 84.2525 45.2515 85.9297 45.2515 88.002C45.2515 90.0743 46.9287 91.7515 49.001 91.7515H69.999C72.0713 91.7515 73.7485 90.0743 73.7485 88.002C73.7485 85.9297 72.0713 84.2525 69.999 84.2525H49.001ZM66.5987 94.7515H52.4014C53.0911 98.0404 56.004 100.505 59.5 100.505C62.996 100.505 65.9089 98.0404 66.5987 94.7515ZM38.0386 37.9083C41.1111 29.1784 49.4278 22.9175 59.2176 22.9175C67.7513 22.9175 75.1706 27.6776 78.9673 34.6913C79.028 34.6885 79.089 34.6871 79.1504 34.6871C81.3214 34.6871 83.1019 36.4446 83.1019 38.6386C83.1019 39.992 82.4244 41.1793 81.3957 41.8904C81.573 43.0273 81.6643 44.1915 81.6643 45.377C81.6643 47.7669 81.2904 50.0697 80.598 52.2303C80.5722 52.419 80.5114 52.5965 80.4222 52.756C77.452 61.2871 69.4768 67.4784 60.0168 67.8097C59.8053 67.8213 59.6524 67.8191 59.4523 67.8213C59.2513 67.8235 59.1822 67.8213 58.8831 67.8213C50.5322 67.6993 43.2875 63.0187 39.5241 56.153C39.3657 56.1724 39.2045 56.1824 39.0411 56.1824C36.8701 56.1824 35.0896 54.4249 35.0896 52.2309C35.0896 50.7855 35.8728 49.517 37.0364 48.828C36.8649 47.7011 36.771 46.5414 36.771 45.3642C36.771 42.9421 37.1545 40.6092 37.8644 38.4233C37.8909 38.2388 37.9511 38.065 38.0386 37.9083ZM40.4866 40.1181C40.0202 41.7871 39.771 43.5466 39.771 45.3642C39.771 46.3899 39.8535 47.406 40.0055 48.3982C41.1523 48.6862 42.1044 49.476 42.6071 50.5255H46.8281C46.6129 48.8685 46.4999 47.1441 46.4999 45.377C46.4999 44.1637 46.5536 42.9728 46.6554 41.8155C46.0001 41.3855 45.4794 40.7658 45.1731 40.0324L40.4866 40.1181ZM45.1574 37.0322L41.61 37.097C43.6072 32.8497 47.0958 29.442 51.4031 27.5504C49.9867 29.4776 48.8355 31.9056 48.0053 34.6438C46.7103 34.9176 45.6455 35.8292 45.1574 37.0322ZM48.8929 37.5615C48.9324 37.5685 48.9719 37.574 49.0114 37.5778C49.4451 37.6657 49.7728 38.0487 49.7728 38.5103C49.7728 39.0295 49.3405 39.4618 48.8213 39.4618C48.2969 39.4618 47.8698 39.0372 47.8698 38.5103C47.8698 37.9911 48.302 37.5588 48.8213 37.5588C48.8454 37.5588 48.8692 37.5597 48.8929 37.5615ZM50.9746 35.1968C51.8365 32.4719 53.0157 30.2308 54.3642 28.6366C55.4729 27.3259 56.6427 26.5073 57.8134 26.1462L57.8707 37.0049L54.7935 37.0231C53.9651 37.0281 53.2975 37.7036 53.3024 38.532C53.3074 39.3604 53.9829 40.028 54.8113 40.0231L57.8866 40.0048L57.9313 48.4692C56.8955 48.8038 56.0442 49.5559 55.5774 50.5255H49.8554C49.6243 48.8894 49.4999 47.164 49.4999 45.377C49.4999 44.3574 49.5408 43.3558 49.6185 42.3807C51.4148 42.0101 52.7728 40.4134 52.7728 38.5103C52.7728 37.1169 52.0547 35.8997 50.9746 35.1968ZM47.344 53.5255H42.776C42.6292 53.9493 42.4125 54.3398 42.1398 54.6836C44.1948 58.4478 47.4541 61.4541 51.3979 63.188C50.8767 62.4778 50.3969 61.7081 49.9616 60.8949C48.832 58.7848 47.9396 56.2835 47.344 53.5255ZM57.9161 64.6357C56.0461 64.0969 54.1679 62.3957 52.6065 59.479C51.7043 57.7938 50.956 55.7785 50.42 53.5255H55.4057C55.7988 54.6607 56.6944 55.557 57.821 55.9563L57.9161 64.6357ZM60.8195 55.8095L60.9148 64.5044C62.6525 63.8509 64.3775 62.19 65.8288 59.479C66.731 57.7938 67.4793 55.7785 68.0153 53.5255H65.6094C64.781 53.5255 64.1094 52.8539 64.1094 52.0255C64.1094 51.1971 64.781 50.5255 65.6094 50.5255H68.5799C68.811 48.8894 68.9354 47.164 68.9354 45.377C68.9354 43.4852 68.796 41.6624 68.5381 39.9415L60.8865 39.987L60.9326 48.7085C62.211 49.36 63.0921 50.6874 63.0921 52.2309C63.0921 53.8067 62.1662 55.1767 60.8195 55.8095ZM60.8707 36.987L67.9464 36.945C67.416 34.8062 66.693 32.8892 65.8288 31.275C64.3494 28.5115 62.5855 26.8391 60.8138 26.2128L60.8707 36.987ZM67.0235 27.5471C67.5501 28.2625 68.0345 29.0387 68.4737 29.8591C69.5619 31.8919 70.43 34.2879 71.0247 36.9267L75.6016 36.8995C75.77 36.5564 75.9868 36.241 76.2432 35.9623C74.1829 32.2383 70.9402 29.2654 67.0235 27.5471ZM75.4043 39.9007L71.5663 39.9235C71.808 41.6736 71.9354 43.5012 71.9354 45.377C71.9354 47.1441 71.8224 48.8685 71.6072 50.5255H77.9748C78.4243 48.8855 78.6643 47.1592 78.6643 45.377C78.6643 44.4077 78.5942 43.4573 78.4583 42.5296C77.0304 42.2768 75.8603 41.256 75.4043 39.9007ZM76.8785 53.5255H71.0913C70.4957 56.2835 69.6033 58.7848 68.4737 60.8949C68.0389 61.707 67.5599 62.4758 67.0394 63.1853C71.3799 61.2749 74.8908 57.8238 76.8785 53.5255ZM16.8082 31.715C17.2224 30.9975 18.1398 30.7518 18.8573 31.166L24.0811 34.1822C24.7985 34.5965 25.0443 35.5139 24.6301 36.2313C24.2158 36.9487 23.2984 37.1945 22.581 36.7803L17.3572 33.764C16.6397 33.3498 16.394 32.4324 16.8082 31.715ZM102.192 31.715C102.606 32.4324 102.36 33.3498 101.643 33.764L96.419 36.7803C95.7016 37.1945 94.7842 36.9487 94.37 36.2313C93.9557 35.5139 94.2015 34.5965 94.9189 34.1822L100.143 31.166C100.86 30.7518 101.778 30.9975 102.192 31.715ZM79.1504 37.6871C78.6234 37.6871 78.1989 38.1143 78.1989 38.6386C78.1989 39.1656 78.626 39.5901 79.1504 39.5901C79.6747 39.5901 80.1019 39.1656 80.1019 38.6386C80.1019 38.1117 79.6747 37.6871 79.1504 37.6871ZM39.0411 51.2794C38.5218 51.2794 38.0896 51.7116 38.0896 52.2309C38.0896 52.7578 38.5167 53.1824 39.0411 53.1824C39.5654 53.1824 39.9925 52.7578 39.9925 52.2309C39.9925 51.7039 39.5654 51.2794 39.0411 51.2794ZM59.1406 51.2794C58.6214 51.2794 58.1892 51.7116 58.1892 52.2309C58.1892 52.7578 58.6163 53.1824 59.1406 53.1824C59.6676 53.1824 60.0921 52.7552 60.0921 52.2309C60.0921 51.7039 59.665 51.2794 59.1406 51.2794ZM12.5 51.2554C12.5 50.427 13.1716 49.7554 14 49.7554H19.2495C20.0779 49.7554 20.7495 50.427 20.7495 51.2554C20.7495 52.0839 20.0779 52.7554 19.2495 52.7554H14C13.1716 52.7554 12.5 52.0839 12.5 51.2554ZM98.2505 51.2554C98.2505 50.427 98.9221 49.7554 99.7505 49.7554H105C105.828 49.7554 106.5 50.427 106.5 51.2554C106.5 52.0839 105.828 52.7554 105 52.7554H99.7505C98.9221 52.7554 98.2505 52.0839 98.2505 51.2554ZM26.889 64.2003C27.3032 64.9177 27.0575 65.8351 26.34 66.2494L21.1162 69.2656C20.3988 69.6798 19.4814 69.434 19.0671 68.7166C18.6529 67.9992 18.8987 67.0818 19.6161 66.6676L24.8399 63.6513C25.5574 63.2371 26.4748 63.4829 26.889 64.2003ZM92.111 64.2003C92.5252 63.4829 93.4426 63.2371 94.1601 63.6513L99.3839 66.6676C100.101 67.0818 100.347 67.9992 99.9329 68.7166C99.5186 69.434 98.6012 69.6798 97.8838 69.2656L92.66 66.2494C91.9425 65.8351 91.6968 64.9177 92.111 64.2003Z" fill="#005EB8"/>
</svg>
