<svg width="120" height="120" viewBox="0 0 120 120" fill="none" xmlns="http://www.w3.org/2000/svg">
<path d="M30.091 35.667H89.8722C90.2523 35.667 90.6168 35.516 90.8856 35.2472C91.1543 34.9785 91.3053 34.614 91.3053 34.2339C91.3053 33.8538 91.1543 33.4893 90.8856 33.2205C90.6168 32.9518 90.2523 32.8008 89.8722 32.8008H30.091C29.7109 32.8008 29.3464 32.9518 29.0777 33.2205C28.8089 33.4893 28.6579 33.8538 28.6579 34.2339C28.6579 34.614 28.8089 34.9785 29.0777 35.2472C29.3464 35.516 29.7109 35.667 30.091 35.667Z" fill="#005EB8"/>
<path d="M93.838 88.6934H96.422C96.7928 88.6946 97.1496 88.5517 97.4169 88.2947C97.6843 88.0378 97.8412 87.6869 97.8546 87.3164C97.946 84.9684 98.9323 82.7444 100.611 81.1005C102.29 79.4566 104.535 78.5174 106.884 78.4756C107.259 78.4673 107.616 78.3129 107.879 78.0453C108.142 77.7777 108.29 77.4181 108.291 77.043V33.3223C108.29 32.9472 108.142 32.5876 107.879 32.32C107.616 32.0524 107.259 31.898 106.884 31.8897C104.532 31.8488 102.285 30.9082 100.605 29.2615C98.9253 27.6147 97.9404 25.3869 97.8527 23.0362C97.8402 22.6652 97.6837 22.3138 97.4165 22.0562C97.1493 21.7986 96.7923 21.6551 96.4211 21.6562H23.3804C23.0092 21.6551 22.6521 21.7985 22.3847 22.0561C22.1173 22.3137 21.9606 22.6651 21.9478 23.0362C21.8543 25.36 20.8863 27.5626 19.2376 29.2029C17.589 30.8432 15.3815 31.8001 13.0572 31.8819C12.6851 31.8928 12.3319 32.0487 12.073 32.3164C11.8142 32.584 11.6701 32.9421 11.6715 33.3145V77.0504C11.6701 77.4227 11.8142 77.7809 12.073 78.0485C12.3319 78.3161 12.6851 78.472 13.0572 78.483C15.379 78.5654 17.5842 79.5209 19.2322 81.1583C20.8803 82.7958 21.8498 84.9948 21.9472 87.316C21.9606 87.6864 22.1175 88.0371 22.3846 88.294C22.6518 88.5509 23.0083 88.694 23.3789 88.693H64.0236C64.4036 88.693 64.768 88.542 65.0366 88.2734C65.3053 88.0047 65.4562 87.6403 65.4562 87.2604C65.4562 86.8804 65.3053 86.516 65.0366 86.2474C64.768 85.9787 64.4036 85.8278 64.0236 85.8278H24.6779C24.2674 83.2923 23.0654 80.9516 21.244 79.1406C19.4226 77.3296 17.0751 76.1411 14.5373 75.7451V34.6204C17.0781 34.2251 19.4284 33.0349 21.2506 31.2207C23.0728 29.4065 24.2734 27.0615 24.6798 24.5225H95.1183C95.5219 27.0931 96.7421 29.4657 98.5984 31.2892C100.455 33.1128 102.849 34.2906 105.426 34.6485V75.7168C102.851 76.0748 100.46 77.2509 98.6048 79.0715C96.7496 80.8921 95.5287 83.2608 95.1222 85.8282H93.838C93.4581 85.8282 93.0937 85.9791 92.825 86.2478C92.5564 86.5164 92.4054 86.8808 92.4054 87.2608C92.4054 87.6407 92.5564 88.0051 92.825 88.2738C93.0937 88.5424 93.4581 88.6934 93.838 88.6934Z" fill="#005EB8"/>
<path d="M86.673 90.2442C87.1669 90.1022 87.6184 89.8409 87.9875 89.4834C88.4513 88.9598 88.7803 88.331 88.9459 87.6514C89.1114 86.9719 89.1086 86.2622 88.9375 85.584C88.843 85.119 88.8433 84.6397 88.9384 84.1748C89.2187 83.7918 89.573 83.469 89.9804 83.2256C90.5966 82.8953 91.1226 82.4195 91.5127 81.8394C91.9029 81.2593 92.1452 80.5927 92.2187 79.8975C92.2597 78.1768 91.0332 77.1914 90.1318 76.4658C89.7371 76.205 89.3989 75.8672 89.1377 75.4727C89.0656 75.0036 89.0878 74.5249 89.2031 74.0645C89.4055 73.3951 89.4412 72.6864 89.307 72.0001C89.1727 71.3138 88.8728 70.6708 88.4331 70.127C88.0868 69.775 87.6698 69.5004 87.2095 69.3215C86.7493 69.1425 86.2563 69.0632 85.7631 69.0889C85.3523 69.096 84.9422 69.1254 84.5346 69.1768C84.0685 69.2542 83.5927 69.2545 83.1264 69.1778C82.7429 68.8975 82.4198 68.5427 82.1764 68.1348C81.8933 67.4825 81.4293 66.925 80.8392 66.5281C80.2492 66.1313 79.5578 65.9118 78.8469 65.8956C78.136 65.8793 77.4353 66.0671 76.8278 66.4366C76.2202 66.806 75.7312 67.3418 75.4186 67.9805C75.1577 68.3758 74.8196 68.7143 74.4245 68.9756C73.9457 69.0366 73.4598 69.0135 72.9889 68.9073C72.5098 68.8205 72.0246 68.7715 71.5377 68.7608C71.087 68.7426 70.6372 68.8147 70.2148 68.9729C69.7923 69.131 69.4057 69.372 69.0777 69.6817C68.6139 70.2052 68.2849 70.834 68.1191 71.5136C67.9534 72.1931 67.9559 72.9028 68.1265 73.5811C68.2204 74.0458 68.2204 74.5246 68.1265 74.9893C67.8468 75.3718 67.4932 75.6942 67.0865 75.9375C66.4698 76.2675 65.9431 76.7434 65.5525 77.3237C65.1619 77.904 64.9191 78.571 64.8453 79.2666C64.8062 80.9883 66.0328 81.9737 66.9331 82.6983C67.3279 82.9591 67.666 83.2969 67.9273 83.6914C67.9995 84.1602 67.9772 84.6386 67.8619 85.0987C67.6595 85.7682 67.6238 86.477 67.758 87.1635C67.8922 87.8499 68.1922 88.4931 68.6319 89.0371C69.1194 89.5471 69.7592 89.8853 70.4551 90.001C69.4044 92.1755 68.1907 94.2674 66.8243 96.2588C66.5903 96.5275 66.4386 96.8579 66.3874 97.2105C66.3362 97.5631 66.3876 97.923 66.5355 98.2471C66.6835 98.5713 66.9216 98.846 67.2215 99.0384C67.5214 99.2308 67.8703 99.3327 68.2266 99.3321L70.8799 99.3067L71.7725 101.865C71.8807 102.173 72.0679 102.447 72.3154 102.66C72.5629 102.872 72.8619 103.016 73.1825 103.076C73.503 103.133 73.8326 103.105 74.1394 102.997C74.4462 102.889 74.7198 102.703 74.9334 102.457C76.3526 100.743 77.5855 98.8836 78.6112 96.9092C78.7412 97.1748 78.8602 97.4258 78.9774 97.6739C79.8996 99.4546 81.0098 101.131 82.2889 102.676C82.4662 102.88 82.6851 103.043 82.9309 103.155C83.1767 103.267 83.4436 103.325 83.7137 103.325C83.8228 103.326 83.9317 103.316 84.0389 103.296C84.3599 103.236 84.6593 103.092 84.9071 102.879C85.1548 102.666 85.3421 102.392 85.4501 102.084L86.3417 99.5264L88.9862 99.5518C89.3318 99.5497 89.6702 99.4528 89.9646 99.2716C90.2589 99.0905 90.4979 98.832 90.6554 98.5244C90.8093 98.2147 90.8737 97.8681 90.8415 97.5238C90.8092 97.1795 90.6816 96.8509 90.4728 96.5752C90.2775 96.3076 88.2091 93.1035 86.673 90.2442ZM70.7218 73.2949C70.6218 72.3849 70.5802 71.8555 70.881 71.5684C70.9706 71.4913 71.0754 71.4339 71.1887 71.3999C71.3019 71.3659 71.421 71.3561 71.5382 71.3711C71.8987 71.3848 72.2578 71.4246 72.6125 71.4903C73.5231 71.6906 74.469 71.6631 75.3664 71.4103C76.2096 71.006 76.9307 70.3857 77.4564 69.6124C78.0072 68.9259 78.3675 68.505 78.7884 68.505C79.2035 68.515 79.5297 68.9337 80.0697 69.675C80.5579 70.4715 81.2492 71.1238 82.0726 71.565C82.9575 71.8613 83.9023 71.9325 84.8216 71.772C85.1342 71.7307 85.4488 71.7065 85.764 71.6997C86.2328 71.6997 86.4105 71.7876 86.5463 71.9297C86.8324 72.2297 86.767 72.7559 86.6244 73.6651C86.3353 74.5647 86.364 75.5363 86.7059 76.4173C87.0478 77.2982 87.682 78.0349 88.5023 78.5039C89.2162 79.0772 89.6195 79.4219 89.6097 79.8379C89.5997 80.252 89.182 80.5772 88.4388 81.1192C87.5978 81.5505 86.9305 82.2579 86.549 83.1227C86.1674 83.9875 86.0947 84.9572 86.3431 85.8692C86.4431 86.7792 86.4847 87.3086 86.1839 87.5967C86.0995 87.6701 86.0006 87.7249 85.8936 87.7575C85.7866 87.7902 85.6739 87.7999 85.5629 87.7862C85.2054 87.7721 84.8495 87.7303 84.4984 87.6612C83.5564 87.437 82.5709 87.4766 81.6498 87.7754C80.8471 88.1927 80.1564 88.7969 79.6361 89.5371C79.3397 89.9973 78.9319 90.3752 78.4504 90.6358C77.9804 90.7744 77.7218 90.4758 77.007 89.4912C76.5183 88.667 75.8008 88.0024 74.9416 87.5782C74.4726 87.4041 73.975 87.3202 73.4748 87.3311C73.089 87.3311 72.6964 87.3692 72.2902 87.4102C71.9621 87.4424 71.6535 87.4737 71.3602 87.4737C70.7948 87.4737 70.6302 87.3506 70.5194 87.2337C70.2323 86.9329 70.2987 86.4066 70.4413 85.4964C70.7301 84.5972 70.7011 83.6261 70.3592 82.7457C70.0173 81.8653 69.3833 81.1291 68.5633 80.6605C67.8495 80.0872 67.4461 79.7425 67.4559 79.3275C67.4659 78.9105 67.8846 78.5853 68.6288 78.0433C69.4693 77.6119 70.1359 76.9047 70.5169 76.0402C70.8979 75.1757 70.9704 74.2063 70.7218 73.2949ZM73.3404 89.9434C73.56 89.918 73.7825 89.9403 73.9927 90.0088C74.3581 90.2939 74.6679 90.6438 74.9068 91.041C75.3581 91.7508 75.9475 92.3627 76.6398 92.8404C76.7677 93.1265 76.9484 93.5269 77.1828 94.024L77.0666 94.2613C76.1539 96.1863 75.0549 98.0182 73.7853 99.729L73.0314 97.5674C72.9409 97.3107 72.7726 97.0887 72.55 96.9322C72.3273 96.7757 72.0614 96.6926 71.7892 96.6944L69.6662 96.7139C71.0859 94.5684 72.3153 92.3029 73.3404 89.9434ZM81.6617 91.1817C81.9366 90.7803 82.2863 90.4358 82.6917 90.167C83.0276 90.0907 83.3767 90.0953 83.7104 90.1804C84.8769 92.5005 86.1699 94.7549 87.5835 96.9333L85.4214 96.9138C85.1511 96.9133 84.8873 96.9972 84.6669 97.1537C84.4464 97.3101 84.2802 97.5314 84.1914 97.7868L83.4414 99.9368C82.1021 98.1017 80.955 96.1336 80.0185 94.0637L79.9785 93.967C79.8427 93.6379 79.7109 93.3196 79.5712 93.0012C80.4082 92.5776 81.1269 91.9523 81.6617 91.1817Z" fill="#005EB8"/>
<path d="M78.5324 87.5127C80.0838 87.5129 81.6005 87.053 82.8905 86.1912C84.1805 85.3295 85.186 84.1045 85.7799 82.6712C86.3737 81.238 86.5292 79.6608 86.2266 78.1392C85.9241 76.6176 85.1771 75.2199 84.0801 74.1228C82.9832 73.0257 81.5856 72.2786 80.064 71.9759C78.5424 71.6731 76.9652 71.8284 75.5319 72.4221C74.0986 73.0158 72.8735 74.0211 72.0116 75.3111C71.1496 76.601 70.6896 78.1176 70.6896 79.669C70.6919 81.7484 71.5189 83.742 72.9892 85.2125C74.4595 86.6829 76.453 87.5101 78.5324 87.5127ZM73.2433 79.669C73.2431 78.6226 73.5532 77.5997 74.1344 76.7297C74.7156 75.8596 75.5418 75.1814 76.5084 74.7809C77.4751 74.3803 78.5388 74.2755 79.5651 74.4796C80.5913 74.6836 81.534 75.1875 82.2739 75.9274C83.0138 76.6672 83.5176 77.6099 83.7217 78.6361C83.9258 79.6624 83.821 80.7261 83.4205 81.6928C83.02 82.6594 82.3418 83.4856 81.4717 84.0668C80.6017 84.648 79.5788 84.9582 78.5324 84.958C77.1302 84.9562 75.786 84.3984 74.7945 83.4069C73.803 82.4154 73.2451 81.0712 73.2433 79.669Z" fill="#005EB8"/>
<path d="M107.222 16.6758H12.7404C11.1364 16.6775 9.59858 17.3155 8.46436 18.4497C7.33015 19.5839 6.69218 21.1218 6.69043 22.7258V87.6241C6.69218 89.2281 7.33015 90.7659 8.46436 91.9001C9.59858 93.0344 11.1364 93.6723 12.7404 93.6741H66.3146C66.6927 93.6709 67.0541 93.5185 67.3203 93.2501C67.5865 92.9817 67.7359 92.619 67.7359 92.2409C67.7359 91.8629 67.5865 91.5002 67.3203 91.2318C67.0541 90.9633 66.6927 90.8109 66.3146 90.8078H12.7404C11.8963 90.807 11.0871 90.4713 10.4902 89.8745C9.89333 89.2776 9.55765 88.4684 9.55683 87.6243V22.7256C9.55765 21.8815 9.89333 21.0722 10.4902 20.4753C11.0871 19.8785 11.8963 19.5428 12.7404 19.542H107.222C108.066 19.5427 108.875 19.8784 109.472 20.4752C110.07 21.0721 110.405 21.8814 110.406 22.7256V87.6241C110.405 88.4683 110.069 89.2775 109.472 89.8744C108.875 90.4712 108.066 90.8068 107.222 90.8076H91.1404C90.7624 90.8107 90.4009 90.9631 90.1348 91.2315C89.8686 91.5 89.7192 91.8627 89.7192 92.2407C89.7192 92.6188 89.8686 92.9815 90.1348 93.2499C90.4009 93.5183 90.7624 93.6707 91.1404 93.6739H107.221C108.826 93.6721 110.363 93.0342 111.498 91.9C112.632 90.7658 113.27 89.228 113.272 87.6239V22.7256C113.27 21.1216 112.632 19.5839 111.498 18.4497C110.364 17.3156 108.826 16.6776 107.222 16.6758Z" fill="#005EB8"/>
<path d="M34.1404 69.876C33.7603 69.876 33.3958 70.027 33.1271 70.2957C32.8583 70.5645 32.7073 70.929 32.7073 71.3091C32.7073 71.6892 32.8583 72.0537 33.1271 72.3224C33.3958 72.5912 33.7603 72.7422 34.1404 72.7422H44.3244C44.7045 72.7422 45.069 72.5912 45.3378 72.3224C45.6065 72.0537 45.7575 71.6892 45.7575 71.3091C45.7575 70.929 45.6065 70.5645 45.3378 70.2957C45.069 70.027 44.7045 69.876 44.3244 69.876H34.1404Z" fill="#005EB8"/>
<path d="M57.3312 61.9785H21.133C20.7551 61.9816 20.3938 62.134 20.1277 62.4023C19.8616 62.6706 19.7123 63.0332 19.7123 63.4111C19.7123 63.789 19.8616 64.1516 20.1277 64.42C20.3938 64.6883 20.7551 64.8406 21.133 64.8438H57.3312C57.7091 64.8406 58.0705 64.6883 58.3366 64.42C58.6026 64.1516 58.752 63.789 58.752 63.4111C58.752 63.0332 58.6026 62.6706 58.3366 62.4023C58.0705 62.134 57.7091 61.9816 57.3312 61.9785Z" fill="#005EB8"/>
<path d="M100.995 52.7715C100.995 52.3916 100.843 52.0274 100.575 51.7588C100.306 51.4903 99.9417 51.3393 99.5617 51.3389H21.133C20.7531 51.3389 20.3887 51.4898 20.12 51.7585C19.8514 52.0271 19.7004 52.3915 19.7004 52.7715C19.7004 53.1514 19.8514 53.5158 20.12 53.7845C20.3887 54.0531 20.7531 54.2041 21.133 54.2041H99.5617C99.9417 54.2037 100.306 54.0527 100.575 53.7842C100.843 53.5156 100.995 53.1514 100.995 52.7715Z" fill="#005EB8"/>
<path d="M21.133 69.876C20.7529 69.876 20.3884 70.027 20.1197 70.2957C19.8509 70.5645 19.6999 70.929 19.6999 71.3091C19.6999 71.6892 19.8509 72.0537 20.1197 72.3224C20.3884 72.5912 20.7529 72.7422 21.133 72.7422H28.4289C28.809 72.7422 29.1735 72.5912 29.4423 72.3224C29.711 72.0537 29.862 71.6892 29.862 71.3091C29.862 70.929 29.711 70.5645 29.4423 70.2957C29.1735 70.027 28.809 69.876 28.4289 69.876H21.133Z" fill="#005EB8"/>
<path d="M30.091 41.3704H89.8722C90.2522 41.3704 90.6166 41.2194 90.8852 40.9508C91.1539 40.6821 91.3048 40.3177 91.3048 39.9378C91.3048 39.5578 91.1539 39.1934 90.8852 38.9248C90.6166 38.6561 90.2522 38.5052 89.8722 38.5052H30.091C29.7111 38.5052 29.3467 38.6561 29.078 38.9248C28.8094 39.1934 28.6584 39.5578 28.6584 39.9378C28.6584 40.3177 28.8094 40.6821 29.078 40.9508C29.3467 41.2194 29.7111 41.3704 30.091 41.3704Z" fill="#005EB8"/>
<path d="M57.3312 69.876H49.3771C48.9971 69.876 48.6325 70.027 48.3638 70.2957C48.095 70.5645 47.944 70.929 47.944 71.3091C47.944 71.6892 48.095 72.0537 48.3638 72.3224C48.6325 72.5912 48.9971 72.7422 49.3771 72.7422H57.3312C57.7113 72.7422 58.0758 72.5912 58.3446 72.3224C58.6133 72.0537 58.7643 71.6892 58.7643 71.3091C58.7643 70.929 58.6133 70.5645 58.3446 70.2957C58.0758 70.027 57.7113 69.876 57.3312 69.876Z" fill="#005EB8"/>
</svg>
