<svg width="120" height="120" viewBox="0 0 120 120" fill="none" xmlns="http://www.w3.org/2000/svg">
<path d="M115.993 76.1448C115.099 73.9883 113.388 72.2732 111.233 71.3741C109.079 70.4749 106.656 70.4648 104.495 71.346L80.8146 80.3821C81.2355 79.0582 81.338 77.6537 81.114 76.2827C80.89 74.9117 80.3456 73.6129 79.5252 72.4918C78.7048 71.3708 77.6315 70.4591 76.3925 69.8309C75.1535 69.2026 73.7838 68.8756 72.3946 68.8763H44.3432C41.5247 68.8773 38.7569 69.6253 36.3217 71.0442L18.3764 81.513C18.2662 81.5782 18.1635 81.6553 18.0702 81.743L17.1918 80.3377C16.961 79.9688 16.601 79.6991 16.1822 79.5812C15.7633 79.4633 15.3155 79.5057 14.9262 79.7L4.30709 85.0013C4.096 85.1005 3.90689 85.241 3.75087 85.4144C3.59485 85.5878 3.47507 85.7906 3.39856 86.011C3.32206 86.2313 3.29038 86.4647 3.30538 86.6975C3.32039 86.9303 3.38177 87.1577 3.48593 87.3664C3.59009 87.5751 3.73492 87.7609 3.91191 87.9128C4.0889 88.0647 4.29448 88.1798 4.51656 88.2511C4.73863 88.3224 4.97273 88.3486 5.20509 88.3282C5.43744 88.3078 5.66337 88.2411 5.86959 88.1321L15.0668 83.5413L30.9155 108.9L22.019 113.341C21.8082 113.44 21.6193 113.581 21.4636 113.754C21.3078 113.928 21.1882 114.131 21.1119 114.351C21.0356 114.571 21.004 114.804 21.0191 115.037C21.0341 115.27 21.0955 115.497 21.1996 115.705C21.3037 115.914 21.4484 116.1 21.6252 116.251C21.802 116.403 22.0074 116.518 22.2293 116.59C22.4511 116.661 22.685 116.688 22.9173 116.667C23.1495 116.647 23.3753 116.581 23.5815 116.472L34.2015 111.17C34.4198 111.061 34.6129 110.908 34.7684 110.72C34.924 110.532 35.0385 110.314 35.1047 110.079C35.1709 109.844 35.1873 109.598 35.1528 109.357C35.1184 109.115 35.0338 108.884 34.9046 108.677L34.0429 107.298L39.9529 103.751C41.3312 102.924 42.9082 102.487 44.5154 102.487H72.3324C74.9411 102.49 77.5234 101.965 79.9242 100.945L111.211 87.6897C113.373 86.7883 115.089 85.0677 115.985 82.9042C116.881 80.7406 116.884 78.3103 115.993 76.1448ZM109.859 84.4612L78.5588 97.722C76.5896 98.5585 74.4717 98.9886 72.3322 98.9866H44.5151C42.2733 98.9864 40.0736 99.5961 38.1518 100.75L32.1882 104.331L19.8882 84.6516C19.975 84.62 20.0592 84.5815 20.1399 84.5364L38.0854 74.0677C39.9851 72.9606 42.1444 72.3769 44.3432 72.3763H72.3949C73.0974 72.3732 73.7935 72.509 74.4434 72.7757C75.0933 73.0424 75.6841 73.4349 76.1819 73.9305C76.6797 74.4262 77.0747 75.0153 77.3442 75.664C77.6137 76.3127 77.7525 77.0083 77.7525 77.7107C77.7525 78.4132 77.6137 79.1088 77.3442 79.7575C77.0747 80.4062 76.6797 80.9953 76.1819 81.491C75.6841 81.9866 75.0933 82.379 74.4434 82.6458C73.7935 82.9125 73.0974 83.0482 72.3949 83.0452H51.1403C50.6762 83.0452 50.231 83.2296 49.9029 83.5577C49.5747 83.8859 49.3903 84.3311 49.3903 84.7952C49.3903 85.2593 49.5747 85.7044 49.9029 86.0326C50.231 86.3608 50.6762 86.5452 51.1403 86.5452H72.3949C72.8046 86.5419 73.2137 86.5102 73.6191 86.4505C73.9978 86.5773 74.4085 86.5703 74.7826 86.4305L105.788 74.5984C106.437 74.3265 107.133 74.1856 107.836 74.1835C108.539 74.1815 109.236 74.3185 109.886 74.5867C110.536 74.8548 111.126 75.2487 111.623 75.7459C112.121 76.2431 112.515 76.8336 112.783 77.4836C113.051 78.1336 113.188 78.8301 113.186 79.5333C113.184 80.2364 113.043 80.9322 112.772 81.5807C112.5 82.2292 112.103 82.8176 111.603 83.312C111.103 83.8064 110.51 84.1966 109.859 84.4612Z" fill="#005EB8"/>
<path d="M55.6103 42.9163C56.8613 42.9163 58.1569 42.8538 59.497 42.7288C59.7288 42.7114 59.9547 42.6479 60.1617 42.5422C60.3687 42.4365 60.5526 42.2906 60.7026 42.1131C60.8526 41.9355 60.9657 41.7299 61.0354 41.5081C61.105 41.2864 61.1298 41.053 61.1083 40.8216C61.0867 40.5902 61.0193 40.3653 60.9099 40.1603C60.8006 39.9552 60.6514 39.7739 60.4713 39.6271C60.2911 39.4803 60.0835 39.3708 59.8605 39.3051C59.6376 39.2394 59.4038 39.2188 59.1728 39.2444C51.0576 40.0013 44.8671 38.2513 40.7743 34.0491C37.2822 30.4641 33.5204 23.1575 34.8261 8.55688C37.6142 10.2747 41.3642 11.2581 45.2695 12.2835C55.1987 14.8894 66.3513 17.8269 67.1118 33.1473C66.6257 32.6565 66.1271 32.1697 65.6025 31.6927C62.5497 28.9088 59.1174 26.5722 55.4081 24.7527C54.9856 24.5604 54.5041 24.5438 54.0695 24.7065C53.6348 24.8693 53.2826 25.198 53.0903 25.6205C52.898 26.0429 52.8814 26.5244 53.0442 26.9591C53.2069 27.3938 53.5357 27.746 53.9581 27.9383C54.1373 28.0198 71.391 36.0857 72.3695 51.5438C68.096 52.4167 64.2985 54.8444 61.7123 58.3567C61.1399 58.294 60.5645 58.262 59.9887 58.261C56.4851 58.2569 53.0604 59.3007 50.1547 61.2581C49.9625 61.3857 49.7974 61.55 49.6689 61.7416C49.5405 61.9332 49.4512 62.1484 49.4062 62.3746C49.3611 62.6009 49.3613 62.8338 49.4066 63.06C49.452 63.2862 49.5416 63.5012 49.6703 63.6927C49.7991 63.8841 49.9644 64.0482 50.1568 64.1755C50.3492 64.3028 50.5648 64.3908 50.7914 64.4345C51.0179 64.4781 51.2508 64.4766 51.4767 64.4299C51.7027 64.3832 51.9171 64.2923 52.1078 64.1624C55.0799 62.1417 58.72 61.3527 62.2621 61.9612C62.5978 62.017 62.9425 61.9729 63.2535 61.8346C63.5644 61.6962 63.8279 61.4696 64.0112 61.1829C65.2864 59.2005 67.0358 57.5674 69.1011 56.4313C71.1664 55.2953 73.4823 54.6921 75.8394 54.6764C78.1965 54.6607 80.5203 55.2329 82.6005 56.3414C84.6807 57.4498 86.4517 59.0595 87.7533 61.0247C87.9213 61.2795 88.1534 61.4856 88.4263 61.6222C88.6992 61.7588 89.0033 61.8212 89.308 61.803L89.588 61.7854C89.7569 61.7737 89.9269 61.761 90.0997 61.761C92.0941 61.7631 94.0657 62.1852 95.886 63C97.7064 63.8147 99.3348 65.0036 100.665 66.4895C100.817 66.6657 101.002 66.8099 101.211 66.9136C101.419 67.0173 101.646 67.0785 101.878 67.0935C102.11 67.1086 102.343 67.0772 102.562 67.0012C102.782 66.9253 102.985 66.8062 103.158 66.6511C103.331 66.496 103.472 66.3079 103.572 66.0977C103.672 65.8876 103.728 65.6597 103.739 65.4274C103.75 65.195 103.714 64.9629 103.634 64.7445C103.554 64.5261 103.431 64.3259 103.273 64.1556C101.614 62.3031 99.584 60.8207 97.3144 59.8051C95.0448 58.7894 92.5867 58.2633 90.1003 58.261H90.0847C88.4394 56.0601 86.3031 54.2736 83.8458 53.0437C81.3886 51.8137 78.6782 51.1742 75.9303 51.1761C75.9034 51.1761 75.8768 51.1785 75.8503 51.1785C75.4512 46.1184 73.6228 41.2758 70.5781 37.2146C70.5854 37.1639 70.5988 37.1146 70.6015 37.0628C71.7177 15.6067 56.9452 11.7298 46.1581 8.89768C41.3144 7.62628 36.7381 6.42508 34.7949 3.99768C34.5711 3.72322 34.2686 3.52386 33.9281 3.42638C33.5876 3.3289 33.2255 3.33797 32.8903 3.45238C32.5506 3.56724 32.2534 3.78173 32.0374 4.06793C31.8214 4.35412 31.6966 4.69874 31.6793 5.05688C31.6725 5.19268 31.6373 5.46018 31.5924 5.83908C29.9078 19.9016 32.1539 30.2151 38.2662 36.4915C42.4262 40.762 48.2475 42.9163 55.6103 42.9163Z" fill="#005EB8"/>
<path d="M80.8852 42.2259C82.8952 42.6708 84.9466 42.9021 87.0052 42.9159C91.2912 43.0263 95.4811 41.636 98.8509 38.9852C107.821 31.7997 108.051 17.4657 108.057 16.8593C108.059 16.625 108.014 16.3927 107.925 16.1761C107.835 15.9595 107.703 15.7631 107.536 15.5985C107.197 15.2704 106.742 15.089 106.27 15.0936C105.593 15.1083 89.6126 15.5526 82.3509 24.8827C79.0228 29.1591 78.0794 34.5507 79.5462 40.9081C79.6208 41.2324 79.7864 41.5287 80.0236 41.7621C80.2608 41.9956 80.5597 42.1565 80.8852 42.2259ZM85.1069 27.0403C89.9946 20.7513 100.194 19.1331 104.434 18.7268C104.06 22.6204 102.569 31.5325 96.6528 36.263C93.1078 39.097 88.4291 40.0198 82.728 39.0208C81.8503 34.2298 82.6488 30.2034 85.1069 27.0403Z" fill="#005EB8"/>
</svg>
