<svg width="120" height="120" viewBox="0 0 120 120" fill="none" xmlns="http://www.w3.org/2000/svg">
<path d="M64.5994 99.868H33.9327C33.5261 99.868 33.1361 99.7064 32.8485 99.4189C32.5609 99.1313 32.3994 98.7413 32.3994 98.3347V46.2013C32.3994 45.7947 32.5609 45.4046 32.8485 45.1171C33.1361 44.8295 33.5261 44.668 33.9327 44.668H64.5994C65.0061 44.668 65.3961 44.8295 65.6836 45.1171C65.9712 45.4046 66.1327 45.7947 66.1327 46.2013V98.3347C66.1327 98.7413 65.9712 99.1313 65.6836 99.4189C65.3961 99.7064 65.0061 99.868 64.5994 99.868ZM35.4661 96.8013H63.0661V47.7347H35.4661V96.8013Z" fill="#005EB8"/>
<path d="M64.6007 47.7352H33.934C32.714 47.7352 31.544 47.2505 30.6813 46.3879C29.8186 45.5252 29.334 44.3552 29.334 43.1352C29.334 41.9152 29.8186 40.7452 30.6813 39.8825C31.544 39.0198 32.714 38.5352 33.934 38.5352H64.6007C65.8207 38.5352 66.9907 39.0198 67.8534 39.8825C68.716 40.7452 69.2007 41.9152 69.2007 43.1352C69.2007 44.3552 68.716 45.5252 67.8534 46.3879C66.9907 47.2505 65.8207 47.7352 64.6007 47.7352ZM33.934 41.6018C33.5273 41.6018 33.1373 41.7634 32.8498 42.0509C32.5622 42.3385 32.4007 42.7285 32.4007 43.1352C32.4007 43.5418 32.5622 43.9319 32.8498 44.2194C33.1373 44.507 33.5273 44.6685 33.934 44.6685H64.6007C65.0073 44.6685 65.3973 44.507 65.6849 44.2194C65.9725 43.9319 66.134 43.5418 66.134 43.1352C66.134 42.7285 65.9725 42.3385 65.6849 42.0509C65.3973 41.7634 65.0073 41.6018 64.6007 41.6018H33.934Z" fill="#005EB8"/>
<path d="M55.4006 99.8668H43.1339C42.7273 99.8668 42.3373 99.7052 42.0497 99.4177C41.7621 99.1301 41.6006 98.7401 41.6006 98.3335V83.0001C41.6006 82.5935 41.7621 82.2035 42.0497 81.9159C42.3373 81.6283 42.7273 81.4668 43.1339 81.4668H55.4006C55.8073 81.4668 56.1973 81.6283 56.4848 81.9159C56.7724 82.2035 56.9339 82.5935 56.9339 83.0001V98.3335C56.9339 98.7401 56.7724 99.1301 56.4848 99.4177C56.1973 99.7052 55.8073 99.8668 55.4006 99.8668ZM44.6673 96.8001H53.8673V84.5335H44.6673V96.8001Z" fill="#005EB8"/>
<path d="M43.1332 53.8674H40.0665C39.6599 53.8674 39.2699 53.7059 38.9823 53.4183C38.6947 53.1308 38.5332 52.7408 38.5332 52.3341C38.5332 51.9274 38.6947 51.5374 38.9823 51.2499C39.2699 50.9623 39.6599 50.8008 40.0665 50.8008H43.1332C43.5399 50.8008 43.9299 50.9623 44.2174 51.2499C44.505 51.5374 44.6665 51.9274 44.6665 52.3341C44.6665 52.7408 44.505 53.1308 44.2174 53.4183C43.9299 53.7059 43.5399 53.8674 43.1332 53.8674Z" fill="#005EB8"/>
<path d="M50.8002 53.8674H47.7335C47.3269 53.8674 46.9369 53.7059 46.6493 53.4183C46.3617 53.1308 46.2002 52.7408 46.2002 52.3341C46.2002 51.9274 46.3617 51.5374 46.6493 51.2499C46.9369 50.9623 47.3269 50.8008 47.7335 50.8008H50.8002C51.2069 50.8008 51.5969 50.9623 51.8844 51.2499C52.172 51.5374 52.3335 51.9274 52.3335 52.3341C52.3335 52.7408 52.172 53.1308 51.8844 53.4183C51.5969 53.7059 51.2069 53.8674 50.8002 53.8674Z" fill="#005EB8"/>
<path d="M58.4672 53.8674H55.4005C54.9939 53.8674 54.6039 53.7059 54.3163 53.4183C54.0287 53.1308 53.8672 52.7408 53.8672 52.3341C53.8672 51.9274 54.0287 51.5374 54.3163 51.2499C54.6039 50.9623 54.9939 50.8008 55.4005 50.8008H58.4672C58.8739 50.8008 59.2639 50.9623 59.5514 51.2499C59.839 51.5374 60.0005 51.9274 60.0005 52.3341C60.0005 52.7408 59.839 53.1308 59.5514 53.4183C59.2639 53.7059 58.8739 53.8674 58.4672 53.8674Z" fill="#005EB8"/>
<path d="M43.1332 60.0003H40.0665C39.6599 60.0003 39.2699 59.8387 38.9823 59.5512C38.6947 59.2636 38.5332 58.8736 38.5332 58.4669C38.5332 58.0603 38.6947 57.6703 38.9823 57.3827C39.2699 57.0951 39.6599 56.9336 40.0665 56.9336H43.1332C43.5399 56.9336 43.9299 57.0951 44.2174 57.3827C44.505 57.6703 44.6665 58.0603 44.6665 58.4669C44.6665 58.8736 44.505 59.2636 44.2174 59.5512C43.9299 59.8387 43.5399 60.0003 43.1332 60.0003Z" fill="#005EB8"/>
<path d="M50.8002 60.0003H47.7335C47.3269 60.0003 46.9369 59.8387 46.6493 59.5512C46.3617 59.2636 46.2002 58.8736 46.2002 58.4669C46.2002 58.0603 46.3617 57.6703 46.6493 57.3827C46.9369 57.0951 47.3269 56.9336 47.7335 56.9336H50.8002C51.2069 56.9336 51.5969 57.0951 51.8844 57.3827C52.172 57.6703 52.3335 58.0603 52.3335 58.4669C52.3335 58.8736 52.172 59.2636 51.8844 59.5512C51.5969 59.8387 51.2069 60.0003 50.8002 60.0003Z" fill="#005EB8"/>
<path d="M58.4672 60.0003H55.4005C54.9939 60.0003 54.6039 59.8387 54.3163 59.5512C54.0287 59.2636 53.8672 58.8736 53.8672 58.4669C53.8672 58.0603 54.0287 57.6703 54.3163 57.3827C54.6039 57.0951 54.9939 56.9336 55.4005 56.9336H58.4672C58.8739 56.9336 59.2639 57.0951 59.5514 57.3827C59.839 57.6703 60.0005 58.0603 60.0005 58.4669C60.0005 58.8736 59.839 59.2636 59.5514 59.5512C59.2639 59.8387 58.8739 60.0003 58.4672 60.0003Z" fill="#005EB8"/>
<path d="M43.1332 66.135H40.0665C39.6599 66.135 39.2699 65.9735 38.9823 65.6859C38.6947 65.3984 38.5332 65.0084 38.5332 64.6017C38.5332 64.1951 38.6947 63.805 38.9823 63.5175C39.2699 63.2299 39.6599 63.0684 40.0665 63.0684H43.1332C43.5399 63.0684 43.9299 63.2299 44.2174 63.5175C44.505 63.805 44.6665 64.1951 44.6665 64.6017C44.6665 65.0084 44.505 65.3984 44.2174 65.6859C43.9299 65.9735 43.5399 66.135 43.1332 66.135Z" fill="#005EB8"/>
<path d="M50.8002 66.135H47.7335C47.3269 66.135 46.9369 65.9735 46.6493 65.6859C46.3617 65.3984 46.2002 65.0084 46.2002 64.6017C46.2002 64.1951 46.3617 63.805 46.6493 63.5175C46.9369 63.2299 47.3269 63.0684 47.7335 63.0684H50.8002C51.2069 63.0684 51.5969 63.2299 51.8844 63.5175C52.172 63.805 52.3335 64.1951 52.3335 64.6017C52.3335 65.0084 52.172 65.3984 51.8844 65.6859C51.5969 65.9735 51.2069 66.135 50.8002 66.135Z" fill="#005EB8"/>
<path d="M58.4672 66.135H55.4005C54.9939 66.135 54.6039 65.9735 54.3163 65.6859C54.0287 65.3984 53.8672 65.0084 53.8672 64.6017C53.8672 64.1951 54.0287 63.805 54.3163 63.5175C54.6039 63.2299 54.9939 63.0684 55.4005 63.0684H58.4672C58.8739 63.0684 59.2639 63.2299 59.5514 63.5175C59.839 63.805 60.0005 64.1951 60.0005 64.6017C60.0005 65.0084 59.839 65.3984 59.5514 65.6859C59.2639 65.9735 58.8739 66.135 58.4672 66.135Z" fill="#005EB8"/>
<path d="M43.1332 72.2679H40.0665C39.6599 72.2679 39.2699 72.1063 38.9823 71.8188C38.6947 71.5312 38.5332 71.1412 38.5332 70.7345C38.5332 70.3279 38.6947 69.9379 38.9823 69.6503C39.2699 69.3627 39.6599 69.2012 40.0665 69.2012H43.1332C43.5399 69.2012 43.9299 69.3627 44.2174 69.6503C44.505 69.9379 44.6665 70.3279 44.6665 70.7345C44.6665 71.1412 44.505 71.5312 44.2174 71.8188C43.9299 72.1063 43.5399 72.2679 43.1332 72.2679Z" fill="#005EB8"/>
<path d="M50.8002 72.2679H47.7335C47.3269 72.2679 46.9369 72.1063 46.6493 71.8188C46.3617 71.5312 46.2002 71.1412 46.2002 70.7345C46.2002 70.3279 46.3617 69.9379 46.6493 69.6503C46.9369 69.3627 47.3269 69.2012 47.7335 69.2012H50.8002C51.2069 69.2012 51.5969 69.3627 51.8844 69.6503C52.172 69.9379 52.3335 70.3279 52.3335 70.7345C52.3335 71.1412 52.172 71.5312 51.8844 71.8188C51.5969 72.1063 51.2069 72.2679 50.8002 72.2679Z" fill="#005EB8"/>
<path d="M58.4672 72.2679H55.4005C54.9939 72.2679 54.6039 72.1063 54.3163 71.8188C54.0287 71.5312 53.8672 71.1412 53.8672 70.7345C53.8672 70.3279 54.0287 69.9379 54.3163 69.6503C54.6039 69.3627 54.9939 69.2012 55.4005 69.2012H58.4672C58.8739 69.2012 59.2639 69.3627 59.5514 69.6503C59.839 69.9379 60.0005 70.3279 60.0005 70.7345C60.0005 71.1412 59.839 71.5312 59.5514 71.8188C59.2639 72.1063 58.8739 72.2679 58.4672 72.2679Z" fill="#005EB8"/>
<path d="M43.1332 78.4007H40.0665C39.6599 78.4007 39.2699 78.2391 38.9823 77.9515C38.6947 77.664 38.5332 77.274 38.5332 76.8673C38.5332 76.4607 38.6947 76.0706 38.9823 75.7831C39.2699 75.4955 39.6599 75.334 40.0665 75.334H43.1332C43.5399 75.334 43.9299 75.4955 44.2174 75.7831C44.505 76.0706 44.6665 76.4607 44.6665 76.8673C44.6665 77.274 44.505 77.664 44.2174 77.9515C43.9299 78.2391 43.5399 78.4007 43.1332 78.4007Z" fill="#005EB8"/>
<path d="M50.8002 78.4007H47.7335C47.3269 78.4007 46.9369 78.2391 46.6493 77.9515C46.3617 77.664 46.2002 77.274 46.2002 76.8673C46.2002 76.4607 46.3617 76.0706 46.6493 75.7831C46.9369 75.4955 47.3269 75.334 47.7335 75.334H50.8002C51.2069 75.334 51.5969 75.4955 51.8844 75.7831C52.172 76.0706 52.3335 76.4607 52.3335 76.8673C52.3335 77.274 52.172 77.664 51.8844 77.9515C51.5969 78.2391 51.2069 78.4007 50.8002 78.4007Z" fill="#005EB8"/>
<path d="M58.4672 78.4007H55.4005C54.9939 78.4007 54.6039 78.2391 54.3163 77.9515C54.0287 77.664 53.8672 77.274 53.8672 76.8673C53.8672 76.4607 54.0287 76.0706 54.3163 75.7831C54.6039 75.4955 54.9939 75.334 55.4005 75.334H58.4672C58.8739 75.334 59.2639 75.4955 59.5514 75.7831C59.839 76.0706 60.0005 76.4607 60.0005 76.8673C60.0005 77.274 59.839 77.664 59.5514 77.9515C59.2639 78.2391 58.8739 78.4007 58.4672 78.4007Z" fill="#005EB8"/>
<path d="M87.5994 99.8676H56.9327C56.5261 99.8676 56.1361 99.706 55.8485 99.4185C55.5609 99.1309 55.3994 98.7409 55.3994 98.3342C55.3994 97.9276 55.5609 97.5376 55.8485 97.25C56.1361 96.9625 56.5261 96.8009 56.9327 96.8009H86.0661V29.3342H58.4661V40.0676C58.4661 40.4742 58.3045 40.8643 58.017 41.1518C57.7294 41.4394 57.3394 41.6009 56.9327 41.6009C56.5261 41.6009 56.1361 41.4394 55.8485 41.1518C55.5609 40.8643 55.3994 40.4742 55.3994 40.0676V27.8009C55.3994 27.3942 55.5609 27.0042 55.8485 26.7167C56.1361 26.4291 56.5261 26.2676 56.9327 26.2676H87.5994C88.0061 26.2676 88.3961 26.4291 88.6836 26.7167C88.9712 27.0042 89.1327 27.3942 89.1327 27.8009V98.3342C89.1327 98.7409 88.9712 99.1309 88.6836 99.4185C88.3961 99.706 88.0061 99.8676 87.5994 99.8676Z" fill="#005EB8"/>
<path d="M87.6007 29.3348H56.934C55.714 29.3348 54.544 28.8501 53.6813 27.9875C52.8186 27.1248 52.334 25.9548 52.334 24.7348C52.334 23.5148 52.8186 22.3448 53.6813 21.4821C54.544 20.6194 55.714 20.1348 56.934 20.1348H87.6007C88.8207 20.1348 89.9907 20.6194 90.8534 21.4821C91.716 22.3448 92.2007 23.5148 92.2007 24.7348C92.2007 25.9548 91.716 27.1248 90.8534 27.9875C89.9907 28.8501 88.8207 29.3348 87.6007 29.3348ZM56.934 23.2015C56.5273 23.2015 56.1373 23.363 55.8498 23.6506C55.5622 23.9381 55.4007 24.3281 55.4007 24.7348C55.4007 25.1415 55.5622 25.5315 55.8498 25.819C56.1373 26.1066 56.5273 26.2681 56.934 26.2681H87.6007C88.0073 26.2681 88.3973 26.1066 88.6849 25.819C88.9725 25.5315 89.134 25.1415 89.134 24.7348C89.134 24.3281 88.9725 23.9381 88.6849 23.6506C88.3973 23.363 88.0073 23.2015 87.6007 23.2015H56.934Z" fill="#005EB8"/>
<path d="M73.8002 53.8674H70.7335C70.3269 53.8674 69.9369 53.7059 69.6493 53.4183C69.3617 53.1308 69.2002 52.7408 69.2002 52.3341C69.2002 51.9274 69.3617 51.5374 69.6493 51.2499C69.9369 50.9623 70.3269 50.8008 70.7335 50.8008H73.8002C74.2069 50.8008 74.5969 50.9623 74.8844 51.2499C75.172 51.5374 75.3335 51.9274 75.3335 52.3341C75.3335 52.7408 75.172 53.1308 74.8844 53.4183C74.5969 53.7059 74.2069 53.8674 73.8002 53.8674Z" fill="#005EB8"/>
<path d="M81.4672 53.8674H78.4005C77.9939 53.8674 77.6039 53.7059 77.3163 53.4183C77.0287 53.1308 76.8672 52.7408 76.8672 52.3341C76.8672 51.9274 77.0287 51.5374 77.3163 51.2499C77.6039 50.9623 77.9939 50.8008 78.4005 50.8008H81.4672C81.8739 50.8008 82.2639 50.9623 82.5514 51.2499C82.839 51.5374 83.0005 51.9274 83.0005 52.3341C83.0005 52.7408 82.839 53.1308 82.5514 53.4183C82.2639 53.7059 81.8739 53.8674 81.4672 53.8674Z" fill="#005EB8"/>
<path d="M73.8002 47.7347H70.7335C70.3269 47.7347 69.9369 47.5731 69.6493 47.2856C69.3617 46.998 69.2002 46.608 69.2002 46.2013C69.2002 45.7947 69.3617 45.4046 69.6493 45.1171C69.9369 44.8295 70.3269 44.668 70.7335 44.668H73.8002C74.2069 44.668 74.5969 44.8295 74.8844 45.1171C75.172 45.4046 75.3335 45.7947 75.3335 46.2013C75.3335 46.608 75.172 46.998 74.8844 47.2856C74.5969 47.5731 74.2069 47.7347 73.8002 47.7347Z" fill="#005EB8"/>
<path d="M81.4672 47.7347H78.4005C77.9939 47.7347 77.6039 47.5731 77.3163 47.2856C77.0287 46.998 76.8672 46.608 76.8672 46.2013C76.8672 45.7947 77.0287 45.4046 77.3163 45.1171C77.6039 44.8295 77.9939 44.668 78.4005 44.668H81.4672C81.8739 44.668 82.2639 44.8295 82.5514 45.1171C82.839 45.4046 83.0005 45.7947 83.0005 46.2013C83.0005 46.608 82.839 46.998 82.5514 47.2856C82.2639 47.5731 81.8739 47.7347 81.4672 47.7347Z" fill="#005EB8"/>
<path d="M73.8002 41.6018H70.7335C70.3269 41.6018 69.9369 41.4403 69.6493 41.1527C69.3617 40.8652 69.2002 40.4752 69.2002 40.0685C69.2002 39.6618 69.3617 39.2718 69.6493 38.9843C69.9369 38.6967 70.3269 38.5352 70.7335 38.5352H73.8002C74.2069 38.5352 74.5969 38.6967 74.8844 38.9843C75.172 39.2718 75.3335 39.6618 75.3335 40.0685C75.3335 40.4752 75.172 40.8652 74.8844 41.1527C74.5969 41.4403 74.2069 41.6018 73.8002 41.6018Z" fill="#005EB8"/>
<path d="M81.4672 41.6018H78.4005C77.9939 41.6018 77.6039 41.4403 77.3163 41.1527C77.0287 40.8652 76.8672 40.4752 76.8672 40.0685C76.8672 39.6618 77.0287 39.2718 77.3163 38.9843C77.6039 38.6967 77.9939 38.5352 78.4005 38.5352H81.4672C81.8739 38.5352 82.2639 38.6967 82.5514 38.9843C82.839 39.2718 83.0005 39.6618 83.0005 40.0685C83.0005 40.4752 82.839 40.8652 82.5514 41.1527C82.2639 41.4403 81.8739 41.6018 81.4672 41.6018Z" fill="#005EB8"/>
<path d="M73.8002 35.4671H70.7335C70.3269 35.4671 69.9369 35.3055 69.6493 35.018C69.3617 34.7304 69.2002 34.3404 69.2002 33.9337C69.2002 33.5271 69.3617 33.137 69.6493 32.8495C69.9369 32.5619 70.3269 32.4004 70.7335 32.4004H73.8002C74.2069 32.4004 74.5969 32.5619 74.8844 32.8495C75.172 33.137 75.3335 33.5271 75.3335 33.9337C75.3335 34.3404 75.172 34.7304 74.8844 35.018C74.5969 35.3055 74.2069 35.4671 73.8002 35.4671Z" fill="#005EB8"/>
<path d="M66.1332 35.4671H63.0665C62.6599 35.4671 62.2699 35.3055 61.9823 35.018C61.6947 34.7304 61.5332 34.3404 61.5332 33.9337C61.5332 33.5271 61.6947 33.137 61.9823 32.8495C62.2699 32.5619 62.6599 32.4004 63.0665 32.4004H66.1332C66.5399 32.4004 66.9299 32.5619 67.2174 32.8495C67.505 33.137 67.6665 33.5271 67.6665 33.9337C67.6665 34.3404 67.505 34.7304 67.2174 35.018C66.9299 35.3055 66.5399 35.4671 66.1332 35.4671Z" fill="#005EB8"/>
<path d="M81.4672 35.4671H78.4005C77.9939 35.4671 77.6039 35.3055 77.3163 35.018C77.0287 34.7304 76.8672 34.3404 76.8672 33.9337C76.8672 33.5271 77.0287 33.137 77.3163 32.8495C77.6039 32.5619 77.9939 32.4004 78.4005 32.4004H81.4672C81.8739 32.4004 82.2639 32.5619 82.5514 32.8495C82.839 33.137 83.0005 33.5271 83.0005 33.9337C83.0005 34.3404 82.839 34.7304 82.5514 35.018C82.2639 35.3055 81.8739 35.4671 81.4672 35.4671Z" fill="#005EB8"/>
<path d="M73.8002 60.0003H70.7335C70.3269 60.0003 69.9369 59.8387 69.6493 59.5512C69.3617 59.2636 69.2002 58.8736 69.2002 58.4669C69.2002 58.0603 69.3617 57.6703 69.6493 57.3827C69.9369 57.0951 70.3269 56.9336 70.7335 56.9336H73.8002C74.2069 56.9336 74.5969 57.0951 74.8844 57.3827C75.172 57.6703 75.3335 58.0603 75.3335 58.4669C75.3335 58.8736 75.172 59.2636 74.8844 59.5512C74.5969 59.8387 74.2069 60.0003 73.8002 60.0003Z" fill="#005EB8"/>
<path d="M81.4672 60.0003H78.4005C77.9939 60.0003 77.6039 59.8387 77.3163 59.5512C77.0287 59.2636 76.8672 58.8736 76.8672 58.4669C76.8672 58.0603 77.0287 57.6703 77.3163 57.3827C77.6039 57.0951 77.9939 56.9336 78.4005 56.9336H81.4672C81.8739 56.9336 82.2639 57.0951 82.5514 57.3827C82.839 57.6703 83.0005 58.0603 83.0005 58.4669C83.0005 58.8736 82.839 59.2636 82.5514 59.5512C82.2639 59.8387 81.8739 60.0003 81.4672 60.0003Z" fill="#005EB8"/>
<path d="M73.8002 66.135H70.7335C70.3269 66.135 69.9369 65.9735 69.6493 65.6859C69.3617 65.3984 69.2002 65.0084 69.2002 64.6017C69.2002 64.1951 69.3617 63.805 69.6493 63.5175C69.9369 63.2299 70.3269 63.0684 70.7335 63.0684H73.8002C74.2069 63.0684 74.5969 63.2299 74.8844 63.5175C75.172 63.805 75.3335 64.1951 75.3335 64.6017C75.3335 65.0084 75.172 65.3984 74.8844 65.6859C74.5969 65.9735 74.2069 66.135 73.8002 66.135Z" fill="#005EB8"/>
<path d="M81.4672 66.135H78.4005C77.9939 66.135 77.6039 65.9735 77.3163 65.6859C77.0287 65.3984 76.8672 65.0084 76.8672 64.6017C76.8672 64.1951 77.0287 63.805 77.3163 63.5175C77.6039 63.2299 77.9939 63.0684 78.4005 63.0684H81.4672C81.8739 63.0684 82.2639 63.2299 82.5514 63.5175C82.839 63.805 83.0005 64.1951 83.0005 64.6017C83.0005 65.0084 82.839 65.3984 82.5514 65.6859C82.2639 65.9735 81.8739 66.135 81.4672 66.135Z" fill="#005EB8"/>
<path d="M73.8002 72.2679H70.7335C70.3269 72.2679 69.9369 72.1063 69.6493 71.8188C69.3617 71.5312 69.2002 71.1412 69.2002 70.7345C69.2002 70.3279 69.3617 69.9379 69.6493 69.6503C69.9369 69.3627 70.3269 69.2012 70.7335 69.2012H73.8002C74.2069 69.2012 74.5969 69.3627 74.8844 69.6503C75.172 69.9379 75.3335 70.3279 75.3335 70.7345C75.3335 71.1412 75.172 71.5312 74.8844 71.8188C74.5969 72.1063 74.2069 72.2679 73.8002 72.2679Z" fill="#005EB8"/>
<path d="M81.4672 72.2679H78.4005C77.9939 72.2679 77.6039 72.1063 77.3163 71.8188C77.0287 71.5312 76.8672 71.1412 76.8672 70.7345C76.8672 70.3279 77.0287 69.9379 77.3163 69.6503C77.6039 69.3627 77.9939 69.2012 78.4005 69.2012H81.4672C81.8739 69.2012 82.2639 69.3627 82.5514 69.6503C82.839 69.9379 83.0005 70.3279 83.0005 70.7345C83.0005 71.1412 82.839 71.5312 82.5514 71.8188C82.2639 72.1063 81.8739 72.2679 81.4672 72.2679Z" fill="#005EB8"/>
<path d="M73.8002 78.4007H70.7335C70.3269 78.4007 69.9369 78.2391 69.6493 77.9515C69.3617 77.664 69.2002 77.274 69.2002 76.8673C69.2002 76.4607 69.3617 76.0706 69.6493 75.7831C69.9369 75.4955 70.3269 75.334 70.7335 75.334H73.8002C74.2069 75.334 74.5969 75.4955 74.8844 75.7831C75.172 76.0706 75.3335 76.4607 75.3335 76.8673C75.3335 77.274 75.172 77.664 74.8844 77.9515C74.5969 78.2391 74.2069 78.4007 73.8002 78.4007Z" fill="#005EB8"/>
<path d="M81.4672 78.4007H78.4005C77.9939 78.4007 77.6039 78.2391 77.3163 77.9515C77.0287 77.664 76.8672 77.274 76.8672 76.8673C76.8672 76.4607 77.0287 76.0706 77.3163 75.7831C77.6039 75.4955 77.9939 75.334 78.4005 75.334H81.4672C81.8739 75.334 82.2639 75.4955 82.5514 75.7831C82.839 76.0706 83.0005 76.4607 83.0005 76.8673C83.0005 77.274 82.839 77.664 82.5514 77.9515C82.2639 78.2391 81.8739 78.4007 81.4672 78.4007Z" fill="#005EB8"/>
<path d="M73.8002 84.5335H70.7335C70.3269 84.5335 69.9369 84.3719 69.6493 84.0844C69.3617 83.7968 69.2002 83.4068 69.2002 83.0001C69.2002 82.5935 69.3617 82.2035 69.6493 81.9159C69.9369 81.6283 70.3269 81.4668 70.7335 81.4668H73.8002C74.2069 81.4668 74.5969 81.6283 74.8844 81.9159C75.172 82.2035 75.3335 82.5935 75.3335 83.0001C75.3335 83.4068 75.172 83.7968 74.8844 84.0844C74.5969 84.3719 74.2069 84.5335 73.8002 84.5335Z" fill="#005EB8"/>
<path d="M81.4672 84.5335H78.4005C77.9939 84.5335 77.6039 84.3719 77.3163 84.0844C77.0287 83.7968 76.8672 83.4068 76.8672 83.0001C76.8672 82.5935 77.0287 82.2035 77.3163 81.9159C77.6039 81.6283 77.9939 81.4668 78.4005 81.4668H81.4672C81.8739 81.4668 82.2639 81.6283 82.5514 81.9159C82.839 82.2035 83.0005 82.5935 83.0005 83.0001C83.0005 83.4068 82.839 83.7968 82.5514 84.0844C82.2639 84.3719 81.8739 84.5335 81.4672 84.5335Z" fill="#005EB8"/>
<path d="M21.6661 99.8684C21.2595 99.8684 20.8695 99.7068 20.5819 99.4193C20.2943 99.1317 20.1328 98.7417 20.1328 98.335V87.6017C20.1328 87.1951 20.2943 86.805 20.5819 86.5175C20.8695 86.2299 21.2595 86.0684 21.6661 86.0684C22.0728 86.0684 22.4628 86.2299 22.7504 86.5175C23.0379 86.805 23.1995 87.1951 23.1995 87.6017V98.335C23.1995 98.7417 23.0379 99.1317 22.7504 99.4193C22.4628 99.7068 22.0728 99.8684 21.6661 99.8684Z" fill="#005EB8"/>
<path d="M21.6667 92.2007C19.6341 92.1983 17.6854 91.3898 16.2482 89.9525C14.8109 88.5152 14.0024 86.5666 14 84.534C14 80.2799 17.349 75.334 21.6667 75.334C25.9844 75.334 29.3333 80.2799 29.3333 84.534C29.3309 86.5666 28.5224 88.5152 27.0852 89.9525C25.6479 91.3898 23.6993 92.1983 21.6667 92.2007ZM21.6667 78.4007C19.2971 78.4007 17.0667 81.8559 17.0667 84.534C17.0667 85.754 17.5513 86.924 18.414 87.7867C19.2766 88.6493 20.4467 89.134 21.6667 89.134C22.8867 89.134 24.0567 88.6493 24.9194 87.7867C25.782 86.924 26.2667 85.754 26.2667 84.534C26.2667 81.8559 24.0363 78.4007 21.6667 78.4007Z" fill="#005EB8"/>
<path d="M98.3331 99.8684C97.9265 99.8684 97.5365 99.7068 97.2489 99.4193C96.9614 99.1317 96.7998 98.7417 96.7998 98.335V87.6017C96.7998 87.1951 96.9614 86.805 97.2489 86.5175C97.5365 86.2299 97.9265 86.0684 98.3331 86.0684C98.7398 86.0684 99.1298 86.2299 99.4174 86.5175C99.7049 86.805 99.8665 87.1951 99.8665 87.6017V98.335C99.8665 98.7417 99.7049 99.1317 99.4174 99.4193C99.1298 99.7068 98.7398 99.8684 98.3331 99.8684Z" fill="#005EB8"/>
<path d="M98.3327 92.2007C96.3001 92.1983 94.3514 91.3898 92.9142 89.9525C91.4769 88.5152 90.6684 86.5666 90.666 84.534C90.666 80.2799 94.015 75.334 98.3327 75.334C102.651 75.334 106 80.2799 106 84.534C105.997 86.5666 105.189 88.5152 103.752 89.9525C102.314 91.3898 100.366 92.1983 98.3327 92.2007ZM98.3327 78.4007C95.9631 78.4007 93.7327 81.8559 93.7327 84.534C93.7327 85.754 94.2173 86.924 95.08 87.7867C95.9426 88.6493 97.1127 89.134 98.3327 89.134C99.5527 89.134 100.723 88.6493 101.586 87.7867C102.449 86.924 102.933 85.754 102.933 84.534C102.933 81.8559 100.703 78.4007 98.3327 78.4007Z" fill="#005EB8"/>
<path d="M102.933 99.8674H17.0665C16.6599 99.8674 16.2699 99.7059 15.9823 99.4183C15.6948 99.1308 15.5332 98.7408 15.5332 98.3341C15.5332 97.9274 15.6948 97.5374 15.9823 97.2499C16.2699 96.9623 16.6599 96.8008 17.0665 96.8008H102.933C103.34 96.8008 103.73 96.9623 104.017 97.2499C104.305 97.5374 104.467 97.9274 104.467 98.3341C104.467 98.7408 104.305 99.1308 104.017 99.4183C103.73 99.7059 103.34 99.8674 102.933 99.8674Z" fill="#005EB8"/>
</svg>
