<svg width="120" height="120" viewBox="0 0 120 120" fill="none" xmlns="http://www.w3.org/2000/svg">
<path d="M100.835 76.9662H17.1508C14.8526 76.9662 13 75.0998 13 72.8015V27.9089C13 25.6106 14.8665 23.7441 17.1508 23.7441H18.7387C21.0369 23.7441 22.9034 25.6106 22.9034 27.9089V67.0489H100.835C103.134 67.0489 105 68.9154 105 71.2136V72.8015C105 75.0998 103.134 76.9662 100.835 76.9662ZM17.1508 26.5299C16.3847 26.5299 15.7579 27.1567 15.7579 27.9228V72.8155C15.7579 73.5816 16.3847 74.2084 17.1508 74.2084H100.835C101.601 74.2084 102.228 73.5816 102.228 72.8155V71.2276C102.228 70.4615 101.601 69.8347 100.835 69.8347H21.5105C20.7444 69.8347 20.1316 69.2079 20.1316 68.4557V27.9228C20.1316 27.1567 19.5048 26.5299 18.7387 26.5299H17.1508Z" fill="#005EB8"/>
<path d="M29.1866 92.2873H23.1973C21.1636 92.2873 19.5061 90.6297 19.5061 88.5961V82.1053C19.5061 81.3392 20.119 80.7264 20.8851 80.7264C21.6511 80.7264 22.264 81.3531 22.264 82.1053V88.5961C22.264 89.1115 22.6819 89.5154 23.1833 89.5154H29.1727C29.6881 89.5154 30.1059 89.0976 30.1059 88.5961V82.1053C30.1059 81.3392 30.7188 80.7264 31.4849 80.7264C32.251 80.7264 32.8639 81.3531 32.8639 82.1053V88.5961C32.8917 90.6297 31.2342 92.2873 29.1866 92.2873Z" fill="#005EB8"/>
<path d="M94.7899 92.2873H88.8005C86.7669 92.2873 85.1093 90.6297 85.1093 88.5961V82.1053C85.1093 81.3392 85.7222 80.7264 86.4883 80.7264C87.2544 80.7264 87.8672 81.3531 87.8672 82.1053V88.5961C87.8672 89.1115 88.2851 89.5154 88.8005 89.5154H94.7899C95.3052 89.5154 95.7092 89.0976 95.7092 88.5961V82.1053C95.7092 81.3392 96.322 80.7264 97.0881 80.7264C97.8542 80.7264 98.4671 81.3531 98.4671 82.1053V88.5961C98.481 90.6297 96.8235 92.2873 94.7899 92.2873Z" fill="#005EB8"/>
<path d="M101.6 69.8366C100.834 69.8366 100.221 69.2098 100.221 68.4576V47.829C100.221 47.3136 99.8029 46.9097 99.3014 46.9097H44.9511C44.4357 46.9097 44.0318 47.3276 44.0318 47.829V68.4576C44.0318 69.2237 43.4189 69.8366 42.6529 69.8366C41.8868 69.8366 41.2739 69.2098 41.2739 68.4576V47.829C41.2739 45.7954 42.9314 44.1378 44.9651 44.1378H99.3154C101.349 44.1378 103.007 45.7954 103.007 47.829V68.4576C102.993 69.2098 102.38 69.8366 101.6 69.8366Z" fill="#005EB8"/>
<path d="M33.5876 53.135C32.8215 53.135 32.2086 52.5081 32.2086 51.756V47.3545C32.2086 41.4626 27.4171 36.6711 21.5252 36.6711C20.7591 36.6711 20.1462 36.0443 20.1462 35.2921C20.1462 34.54 20.7591 33.9131 21.5252 33.9131C28.9492 33.9131 34.9804 39.9443 34.9804 47.3684V51.7699C34.9665 52.5082 34.3536 53.135 33.5876 53.135Z" fill="#005EB8"/>
<path d="M42.6212 53.1309H21.505C20.739 53.1309 20.1261 52.5041 20.1261 51.7519C20.1261 50.9858 20.739 50.359 21.505 50.359H42.6212C43.3873 50.359 44.0002 50.9858 44.0002 51.7519C44.0141 52.5041 43.3873 53.1309 42.6212 53.1309Z" fill="#005EB8"/>
<path d="M56.0854 69.8359C55.3193 69.8359 54.7064 69.2091 54.7064 68.457V45.5162C54.7064 44.7501 55.3193 44.1233 56.0854 44.1233C56.8515 44.1233 57.4644 44.7501 57.4644 45.5162V68.457C57.4783 69.2091 56.8515 69.8359 56.0854 69.8359Z" fill="#005EB8"/>
<path d="M21.5138 69.8364H14.6887C13.9226 69.8364 13.3098 69.2096 13.3098 68.4575C13.3098 67.6914 13.9226 67.0646 14.6887 67.0646H21.5138C22.2799 67.0646 22.8928 67.6914 22.8928 68.4575C22.9068 69.2096 22.2799 69.8364 21.5138 69.8364Z" fill="#005EB8"/>
</svg>
