<svg width="120" height="120" viewBox="0 0 120 120" fill="none" xmlns="http://www.w3.org/2000/svg">
<mask id="mask0_3607_230393" style="mask-type:luminance" maskUnits="userSpaceOnUse" x="13" y="16" width="92" height="92">
<path d="M105 16H13V108H105V16Z" fill="white"/>
</mask>
<g mask="url(#mask0_3607_230393)">
<path d="M32.8002 91.7C34.2361 91.7 35.4002 90.5359 35.4002 89.1C35.4002 87.6641 34.2361 86.5 32.8002 86.5C31.3643 86.5 30.2002 87.6641 30.2002 89.1C30.2002 90.5359 31.3643 91.7 32.8002 91.7Z" fill="#005EB8"/>
<path d="M90.5004 77.5996H27.5004C24.4004 77.5996 21.9004 80.0996 21.9004 83.1996V94.8996C21.9004 97.9996 24.4004 100.5 27.5004 100.5H90.4004C91.9004 100.5 93.3004 99.8996 94.4004 98.7996C95.5004 97.6996 96.1004 96.2996 96.1004 94.7996V83.1996C96.1004 80.0996 93.6004 77.5996 90.5004 77.5996ZM26.0004 83.1996C26.0004 82.2996 26.7004 81.5996 27.6004 81.5996H90.5004C91.4004 81.5996 92.1004 82.2996 92.1004 83.1996V94.8996C92.1004 95.7996 91.4004 96.4996 90.5004 96.4996H27.5004C26.6004 96.4996 25.9004 95.7996 25.9004 94.8996V83.1996H26.0004Z" fill="#005EB8"/>
<path d="M64.3008 64H84.6008C85.7008 64 86.6008 63.1 86.6008 62C86.6008 60.9 85.7008 60 84.6008 60H64.3008C63.2008 60 62.3008 60.9 62.3008 62C62.3008 63.1 63.2008 64 64.3008 64Z" fill="#005EB8"/>
<path d="M64.3008 91.0996H84.6008C85.7008 91.0996 86.6008 90.1996 86.6008 89.0996C86.6008 87.9996 85.7008 87.0996 84.6008 87.0996H64.3008C63.2008 87.0996 62.3008 87.9996 62.3008 89.0996C62.3008 90.1996 63.2008 91.0996 64.3008 91.0996Z" fill="#005EB8"/>
<path d="M48.8002 64.5984C50.2361 64.5984 51.4002 63.4344 51.4002 61.9984C51.4002 60.5625 50.2361 59.3984 48.8002 59.3984C47.3643 59.3984 46.2002 60.5625 46.2002 61.9984C46.2002 63.4344 47.3643 64.5984 48.8002 64.5984Z" fill="#005EB8"/>
<path d="M40.8002 91.7C42.3002 91.7 43.4002 90.5 43.4002 89.1C43.4002 87.7 42.2002 86.5 40.8002 86.5C39.4002 86.5 38.2002 87.7 38.2002 89.1C38.2002 90.5 39.3002 91.7 40.8002 91.7Z" fill="#005EB8"/>
<path d="M48.8002 91.7C50.2361 91.7 51.4002 90.5359 51.4002 89.1C51.4002 87.6641 50.2361 86.5 48.8002 86.5C47.3643 86.5 46.2002 87.6641 46.2002 89.1C46.2002 90.5359 47.3643 91.7 48.8002 91.7Z" fill="#005EB8"/>
<path d="M32.8002 64.5984C34.2361 64.5984 35.4002 63.4344 35.4002 61.9984C35.4002 60.5625 34.2361 59.3984 32.8002 59.3984C31.3643 59.3984 30.2002 60.5625 30.2002 61.9984C30.2002 63.4344 31.3643 64.5984 32.8002 64.5984Z" fill="#005EB8"/>
<path d="M40.8002 37.5984C42.3002 37.5984 43.4002 36.3984 43.4002 34.9984C43.4002 33.4984 42.2002 32.3984 40.8002 32.3984C39.4002 32.3984 38.2002 33.5984 38.2002 34.9984C38.2002 36.3984 39.3002 37.5984 40.8002 37.5984Z" fill="#005EB8"/>
<path d="M48.8002 37.5984C50.3002 37.5984 51.4002 36.3984 51.4002 34.9984C51.4002 33.4984 50.2002 32.3984 48.8002 32.3984C47.4002 32.3984 46.2002 33.5984 46.2002 34.9984C46.2002 36.3984 47.4002 37.5984 48.8002 37.5984Z" fill="#005EB8"/>
<path d="M64.3008 37H84.6008C85.7008 37 86.6008 36.1 86.6008 35C86.6008 33.9 85.7008 33 84.6008 33H64.3008C63.2008 33 62.3008 33.9 62.3008 35C62.3008 36.1 63.2008 37 64.3008 37Z" fill="#005EB8"/>
<path d="M32.8002 37.5984C34.3002 37.5984 35.4002 36.3984 35.4002 34.9984C35.4002 33.4984 34.2002 32.3984 32.8002 32.3984C31.4002 32.3984 30.2002 33.5984 30.2002 34.9984C30.1002 36.3984 31.3002 37.5984 32.8002 37.5984Z" fill="#005EB8"/>
<path d="M90.5004 50.5H27.5004C24.4004 50.5 21.9004 53 21.9004 56.1V67.8C21.9004 70.9 24.4004 73.4 27.5004 73.4H90.4004C91.9004 73.4 93.3004 72.8 94.4004 71.7C95.5004 70.6 96.1004 69.2 96.1004 67.7V56.2C96.1004 53.1 93.6004 50.5 90.5004 50.5ZM26.0004 56.2C26.0004 55.3 26.7004 54.6 27.6004 54.6H90.5004C91.4004 54.6 92.1004 55.3 92.1004 56.2V67.9C92.1004 68.8 91.4004 69.5 90.5004 69.5H27.5004C26.6004 69.5 25.9004 68.8 25.9004 67.9V56.2H26.0004Z" fill="#005EB8"/>
<path d="M90.5004 23.5H27.5004C24.4004 23.5 21.9004 26 21.9004 29.1V40.8C21.9004 43.9 24.4004 46.4 27.5004 46.4H90.4004C91.9004 46.4 93.3004 45.8 94.4004 44.7C95.5004 43.6 96.1004 42.2 96.1004 40.7V29.1C96.1004 26 93.6004 23.5 90.5004 23.5ZM26.0004 29.1C26.0004 28.2 26.7004 27.5 27.6004 27.5H90.5004C91.4004 27.5 92.1004 28.2 92.1004 29.1V40.8C92.1004 41.7 91.4004 42.4 90.5004 42.4H27.5004C26.6004 42.4 25.9004 41.7 25.9004 40.8V29.1H26.0004Z" fill="#005EB8"/>
<path d="M97.8004 15.6992H20.2004C17.3004 15.6992 14.9004 18.0992 14.9004 20.9992V102.999C14.9004 105.899 17.3004 108.299 20.2004 108.299H97.7004C100.6 108.299 103 105.899 103 102.999V20.9992C103.1 18.0992 100.7 15.6992 97.8004 15.6992ZM99.0004 102.999C99.0004 103.699 98.4004 104.199 97.8004 104.199H20.2004C19.5004 104.199 19.0004 103.599 19.0004 102.999V20.9992C19.0004 20.2992 19.6004 19.7992 20.2004 19.7992H97.7004C98.4004 19.7992 98.9004 20.3992 98.9004 20.9992L99.0004 102.999Z" fill="#005EB8"/>
<path d="M40.8002 64.5984C42.3002 64.5984 43.4002 63.3984 43.4002 61.9984C43.4002 60.5984 42.2002 59.3984 40.8002 59.3984C39.4002 59.3984 38.2002 60.5984 38.2002 61.9984C38.2002 63.3984 39.3002 64.5984 40.8002 64.5984Z" fill="#005EB8"/>
</g>
</svg>
