<svg width="120" height="120" viewBox="0 0 120 120" fill="none" xmlns="http://www.w3.org/2000/svg">
<path fill-rule="evenodd" clip-rule="evenodd" d="M59.6856 18.5C53.9111 18.5 49.2186 23.1925 49.2186 28.9669C49.2186 34.7414 53.9111 39.4339 59.6856 39.4339C65.46 39.4339 70.1525 34.7414 70.1525 28.9669C70.1525 23.18 65.4612 18.5 59.6856 18.5ZM46.2186 28.9669C46.2186 21.5356 52.2542 15.5 59.6856 15.5C67.1158 15.5 73.1525 21.5209 73.1525 28.9669C73.1525 36.3983 67.1169 42.4339 59.6856 42.4339C52.2542 42.4339 46.2186 36.3983 46.2186 28.9669ZM55.7622 21.8331C55.7622 21.0047 56.4338 20.3331 57.2622 20.3331H62.1089C62.9373 20.3331 63.6089 21.0047 63.6089 21.8331V25.0436H66.8195C67.6479 25.0436 68.3195 25.7152 68.3195 26.5436V31.3903C68.3195 32.2187 67.6479 32.8903 66.8195 32.8903H63.6089V36.1008C63.6089 36.9292 62.9373 37.6008 62.1089 37.6008H57.2622C56.4338 37.6008 55.7622 36.9292 55.7622 36.1008V32.8903H52.5517C51.7233 32.8903 51.0517 32.2187 51.0517 31.3903V26.5436C51.0517 25.7152 51.7233 25.0436 52.5517 25.0436H55.7622V21.8331ZM58.7622 23.3331V26.5436C58.7622 27.372 58.0906 28.0436 57.2622 28.0436H54.0517V29.8903H57.2622C58.0906 29.8903 58.7622 30.5619 58.7622 31.3903V34.6008H60.6089V31.3903C60.6089 30.5619 61.2805 29.8903 62.1089 29.8903H65.3195V28.0436H62.1089C61.2805 28.0436 60.6089 27.372 60.6089 26.5436V23.3331H58.7622ZM41.0204 30.4669C40.4874 30.4669 40.0562 30.8981 40.0562 31.4311V38.961C40.0652 39.0274 40.0699 39.0951 40.0699 39.164V103.843H46.2186V85.0169C46.2186 84.1885 46.8902 83.5169 47.7186 83.5169H71.6525C72.4809 83.5169 73.1525 84.1885 73.1525 85.0169V103.843H79.3149V31.4311C79.3149 30.8981 78.8837 30.4669 78.3507 30.4669H75.3828C74.5544 30.4669 73.8828 29.7954 73.8828 28.9669C73.8828 28.1385 74.5544 27.4669 75.3828 27.4669H78.3507C80.5406 27.4669 82.3149 29.2413 82.3149 31.4311V37.664H101.536C103.726 37.664 105.5 39.4383 105.5 41.6282V105.329C105.5 106.158 104.828 106.829 104 106.829H81.018C80.9516 106.838 80.8838 106.843 80.8149 106.843H38.5562C38.4873 106.843 38.4195 106.838 38.3531 106.829H15.3848C14.5563 106.829 13.8848 106.158 13.8848 105.329V41.6282C13.8848 39.4383 15.6591 37.664 17.8489 37.664H37.0562V31.4311C37.0562 29.2413 38.8306 27.4669 41.0204 27.4669H43.9883C44.8167 27.4669 45.4883 28.1385 45.4883 28.9669C45.4883 29.7954 44.8167 30.4669 43.9883 30.4669H41.0204ZM37.0562 40.664H17.8489C17.3159 40.664 16.8848 41.0952 16.8848 41.6282V103.829H37.0562V40.664ZM82.3149 103.829H102.5V41.6282C102.5 41.0952 102.069 40.664 101.536 40.664H82.3149V103.829ZM70.1525 103.829V86.5169H61.1856V103.829H70.1525ZM58.1856 103.829V86.5169H49.2186V103.829H58.1856ZM20.8961 49.7015C20.8961 48.8731 21.5677 48.2015 22.3961 48.2015H31.5449C32.3733 48.2015 33.0449 48.8731 33.0449 49.7015V58.8503C33.0449 59.6787 32.3733 60.3503 31.5449 60.3503H22.3961C21.5677 60.3503 20.8961 59.6787 20.8961 58.8503V49.7015ZM23.8961 51.2015V57.3503H30.0449V51.2015H23.8961ZM46.2322 49.7015C46.2322 48.8731 46.9038 48.2015 47.7322 48.2015H56.881C57.7094 48.2015 58.381 48.8731 58.381 49.7015V58.8503C58.381 59.6787 57.7094 60.3503 56.881 60.3503H47.7322C46.9038 60.3503 46.2322 59.6787 46.2322 58.8503V49.7015ZM49.2322 51.2015V57.3503H55.381V51.2015H49.2322ZM61.0037 49.7015C61.0037 48.8731 61.6753 48.2015 62.5037 48.2015H71.6525C72.4809 48.2015 73.1525 48.8731 73.1525 49.7015V58.8503C73.1525 59.6787 72.4809 60.3503 71.6525 60.3503H62.5037C61.6753 60.3503 61.0037 59.6787 61.0037 58.8503V49.7015ZM64.0037 51.2015V57.3503H70.1525V51.2015H64.0037ZM86.3399 49.7015C86.3399 48.8731 87.0114 48.2015 87.8399 48.2015H96.9887C97.8171 48.2015 98.4887 48.8731 98.4887 49.7015V58.8503C98.4887 59.6787 97.8171 60.3503 96.9887 60.3503H87.8399C87.0114 60.3503 86.3399 59.6787 86.3399 58.8503V49.7015ZM89.3399 51.2015V57.3503H95.4887V51.2015H89.3399ZM20.8961 67.3592C20.8961 66.5308 21.5677 65.8592 22.3961 65.8592H31.5449C32.3733 65.8592 33.0449 66.5308 33.0449 67.3592V76.508C33.0449 77.3364 32.3733 78.008 31.5449 78.008H22.3961C21.5677 78.008 20.8961 77.3364 20.8961 76.508V67.3592ZM23.8961 68.8592V75.008H30.0449V68.8592H23.8961ZM46.2322 67.3592C46.2322 66.5308 46.9038 65.8592 47.7322 65.8592H56.881C57.7094 65.8592 58.381 66.5308 58.381 67.3592V76.508C58.381 77.3364 57.7094 78.008 56.881 78.008H47.7322C46.9038 78.008 46.2322 77.3364 46.2322 76.508V67.3592ZM49.2322 68.8592V75.008H55.381V68.8592H49.2322ZM61.0037 67.3592C61.0037 66.5308 61.6753 65.8592 62.5037 65.8592H71.6525C72.4809 65.8592 73.1525 66.5308 73.1525 67.3592V76.508C73.1525 77.3364 72.4809 78.008 71.6525 78.008H62.5037C61.6753 78.008 61.0037 77.3364 61.0037 76.508V67.3592ZM64.0037 68.8592V75.008H70.1525V68.8592H64.0037ZM86.3399 67.3592C86.3399 66.5308 87.0114 65.8592 87.8399 65.8592H96.9887C97.8171 65.8592 98.4887 66.5308 98.4887 67.3592V76.508C98.4887 77.3364 97.8171 78.008 96.9887 78.008H87.8399C87.0114 78.008 86.3399 77.3364 86.3399 76.508V67.3592ZM89.3399 68.8592V75.008H95.4887V68.8592H89.3399ZM20.8961 85.0169C20.8961 84.1885 21.5677 83.5169 22.3961 83.5169H31.5449C32.3733 83.5169 33.0449 84.1885 33.0449 85.0169V94.1657C33.0449 94.9941 32.3733 95.6657 31.5449 95.6657H22.3961C21.5677 95.6657 20.8961 94.9941 20.8961 94.1657V85.0169ZM23.8961 86.5169V92.6657H30.0449V86.5169H23.8961ZM86.3399 85.0169C86.3399 84.1885 87.0114 83.5169 87.8399 83.5169H96.9887C97.8171 83.5169 98.4887 84.1885 98.4887 85.0169V94.1657C98.4887 94.9941 97.8171 95.6657 96.9887 95.6657H87.8399C87.0114 95.6657 86.3399 94.9941 86.3399 94.1657V85.0169ZM89.3399 86.5169V92.6657H95.4887V86.5169H89.3399Z" fill="#005EB8"/>
</svg>
