<svg width="120" height="120" viewBox="0 0 120 120" fill="none" xmlns="http://www.w3.org/2000/svg">
<g clip-path="url(#clip0_3607_230426)">
<mask id="mask0_3607_230426" style="mask-type:luminance" maskUnits="userSpaceOnUse" x="-1" y="-1" width="122" height="122">
<path d="M120 120H0V0H120V120Z" fill="white" stroke="white" stroke-width="0.3"/>
</mask>
<g mask="url(#mask0_3607_230426)">
<path d="M103.668 104.983H67.371C66.6504 104.983 66.0527 104.386 66.0527 103.665V53.4648C66.0527 52.7441 66.6504 52.1465 67.371 52.1465H103.668C104.389 52.1465 104.986 52.7441 104.986 53.4648V103.665C104.986 104.386 104.389 104.983 103.668 104.983ZM68.6893 102.347H102.35V54.7831H68.6893V102.347Z" fill="#005EB8" stroke="#005EB8" stroke-width="0.3"/>
<path d="M67.3734 104.984H16.3115C15.5908 104.984 14.9932 104.387 14.9932 103.666V84.1554C14.9932 83.5226 15.4502 82.9777 16.083 82.8547L28.2816 80.6224V76.773C28.2816 76.1402 28.7386 75.5953 29.3538 75.4723L67.1273 68.2304C67.514 68.1601 67.9183 68.2656 68.2171 68.5117C68.5159 68.7577 68.6917 69.1444 68.6917 69.5311V103.666C68.6917 104.387 68.0941 104.984 67.3734 104.984ZM17.6298 102.348H66.0551V71.1307L30.9182 77.8803V81.7298C30.9182 82.3625 30.4612 82.9074 29.8284 83.0305L17.6298 85.2452V102.348Z" fill="#005EB8" stroke="#005EB8" stroke-width="0.3"/>
</g>
<path d="M36.5993 76.7601C35.9138 76.7601 35.3338 76.2328 35.281 75.5297L33.3827 47.1424H32.5038C31.7832 47.1424 31.1855 46.5448 31.1855 45.8242C31.1855 45.1035 31.7832 44.5059 32.5038 44.5059H34.6131C35.2986 44.5059 35.8787 45.0508 35.9314 45.7363L36.5993 55.7202L37.9176 75.354C37.9704 76.0746 37.4255 76.7074 36.6872 76.7601C36.6521 76.7601 36.6169 76.7601 36.5993 76.7601Z" fill="#005EB8" stroke="#005EB8" stroke-width="0.3"/>
<path d="M22.0844 84.4141C22.0493 84.4141 22.0317 84.4141 21.9965 84.4141C21.2759 84.3614 20.7134 83.7286 20.7661 83.0079L23.2621 45.7441C23.3148 45.0586 23.8773 44.5137 24.5804 44.5137H33.1757C33.8963 44.5137 34.494 45.1113 34.494 45.832C34.494 46.5527 33.8963 47.1503 33.1757 47.1503H25.8284L23.4027 83.1837C23.35 83.8868 22.7699 84.4141 22.0844 84.4141Z" fill="#005EB8" stroke="#005EB8" stroke-width="0.3"/>
<path d="M46.311 74.8888C46.2758 74.8888 46.2582 74.8888 46.2231 74.8888C45.5024 74.8361 44.94 74.2033 44.9927 73.4827L47.225 40.2089C47.2777 39.5234 47.8402 38.9785 48.5433 38.9785H58.5623C59.2478 38.9785 59.8279 39.5234 59.8806 40.2089L61.0231 57.2589C61.0231 57.2764 61.0231 57.294 61.0231 57.294L61.4977 70.4594C61.5329 71.18 60.9528 71.7952 60.2322 71.8304C59.5115 71.848 58.8963 71.2855 58.8611 70.5648L58.3866 57.4346L57.3319 41.6327H49.7737L47.6293 73.6584C47.5765 74.3615 46.9965 74.8888 46.311 74.8888Z" fill="#005EB8" stroke="#005EB8" stroke-width="0.3"/>
<mask id="mask1_3607_230426" style="mask-type:luminance" maskUnits="userSpaceOnUse" x="-1" y="-1" width="122" height="122">
<path d="M120 120H0V0H120V120Z" fill="white" stroke="white" stroke-width="0.3"/>
</mask>
<g mask="url(#mask1_3607_230426)">
<path d="M90.5395 104.97H80.5029C79.7822 104.97 79.1846 104.372 79.1846 103.651V91.6992C79.1846 90.9785 79.7822 90.3809 80.5029 90.3809H90.5395C91.2601 90.3809 91.8578 90.9785 91.8578 91.6992V103.651C91.8578 104.39 91.2601 104.97 90.5395 104.97ZM81.8212 102.333H89.2212V93.0175H81.8212V102.333Z" fill="#005EB8" stroke="#005EB8" stroke-width="0.3"/>
</g>
<path d="M96.4247 67.109H74.6289C73.9083 67.109 73.3105 66.5114 73.3105 65.7907V60.8163C73.3105 60.0957 73.9083 59.498 74.6289 59.498H96.4247C97.1454 59.498 97.743 60.0957 97.743 60.8163V65.7907C97.743 66.5114 97.1454 67.109 96.4247 67.109ZM75.9472 64.4725H95.1063V62.1346H75.9472V64.4725Z" fill="#005EB8" stroke="#005EB8" stroke-width="0.3"/>
<path d="M82.8804 77.3044H74.6191C73.8984 77.3044 73.3008 76.7068 73.3008 75.9861V71.0117C73.3008 70.2911 73.8984 69.6934 74.6191 69.6934H82.8804C83.6011 69.6934 84.1987 70.2911 84.1987 71.0117V75.9861C84.1987 76.7243 83.6186 77.3044 82.8804 77.3044ZM75.9549 74.6678H81.5797V72.33H75.9549V74.6678Z" fill="#005EB8" stroke="#005EB8" stroke-width="0.3"/>
<path d="M96.4263 77.3044H88.165C87.4443 77.3044 86.8467 76.7068 86.8467 75.9861V71.0117C86.8467 70.2911 87.4443 69.6934 88.165 69.6934H96.4263C97.147 69.6934 97.7446 70.2911 97.7446 71.0117V75.9861C97.7446 76.7243 97.147 77.3044 96.4263 77.3044ZM89.4833 74.6678H95.108V72.33H89.4833V74.6678Z" fill="#005EB8" stroke="#005EB8" stroke-width="0.3"/>
<path d="M82.8804 87.5152H74.6191C73.8984 87.5152 73.3008 86.9176 73.3008 86.197V81.2226C73.3008 80.5019 73.8984 79.9043 74.6191 79.9043H82.8804C83.6011 79.9043 84.1987 80.5019 84.1987 81.2226V86.197C84.1987 86.9176 83.6186 87.5152 82.8804 87.5152ZM75.9549 84.8787H81.5797V82.5409H75.9549V84.8787Z" fill="#005EB8" stroke="#005EB8" stroke-width="0.3"/>
<path d="M96.4263 87.5152H88.165C87.4443 87.5152 86.8467 86.9176 86.8467 86.197V81.2226C86.8467 80.5019 87.4443 79.9043 88.165 79.9043H96.4263C97.147 79.9043 97.7446 80.5019 97.7446 81.2226V86.197C97.7446 86.9176 97.147 87.5152 96.4263 87.5152ZM89.4833 84.8787H95.108V82.5409H89.4833V84.8787Z" fill="#005EB8" stroke="#005EB8" stroke-width="0.3"/>
<mask id="mask2_3607_230426" style="mask-type:luminance" maskUnits="userSpaceOnUse" x="-1" y="-1" width="122" height="122">
<path d="M120 120H0V0H120V120Z" fill="white" stroke="white" stroke-width="0.3"/>
</mask>
<g mask="url(#mask2_3607_230426)">
<path d="M103.673 54.7729H90.5426C90.1208 54.7729 89.7341 54.5796 89.488 54.228C89.2419 53.8941 89.1716 53.4546 89.2947 53.0503L92.3004 43.5235C92.4761 42.9786 92.9859 42.6094 93.5659 42.6094H103.673C104.394 42.6094 104.991 43.2071 104.991 43.9277V53.4546C104.991 54.1753 104.394 54.7729 103.673 54.7729ZM92.3355 52.1363H102.355V45.246H94.5151L92.3355 52.1363Z" fill="#005EB8" stroke="#005EB8" stroke-width="0.3"/>
<path d="M53.5557 35.6221C52.5362 35.6221 51.5871 35.2354 50.8664 34.5148C50.1457 33.7941 49.759 32.8449 49.759 31.8255V29.3646C49.759 29.3471 49.7414 29.3295 49.7239 29.3295C48.3177 29.3295 46.9818 28.8022 45.9623 27.8354C44.9253 26.8511 44.3452 25.5152 44.3276 24.109C44.3101 22.6677 44.855 21.3143 45.8744 20.2948C46.8764 19.2929 48.2122 18.748 49.6184 18.748H52.5011C52.7472 17.9394 53.2042 17.2188 53.8018 16.6035C54.8037 15.6016 56.1396 15.0567 57.5458 15.0567H65.4379C68.3382 15.0392 70.7111 17.4121 70.7111 20.3299C70.7111 21.7537 70.1662 23.072 69.1643 24.0739C68.1624 25.0758 66.8266 25.6207 65.4204 25.6207H62.5377C62.2916 26.4292 61.8346 27.1499 61.237 27.7651C60.2351 28.767 58.9168 29.3119 57.493 29.3119H57.3876C57.37 29.3119 57.3524 29.3295 57.3524 29.3471V31.8079C57.3524 33.9172 55.6474 35.6221 53.5557 35.6221ZM49.6184 21.367C48.9153 21.367 48.2474 21.6482 47.7376 22.1404C47.2279 22.6501 46.9467 23.3356 46.9642 24.0563C46.9818 24.7594 47.2631 25.4098 47.7904 25.9019C48.3177 26.3941 49.0032 26.6753 49.7239 26.6753C51.2004 26.6753 52.3956 27.8706 52.3956 29.3471V31.8079C52.3956 32.1243 52.5187 32.4055 52.7296 32.634C52.9581 32.8625 53.2393 32.968 53.5557 32.968C54.2061 32.968 54.7158 32.4407 54.7158 31.8079V29.3471C54.7158 27.8706 55.9111 26.6753 57.3876 26.6753H57.493C58.1961 26.6753 58.8641 26.3941 59.3738 25.9019C59.8308 25.4449 60.0945 24.8473 60.1472 24.2145C60.1999 23.529 60.7624 22.9841 61.4655 22.9841H65.4204C66.1235 22.9841 66.7914 22.7029 67.3011 22.2107C67.7933 21.701 68.0745 21.033 68.0745 20.3299C68.0745 18.871 66.8793 17.6758 65.4204 17.6758H57.5282C56.8251 17.6758 56.1572 17.957 55.6474 18.4492C55.1904 18.9062 54.9267 19.5038 54.874 20.1366C54.8213 20.8221 54.2588 21.367 53.5557 21.367H49.6184Z" fill="#005EB8" stroke="#005EB8" stroke-width="0.3"/>
<path d="M29.5921 41.6162C28.5727 41.6162 27.6235 41.2119 26.9028 40.5088C26.1821 39.7882 25.7954 38.839 25.7954 37.8195V35.3587C25.7954 35.3411 25.7779 35.3235 25.7603 35.3235C24.3541 35.3235 23.0182 34.7962 21.9988 33.8295C21.2078 33.0912 20.698 32.1421 20.4695 31.1226C18.1493 30.4371 16.4619 28.2575 16.4619 25.7615C16.4619 22.6855 18.9755 20.1719 22.0515 20.1719C24.7935 20.1719 27.061 22.1406 27.5532 24.742H33.547C36.4648 24.7245 38.8378 27.0974 38.8378 30.0152C38.8378 31.4214 38.2929 32.7573 37.291 33.7592C36.2891 34.7611 34.9532 35.306 33.547 35.306H33.4416C33.424 35.306 33.4064 35.3235 33.4064 35.3411V37.8019C33.4064 39.9112 31.7014 41.6162 29.5921 41.6162ZM23.0007 30.0504C23.0182 30.7359 23.2995 31.4038 23.8268 31.896C24.3541 32.3881 25.0396 32.6694 25.7603 32.6694C27.2368 32.6694 28.432 33.8646 28.432 35.3411V37.8019C28.432 38.1183 28.5551 38.3996 28.766 38.6281C28.9945 38.8566 29.2757 38.962 29.5921 38.962C30.2425 38.962 30.7522 38.4347 30.7522 37.8019V35.3411C30.7522 33.8646 31.9475 32.6694 33.424 32.6694H33.5294C34.2325 32.6694 34.9005 32.3881 35.4102 31.896C35.92 31.3862 36.2012 30.7183 36.2012 30.0152C36.2012 28.5563 35.0059 27.361 33.547 27.361H26.3228C25.9536 27.361 25.6021 27.2029 25.356 26.9392C25.1099 26.6755 24.9869 26.3064 25.0045 25.9373C25.0045 25.867 25.0045 25.8142 25.0045 25.7439C25.0045 24.1093 23.6862 22.791 22.0515 22.791C20.4168 22.791 19.0985 24.1093 19.0985 25.7439C19.0985 27.2556 20.2762 28.5563 21.7878 28.6793C22.4733 28.7321 23.0007 29.3121 23.0007 29.9976V30.0504Z" fill="#005EB8" stroke="#005EB8" stroke-width="0.3"/>
<path d="M35.8272 65.3256H23.3649C22.9957 65.3256 22.6442 65.1675 22.3981 64.9038C22.152 64.6401 22.029 64.271 22.0466 63.9195L22.5915 55.7109C22.6442 55.0254 23.2067 54.4805 23.9098 54.4805H35.2647C35.9502 54.4805 36.5302 55.0254 36.583 55.7109L37.1454 63.9195C37.163 64.2886 37.04 64.6401 36.7939 64.9038C36.5478 65.1675 36.1963 65.3256 35.8272 65.3256ZM24.7711 62.6891H34.421L34.0518 57.1171H25.1578L24.7711 62.6891Z" fill="#005EB8" stroke="#005EB8" stroke-width="0.3"/>
<path d="M59.71 58.6694H47.4059C47.0368 58.6694 46.6852 58.5112 46.4391 58.2475C46.1931 57.9839 46.07 57.6148 46.0876 57.2632L46.6149 49.4765C46.6676 48.791 47.2301 48.2461 47.9332 48.2461H59.1827C59.8682 48.2461 60.4482 48.791 60.5009 49.4765L61.0283 57.2632C61.0458 57.6323 60.9228 57.9839 60.6767 58.2475C60.4306 58.5112 60.0791 58.6694 59.71 58.6694ZM48.8121 56.0328H58.3038L57.9522 50.8827H49.1636L48.8121 56.0328Z" fill="#005EB8" stroke="#005EB8" stroke-width="0.3"/>
<path d="M42.0993 86.7086H37.5292C36.8086 86.7086 36.2109 86.111 36.2109 85.3904V80.8203C36.2109 80.0996 36.8086 79.502 37.5292 79.502H42.0993C42.82 79.502 43.4176 80.0996 43.4176 80.8203V85.3904C43.4176 86.111 42.82 86.7086 42.0993 86.7086ZM38.83 84.0721H40.7635V82.1385H38.83V84.0721Z" fill="#005EB8" stroke="#005EB8" stroke-width="0.3"/>
<path d="M51.4986 86.7086H46.9286C46.2079 86.7086 45.6104 86.111 45.6104 85.3904V80.8203C45.6104 80.0996 46.2079 79.502 46.9286 79.502H51.4986C52.2193 79.502 52.817 80.0996 52.817 80.8203V85.3904C52.817 86.111 52.2193 86.7086 51.4986 86.7086ZM48.2469 84.0721H50.1805V82.1385H48.2469V84.0721Z" fill="#005EB8" stroke="#005EB8" stroke-width="0.3"/>
<path d="M60.9079 86.7086H56.3378C55.6172 86.7086 55.0195 86.111 55.0195 85.3904V80.8203C55.0195 80.0996 55.6172 79.502 56.3378 79.502H60.9079C61.6286 79.502 62.2262 80.0996 62.2262 80.8203V85.3904C62.2262 86.111 61.6462 86.7086 60.9079 86.7086ZM57.6561 84.0721H59.5896V82.1385H57.6561V84.0721Z" fill="#005EB8" stroke="#005EB8" stroke-width="0.3"/>
<path d="M60.9064 92.4374H24.2226C23.5019 92.4374 22.9043 91.8398 22.9043 91.1191C22.9043 90.3984 23.5019 89.8008 24.2226 89.8008H60.9064C61.627 89.8008 62.2247 90.3984 62.2247 91.1191C62.2247 91.8398 61.6446 92.4374 60.9064 92.4374Z" fill="#005EB8" stroke="#005EB8" stroke-width="0.3"/>
</g>
</g>
<defs>
<clipPath id="clip0_3607_230426">
<rect width="120" height="120" fill="white"/>
</clipPath>
</defs>
</svg>
