<svg width="120" height="120" viewBox="0 0 120 120" fill="none" xmlns="http://www.w3.org/2000/svg">
<path d="M108.415 60.5551H103.203C102.784 50.5312 98.9006 40.963 92.2138 33.4836C85.527 26.0042 76.4519 21.0772 66.5371 19.5434C67.6264 18.2879 68.3317 16.7458 68.569 15.1007C68.8063 13.4556 68.5656 11.777 67.8756 10.2648C67.1856 8.75271 66.0754 7.47085 64.6773 6.57202C63.2792 5.6732 61.6521 5.19531 59.99 5.19531C58.3279 5.19531 56.7008 5.6732 55.3027 6.57202C53.9046 7.47085 52.7943 8.75271 52.1044 10.2648C51.4144 11.777 51.1737 13.4556 51.411 15.1007C51.6483 16.7458 52.3536 18.2879 53.4428 19.5434C43.5281 21.0771 34.453 26.0041 27.7663 33.4836C21.0796 40.963 17.1958 50.5312 16.7778 60.5551H11.5654C11.1013 60.5551 10.6562 60.7395 10.328 61.0677C9.9998 61.3958 9.81543 61.841 9.81543 62.3051C9.81543 62.7692 9.9998 63.2143 10.328 63.5425C10.6562 63.8707 11.1013 64.0551 11.5654 64.0551H30.0295C29.4093 67.6522 29.1122 71.2976 29.1418 74.9477C29.1745 77.4418 29.0037 79.9344 28.631 82.4008C28.2267 84.4516 27.8234 85.848 27.3967 87.3275C26.9167 88.9916 26.4191 90.7123 25.8767 93.4652C25.4574 95.7876 25.505 98.1702 26.0167 100.474C26.2686 101.529 26.3532 102.618 26.2675 103.699C25.9975 105.524 23.3105 109.764 21.6806 112.006C21.5407 112.192 21.4391 112.403 21.3818 112.628C21.3245 112.853 21.3127 113.088 21.3469 113.318C21.3811 113.547 21.4608 113.768 21.5812 113.967C21.7017 114.166 21.8605 114.338 22.0484 114.475C22.2363 114.612 22.4496 114.71 22.6757 114.763C22.9018 114.816 23.1364 114.824 23.3656 114.786C23.5948 114.748 23.8141 114.664 24.0107 114.54C24.2073 114.417 24.3772 114.255 24.5106 114.064C24.994 113.4 29.2469 107.479 29.7306 104.211C29.8808 102.759 29.7907 101.291 29.464 99.8683C29.03 97.9886 28.9778 96.0409 29.3107 94.1407C29.8234 91.5372 30.299 89.8907 30.759 88.2979C31.1877 86.8126 31.631 85.2765 32.0646 83.0772C32.4831 80.41 32.6759 77.7123 32.6408 75.0128C32.5936 71.4326 32.8935 67.8564 33.5363 64.3341C34.2586 64.0204 35.0651 63.9574 35.8273 64.1554C36.6849 64.3013 37.4874 64.6749 38.151 65.2373C38.8147 65.7996 39.3149 66.53 39.5995 67.352C40.2067 69.4231 40.4395 71.5858 40.287 73.7387C40.1585 75.3304 40.2998 76.9324 40.7049 78.477C41.3554 80.4543 42.3128 82.3171 43.5419 83.997C44.6319 85.536 47.0272 85.5526 48.8456 85.2919C52.3456 84.7929 61.2069 83.2419 61.5829 83.1767C61.5975 83.1737 61.6107 83.1654 61.6254 83.1625C61.7652 83.1349 61.9011 83.0903 62.0301 83.0297C62.0394 83.0253 62.0501 83.0248 62.0594 83.0204L62.0672 83.0165L62.0702 83.015L76.0448 76.0741C76.2381 75.9784 76.412 75.8476 76.5575 75.6884L86.7334 64.5678C87.4001 64.1963 88.1831 64.0923 88.9237 64.2767C89.6642 64.4611 90.307 64.9202 90.7216 65.5609C92.0537 67.6195 90.6074 69.7338 89.8716 70.6117L81.9004 81.0693L72.6377 92.1283C69.9941 93.9477 54.1191 104.902 51.8349 107.187C50.2038 108.708 49.1989 110.783 49.0166 113.006C49.0096 113.464 49.1835 113.906 49.5006 114.236C49.8177 114.567 50.2523 114.758 50.7099 114.77C50.7299 114.771 50.748 114.771 50.7666 114.771C51.2177 114.768 51.6504 114.592 51.9757 114.279C52.301 113.967 52.4942 113.541 52.5156 113.091C52.6933 111.773 53.3282 110.559 54.3095 109.661C55.9179 108.052 67.455 99.9383 74.8173 94.8767C74.9481 94.787 75.066 94.6799 75.1679 94.5584L84.6338 83.2553L92.6035 72.7993C94.9189 70.043 95.3715 66.7383 93.8701 64.0552H108.415C108.879 64.0552 109.324 63.8708 109.652 63.5426C109.981 63.2144 110.165 62.7693 110.165 62.3052C110.165 61.8411 109.981 61.3959 109.652 61.0678C109.324 60.7396 108.879 60.5551 108.415 60.5551ZM54.8222 13.8803C54.8222 12.8582 55.1253 11.859 55.6931 11.0091C56.261 10.1592 57.0681 9.49678 58.0125 9.10561C58.9568 8.71444 59.9959 8.61208 60.9984 8.81148C62.0009 9.01088 62.9218 9.50308 63.6445 10.2258C64.3673 10.9486 64.8595 11.8694 65.0589 12.8719C65.2583 13.8744 65.156 14.9135 64.7649 15.8579C64.3737 16.8022 63.7113 17.6094 62.8614 18.1772C62.0116 18.7451 61.0124 19.0482 59.9902 19.0482C58.6201 19.0467 57.3064 18.5018 56.3376 17.5329C55.3687 16.5641 54.8237 15.2505 54.8222 13.8803ZM59.9902 22.5482C70.2271 22.5608 80.0656 26.5171 87.4612 33.5952C94.8569 40.6732 99.241 50.3286 99.7026 60.5551H20.2778C20.7393 50.3286 25.1234 40.673 32.5191 33.595C39.9148 26.5169 49.7533 22.5606 59.9902 22.5482ZM48.3515 81.8275C47.6708 81.9546 46.9724 81.9536 46.292 81.8246C45.3249 80.4851 44.5678 79.0058 44.0468 77.4379C43.7659 76.2557 43.6775 75.0359 43.7851 73.8256C43.9474 71.2912 43.6618 68.7481 42.9414 66.3129C42.6875 65.5036 42.3036 64.741 41.8047 64.0551H68.9702C68.8852 64.1635 68.7964 64.2641 68.7148 64.3793C67.2881 66.4252 65.1865 72.2631 64.6904 73.6693L60.2739 79.8524C58.0713 80.2357 51.2363 81.4159 48.3515 81.8275ZM74.1963 73.0854L66.7773 76.7694L67.6836 75.5014C67.7803 75.3655 67.8572 75.2165 67.9121 75.059C68.83 72.4252 70.6377 67.7406 71.5761 66.3949C73.0683 64.2973 75.6861 64.0549 77.5254 64.0549H82.458L74.1963 73.0854Z" fill="#005EB8"/>
<path d="M59.9902 28.2719C53.5409 28.2516 47.2669 30.3703 42.1502 34.2963C41.7814 34.5778 41.5396 34.9943 41.4778 35.4542C41.4161 35.914 41.5396 36.3796 41.8211 36.7484C42.1027 37.1172 42.5192 37.3591 42.979 37.4208C43.4389 37.4825 43.9044 37.359 44.2732 37.0775C48.7815 33.62 54.3086 31.7542 59.99 31.7719C60.4542 31.7719 60.8993 31.5875 61.2275 31.2593C61.5557 30.9311 61.74 30.486 61.74 30.0219C61.74 29.5578 61.5557 29.1126 61.2275 28.7845C60.8993 28.4563 60.4544 28.2719 59.9902 28.2719Z" fill="#005EB8"/>
<path d="M38.5966 40.0561C38.2207 39.784 37.7521 39.6723 37.2938 39.7454C36.8355 39.8185 36.425 40.0705 36.1523 40.4461C34.5234 42.6927 33.2213 45.159 32.2851 47.7713C32.2076 47.9876 32.1735 48.2171 32.1847 48.4467C32.1959 48.6762 32.2522 48.9013 32.3504 49.1091C32.4486 49.3168 32.5868 49.5032 32.7571 49.6576C32.9273 49.8119 33.1263 49.9312 33.3427 50.0086C33.5319 50.0768 33.7316 50.1115 33.9327 50.1111C34.2934 50.1111 34.6452 49.9996 34.9401 49.792C35.235 49.5843 35.4585 49.2906 35.5801 48.9511C36.4048 46.6508 37.5517 44.4792 38.9864 42.5011C39.1215 42.315 39.2185 42.1041 39.272 41.8805C39.3255 41.6569 39.3344 41.4249 39.2982 41.1978C39.262 40.9708 39.1814 40.753 39.061 40.5571C38.9406 40.3612 38.7828 40.191 38.5966 40.0561Z" fill="#005EB8"/>
</svg>
