<svg width="120" height="120" viewBox="0 0 120 120" fill="none" xmlns="http://www.w3.org/2000/svg">
<path d="M108.446 103.895H104.56C103.869 103.895 103.351 103.378 103.351 102.688V39.6477C103.351 37.3193 101.451 35.3358 99.0328 35.3358H76.6667C75.9758 35.3358 75.4577 34.8183 75.4577 34.1284V17.6569C75.4577 15.0697 73.3851 13 70.7945 13H49.1192C46.6149 13 44.5423 15.0697 44.5423 17.5706V53.1872C44.5423 53.8771 44.0242 54.3945 43.3333 54.3945H21.3126C18.7219 54.3945 16.563 56.5505 16.563 59.1376V101.912C16.563 102.947 15.6995 103.895 14.5769 103.895H11.5544C10.6908 103.895 10 104.585 10 105.448C10 106.31 10.6908 107 11.5544 107H108.446C108.877 107 109.223 106.828 109.568 106.569C109.827 106.31 110 105.879 110 105.448C110 104.585 109.309 103.895 108.446 103.895ZM100.242 41.3725V101.05C100.242 102.602 98.9465 103.895 97.3921 103.895H78.3938C76.8394 103.895 75.544 102.602 75.544 101.05V41.3725C75.544 39.8202 76.8394 38.5266 78.3938 38.5266H97.3921C98.9465 38.4404 100.242 39.7339 100.242 41.3725ZM72.3489 18.8642V101.222C72.3489 102.688 71.1399 103.895 69.6718 103.895H50.3282C48.8601 103.895 47.6511 102.688 47.6511 101.222V18.8642C47.6511 17.3982 48.8601 16.1908 50.3282 16.1908H69.6718C71.1399 16.1908 72.3489 17.3982 72.3489 18.8642ZM44.456 60.5174V101.05C44.456 102.688 43.1606 103.982 41.5199 103.982H22.6079C20.9672 103.982 19.6718 102.688 19.6718 101.05V60.5174C19.6718 58.8789 20.9672 57.5853 22.6079 57.5853H41.5199C43.1606 57.5853 44.456 58.8789 44.456 60.5174Z" fill="#005EB8"/>
<path d="M52.487 26.7982C52.487 27.2294 52.487 27.5743 52.487 28.0055C52.487 28.5229 52.9188 28.9541 53.437 28.9541H53.5233C54.0414 29.0404 54.5596 28.6092 54.5596 28.0917C54.6459 27.3156 54.6459 26.4532 54.5596 25.6771C54.4732 25.1596 54.0414 24.8147 53.6097 24.8147C53.0052 24.8147 52.5734 25.2459 52.487 25.7633C52.487 26.022 52.487 26.367 52.487 26.7982Z" fill="#005EB8"/>
<path d="M52.487 58.189C52.487 58.7064 52.9188 59.1376 53.5233 59.1376C54.1278 59.1376 54.5596 58.7064 54.5596 58.189C54.5596 57.844 54.5596 57.4991 54.5596 57.1541C54.5596 56.7229 54.5596 56.2917 54.5596 55.8606C54.5596 55.8606 54.5596 55.8605 54.5596 55.7743C54.4732 55.2569 54.0415 54.8257 53.437 54.9119H53.3506C52.8325 54.9119 52.4007 55.4294 52.487 55.9468C52.487 56.6367 52.487 57.4128 52.487 58.189C52.487 58.1028 52.487 58.1028 52.487 58.189Z" fill="#005EB8"/>
<path d="M67.5129 40.855C67.5129 40.7688 67.5129 40.7688 67.5129 40.855C67.5129 40.2514 67.0812 39.8202 66.4767 39.8202H66.3903C65.8722 39.8202 65.3541 40.2514 65.3541 40.7688C65.2677 41.545 65.2677 42.2349 65.3541 43.011C65.3541 43.6147 65.8722 44.0459 66.4767 44.0459C67.0812 44.0459 67.5129 43.5284 67.5129 42.9248C67.5129 42.5798 67.5129 42.2349 67.5129 41.8899C67.5129 41.545 67.5129 41.2 67.5129 40.855Z" fill="#005EB8"/>
<path d="M52.487 50.6862C52.487 51.2037 52.9188 51.6349 53.437 51.6349C53.9551 51.7211 54.4732 51.2899 54.4732 50.7725C54.5596 49.9101 54.5596 49.0477 54.4732 48.1853C54.3869 47.7541 54.0414 47.4092 53.5233 47.4092C52.9188 47.3229 52.4007 47.7541 52.4007 48.3578C52.4007 48.789 52.4007 49.1339 52.4007 49.5651C52.487 49.8239 52.487 50.255 52.487 50.6862Z" fill="#005EB8"/>
<path d="M61.0363 48.1853C60.9499 47.6679 60.5181 47.2367 60 47.3229C60 47.3229 60 47.3229 59.9136 47.3229C59.3955 47.3229 58.8774 47.7541 58.8774 48.2716C58.8774 48.6165 58.8774 48.9615 58.8774 49.3064C58.8774 49.7376 58.8774 50.1688 58.8774 50.6C58.8774 51.1174 59.3955 51.5486 59.9136 51.5486C60.4318 51.5486 60.8636 51.2037 60.9499 50.6862C61.1226 49.9101 61.1226 49.0477 61.0363 48.1853Z" fill="#005EB8"/>
<path d="M58.9637 58.189C58.9637 58.7927 59.4819 59.2239 60.0864 59.1376C60.6908 59.1376 61.1226 58.7064 61.1226 58.1028C61.1226 57.3266 61.1226 56.6367 61.1226 55.8606C61.1226 55.8606 61.1226 55.8605 61.1226 55.7743C61.1226 55.2569 60.6045 54.8257 60.0864 54.8257C59.5682 54.8257 59.0501 55.2569 59.0501 55.7743C59.0501 56.2055 59.0501 56.5505 59.0501 56.9817C58.9637 57.4128 58.8774 57.7578 58.9637 58.189C58.9637 58.1028 58.9637 58.1028 58.9637 58.189Z" fill="#005EB8"/>
<path d="M66.4767 47.3229C65.8722 47.3229 65.4404 47.7541 65.3541 48.2716C65.2677 49.0477 65.2677 49.8239 65.3541 50.6C65.3541 51.1174 65.8722 51.5486 66.3903 51.5486C66.9948 51.5486 67.4266 51.1174 67.4266 50.6C67.4266 50.1688 67.4266 49.8239 67.4266 49.3927C67.4266 49.0477 67.4266 48.7028 67.4266 48.3578C67.4266 48.3578 67.4266 48.3578 67.4266 48.2716C67.513 47.7541 67.0812 47.3229 66.4767 47.3229Z" fill="#005EB8"/>
<path d="M59.9136 44.0459C60.5181 44.0459 60.9499 43.6147 61.0363 43.0972C61.0363 42.6661 61.0363 42.3211 61.0363 41.8899C61.0363 41.4587 61.0363 41.1138 61.0363 40.6826C61.0363 40.6826 61.0363 40.6826 61.0363 40.5963C60.9499 40.0789 60.4318 39.6477 59.9136 39.7339C59.3955 39.7339 58.9637 40.1651 58.9637 40.6826C58.9637 41.4587 58.9637 42.1486 58.9637 42.9248C58.9637 43.5284 59.3955 44.0459 59.9136 44.0459Z" fill="#005EB8"/>
<path d="M54.5596 40.5963C54.4732 40.1651 54.1278 39.8202 53.6097 39.8202C53.0052 39.7339 52.487 40.1651 52.487 40.7688C52.487 41.2 52.487 41.545 52.487 41.9761C52.487 42.4073 52.487 42.7523 52.487 43.1835C52.5734 43.6147 52.9188 44.0459 53.3506 44.1321C53.9551 44.2183 54.4732 43.8734 54.5596 43.2697C54.6459 42.3211 54.6459 41.4587 54.5596 40.5963Z" fill="#005EB8"/>
<path d="M58.9637 27.833V27.9193C58.9637 28.5229 59.4819 28.9541 60 28.8679C60.5181 28.8679 61.0363 28.4367 61.0363 27.833C61.1226 27.0569 61.1226 26.367 61.0363 25.5908C61.0363 24.9872 60.5181 24.556 60 24.6422C59.3955 24.6422 58.9637 25.0734 58.9637 25.6771C58.9637 26.022 58.9637 26.367 58.9637 26.7119C58.9637 27.1431 58.8774 27.4881 58.9637 27.833Z" fill="#005EB8"/>
<path d="M66.563 32.2312C65.9585 32.2312 65.4404 32.6624 65.4404 33.1798C65.4404 33.956 65.4404 34.6459 65.4404 35.422V35.5083C65.4404 36.0257 65.9585 36.4569 66.4767 36.3706C66.4767 36.3706 66.4767 36.3706 66.563 36.3706C67.0812 36.3706 67.5993 35.9394 67.5993 35.422C67.5993 34.9908 67.5993 34.6459 67.5993 34.2147C67.5993 33.8697 67.5993 33.5248 67.5993 33.1798C67.513 32.7486 67.0812 32.3174 66.563 32.2312Z" fill="#005EB8"/>
<path d="M58.9637 35.5083C58.9637 36.0257 59.4819 36.4569 60 36.4569C60.5181 36.4569 60.9499 36.1119 61.0363 35.5945C61.1226 34.8183 61.1226 33.956 61.0363 33.0936V33.0073C60.9499 32.4899 60.5181 32.145 60 32.2312C59.4819 32.2312 59.0501 32.5761 58.9637 33.0936C58.9637 33.5248 58.9637 33.8697 58.9637 34.3009C58.9637 34.7321 58.8774 35.0771 58.9637 35.5083Z" fill="#005EB8"/>
<path d="M65.4404 28.0917C65.5268 28.6092 65.9585 29.0404 66.563 28.9541H66.6494C67.1675 28.9541 67.5993 28.4367 67.5993 27.9193C67.5993 27.5743 67.5993 27.2294 67.5993 26.8844C67.5993 26.4532 67.5993 26.1083 67.5993 25.6771C67.5993 25.1596 67.1675 24.7284 66.6494 24.7284C66.0449 24.7284 65.6131 25.0734 65.5268 25.6771C65.3541 26.4532 65.3541 27.2294 65.4404 28.0917C65.4404 28.0055 65.4404 28.0055 65.4404 28.0917Z" fill="#005EB8"/>
<path d="M66.4767 59.1376C66.9948 59.1376 67.4266 58.7064 67.4266 58.189C67.4266 57.7578 67.4266 57.4128 67.4266 56.9817C67.4266 56.5505 67.4266 56.1193 67.4266 55.6881C67.3402 55.2569 66.9948 54.9119 66.563 54.8257C65.9585 54.7395 65.4404 55.0844 65.3541 55.6881C65.2677 56.4642 65.2677 57.3266 65.3541 58.1028C65.4404 58.7927 65.9585 59.1376 66.4767 59.1376Z" fill="#005EB8"/>
<path d="M52.487 35.5945C52.487 36.1119 52.9188 36.4569 53.3506 36.4569C53.9551 36.5431 54.3869 36.2844 54.4732 35.6807C54.5596 34.8183 54.5596 33.8697 54.4732 33.0073V32.9211C54.3869 32.4037 53.8687 32.0587 53.3506 32.2312C52.8325 32.2312 52.4007 32.6624 52.4007 33.1798C52.4007 33.5248 52.4007 33.8697 52.4007 34.2147C52.487 34.7321 52.487 35.1633 52.487 35.5945Z" fill="#005EB8"/>
<path d="M54.5596 92.4257C54.4732 91.9083 54.0415 91.4771 53.437 91.5633H53.3506C52.8325 91.5633 52.4007 92.0807 52.487 92.5982C52.487 93.3743 52.487 94.0642 52.487 94.8404C52.487 95.3578 52.9188 95.789 53.5233 95.789C54.1278 95.789 54.5596 95.3578 54.5596 94.8404C54.5596 94.4954 54.5596 94.1505 54.5596 93.8055C54.6459 93.2881 54.6459 92.8569 54.5596 92.4257Z" fill="#005EB8"/>
<path d="M67.5129 78.5413C67.5129 78.1963 67.5129 77.8514 67.5129 77.5064C67.5129 76.989 67.0812 76.5578 66.4767 76.5578H66.3903C65.8722 76.5578 65.3541 76.989 65.3541 77.5064C65.2677 78.2826 65.2677 78.9725 65.3541 79.7486C65.3541 80.3523 65.8722 80.7835 66.4767 80.7835C67.0812 80.7835 67.5129 80.2661 67.5129 79.6624C67.5129 79.2312 67.5129 78.8862 67.5129 78.5413Z" fill="#005EB8"/>
<path d="M53.6097 83.9743C53.0052 83.8881 52.487 84.3193 52.487 84.9229C52.487 85.3541 52.487 85.6991 52.487 86.1303C52.487 86.5615 52.487 86.9064 52.487 87.3376C52.487 87.8551 52.9188 88.2862 53.437 88.2862C53.9551 88.3725 54.4732 87.9413 54.4732 87.4239C54.5596 86.5615 54.5596 85.6991 54.4732 84.8367C54.4732 84.3193 54.0414 83.9743 53.6097 83.9743Z" fill="#005EB8"/>
<path d="M61.0363 84.8367C60.9499 84.3193 60.5181 83.8881 60 83.9743C60 83.9743 60 83.9743 59.9136 83.9743C59.3955 83.9743 58.8774 84.4055 58.8774 84.9229C58.8774 85.2679 58.8774 85.6129 58.8774 85.9578C58.8774 86.389 58.8774 86.8202 58.8774 87.2514C58.8774 87.7688 59.3955 88.2 59.9136 88.2C60.4318 88.2 60.8636 87.8551 60.9499 87.3376C61.1226 86.4752 61.1226 85.6991 61.0363 84.8367Z" fill="#005EB8"/>
<path d="M61.0363 92.4257C61.0363 91.9083 60.5181 91.4771 60 91.4771C59.4819 91.4771 58.9637 91.9083 58.9637 92.4257C58.9637 92.8569 58.9637 93.2018 58.9637 93.633C58.9637 93.978 58.9637 94.3229 58.9637 94.6679V94.7541C58.9637 95.3578 59.4819 95.789 60.0864 95.7028C60.6908 95.7028 61.1226 95.2716 61.1226 94.6679C61.1226 93.978 61.1226 93.2018 61.0363 92.4257Z" fill="#005EB8"/>
<path d="M67.5129 84.9229C67.5129 84.4055 67.0812 83.9743 66.4767 83.9743C65.9585 83.9743 65.4404 84.4055 65.4404 84.9229C65.3541 85.6991 65.3541 86.4752 65.4404 87.2514C65.4404 87.7688 65.9585 88.2 66.4767 88.2C67.0812 88.2 67.5129 87.7688 67.5129 87.2514C67.5129 86.8202 67.5129 86.4752 67.5129 86.044C67.5129 85.6991 67.5129 85.3541 67.5129 84.9229Z" fill="#005EB8"/>
<path d="M60 80.6972C60.6045 80.6972 61.0363 80.2661 61.1226 79.7486C61.1226 79.3174 61.1226 78.9725 61.1226 78.5413C61.1226 78.1101 61.1226 77.7651 61.1226 77.334C61.1226 77.334 61.1226 77.3339 61.1226 77.2477C61.0363 76.7303 60.5181 76.2991 60 76.3853C59.4819 76.3853 59.0501 76.8165 59.0501 77.334C59.0501 78.1101 59.0501 78.8 59.0501 79.5762C58.9637 80.1798 59.3955 80.611 60 80.6972Z" fill="#005EB8"/>
<path d="M53.6097 76.3853C53.0052 76.2991 52.487 76.7303 52.487 77.334C52.487 77.7651 52.487 78.1101 52.487 78.5413C52.487 78.9725 52.487 79.3174 52.487 79.7486C52.5734 80.1798 52.9188 80.611 53.3506 80.6972C53.9551 80.7835 54.4732 80.4385 54.5596 79.8349C54.6459 78.9725 54.6459 78.1101 54.5596 77.2477C54.4732 76.8165 54.0414 76.4716 53.6097 76.3853Z" fill="#005EB8"/>
<path d="M60 62.156C59.3955 62.156 58.9637 62.5872 58.9637 63.1908C58.9637 63.5358 58.9637 63.8807 58.9637 64.2257C58.9637 64.5706 58.9637 64.9156 58.9637 65.2606V65.3468C58.9637 65.9505 59.4819 66.3817 60 66.2954C60.5181 66.2954 61.0363 65.8642 61.0363 65.2606C61.1226 64.4844 61.1226 63.7945 61.0363 63.0183C61.0363 62.5872 60.5181 62.156 60 62.156Z" fill="#005EB8"/>
<path d="M66.563 68.8826C65.9585 68.8826 65.4404 69.3138 65.4404 69.8312C65.4404 70.6073 65.4404 71.2972 65.4404 72.0734V72.1596C65.4404 72.6771 65.9585 73.1083 66.4767 73.022C66.4767 73.022 66.4767 73.022 66.563 73.022C67.0812 73.022 67.5993 72.5908 67.5993 72.0734C67.5993 71.6422 67.5993 71.2973 67.5993 70.8661C67.5993 70.5211 67.5993 70.1761 67.5993 69.8312C67.513 69.3138 67.0812 68.8826 66.563 68.8826Z" fill="#005EB8"/>
<path d="M60 73.1083C60.5181 73.1083 60.9499 72.7633 61.0363 72.2459C61.1226 71.4697 61.1226 70.6073 61.0363 69.745V69.6587C60.9499 69.1413 60.5181 68.7963 60 68.8826C59.4819 68.8826 59.0501 69.2275 58.9637 69.745C58.9637 70.1762 58.9637 70.5211 58.9637 70.9523C58.9637 71.3835 58.9637 71.7284 58.9637 72.1596C58.9637 72.6771 59.4819 73.1083 60 73.1083Z" fill="#005EB8"/>
<path d="M67.5129 63.1046C67.5129 62.5872 67.0812 62.156 66.563 62.156C65.9585 62.156 65.5268 62.5009 65.4404 63.1046C65.3541 63.8807 65.3541 64.6569 65.4404 65.433V65.5193C65.5268 66.0367 65.9585 66.4679 66.563 66.3817H66.6494C67.1675 66.3817 67.5993 65.8642 67.5993 65.3468C67.5993 65.0018 67.5993 64.6569 67.5993 64.3119C67.513 63.8807 67.5129 63.5358 67.5129 63.1046Z" fill="#005EB8"/>
<path d="M53.6097 62.156C53.0052 62.156 52.5734 62.5872 52.487 63.1046C52.487 63.4495 52.487 63.7945 52.487 64.1394C52.487 64.5706 52.487 64.9156 52.487 65.3468C52.487 65.8642 52.9188 66.2954 53.437 66.2954H53.5233C54.0414 66.3817 54.5596 65.9505 54.5596 65.433C54.6459 64.6569 54.6459 63.7945 54.5596 63.0183C54.4732 62.5872 54.1278 62.2422 53.6097 62.156Z" fill="#005EB8"/>
<path d="M67.5129 92.3395C67.4266 91.9083 67.0812 91.5633 66.6494 91.4771C66.0449 91.3908 65.5268 91.7358 65.4404 92.3395C65.3541 93.1156 65.3541 93.978 65.4404 94.7541C65.5268 95.2716 65.9585 95.7028 66.563 95.7028C67.0812 95.7028 67.5129 95.2716 67.5129 94.7541C67.5129 94.3229 67.5129 93.978 67.5129 93.5468C67.5129 93.2018 67.5129 92.7706 67.5129 92.3395Z" fill="#005EB8"/>
<path d="M52.487 72.1596C52.487 72.6771 52.9188 73.022 53.3506 73.022C53.9551 73.1083 54.3869 72.8495 54.4732 72.2459C54.5596 71.3835 54.5596 70.4349 54.4732 69.5725V69.4862C54.3869 68.9688 53.8687 68.6239 53.3506 68.7963C52.8325 68.7963 52.4007 69.2275 52.4007 69.745C52.4007 70.0899 52.4007 70.4349 52.4007 70.7798C52.487 71.2972 52.487 71.7284 52.487 72.1596Z" fill="#005EB8"/>
<path d="M25.9758 92.5982C25.8895 92.0807 25.4577 91.6495 24.8532 91.7358H24.7668C24.2487 91.7358 23.8169 92.2532 23.9033 92.7706C23.9033 93.5468 23.9033 94.2367 23.9033 95.0129C23.9033 95.5303 24.3351 95.9615 24.9395 95.9615C25.544 95.9615 25.9758 95.5303 25.9758 95.0129C25.9758 94.6679 25.9758 94.3229 25.9758 93.978C26.0622 93.5468 26.0622 93.1156 25.9758 92.5982C25.9758 92.6844 25.9758 92.6844 25.9758 92.5982Z" fill="#005EB8"/>
<path d="M38.9292 78.7138C38.9292 78.3688 38.9292 78.0239 38.9292 77.6789C38.9292 77.1615 38.4974 76.7303 37.8929 76.7303H37.8066C37.2884 76.7303 36.7703 77.1615 36.7703 77.6789C36.6839 78.455 36.6839 79.145 36.7703 79.9211C36.7703 80.5248 37.2884 80.956 37.8929 80.956C38.4974 80.956 38.9292 80.4385 38.9292 79.8349C38.9292 79.4899 38.9292 79.145 38.9292 78.7138Z" fill="#005EB8"/>
<path d="M25.9758 85.0092C25.8895 84.4917 25.3713 84.1468 24.9395 84.233C24.4214 84.233 23.9896 84.6642 23.9896 85.1817C23.9896 85.6128 23.9896 85.9578 23.9896 86.389C23.9896 86.8202 23.9896 87.1651 23.9896 87.5963C23.9896 88.1138 24.4214 88.545 24.9395 88.545C25.4577 88.6312 25.9758 88.2 25.9758 87.6826C26.0622 86.734 26.0622 85.8716 25.9758 85.0092Z" fill="#005EB8"/>
<path d="M32.4525 85.0954C32.3661 84.578 31.9344 84.1468 31.4162 84.233C31.4162 84.233 31.4162 84.233 31.3299 84.233C30.8117 84.233 30.2936 84.6642 30.2936 85.1817C30.2936 85.5266 30.2936 85.8716 30.2936 86.2165C30.2936 86.6477 30.2936 87.0789 30.2936 87.5101C30.2936 88.0275 30.8117 88.4587 31.3299 88.4587C31.848 88.4587 32.2798 88.1138 32.3661 87.5963C32.5389 86.7339 32.5389 85.9578 32.4525 85.0954Z" fill="#005EB8"/>
<path d="M32.4525 92.6844C32.4525 92.167 31.9344 91.7358 31.4162 91.7358C30.8981 91.7358 30.38 92.167 30.38 92.6844C30.38 93.1156 30.38 93.4606 30.38 93.8917C30.38 94.2367 30.38 94.5817 30.38 94.9266V95.0129C30.38 95.6165 30.8981 96.0477 31.5026 95.9615C32.1071 95.9615 32.5389 95.5303 32.5389 94.9266C32.5389 94.2367 32.5389 93.4606 32.4525 92.6844Z" fill="#005EB8"/>
<path d="M38.9292 85.1817C38.9292 84.6642 38.4974 84.233 37.8929 84.233C37.3748 84.233 36.8566 84.6642 36.8566 85.1817C36.7703 85.9578 36.7703 86.7339 36.8566 87.5101C36.8566 88.0275 37.3748 88.4587 37.8929 88.4587C38.4974 88.4587 38.9292 88.0275 38.9292 87.5101C38.9292 87.0789 38.9292 86.7339 38.9292 86.3028C38.9292 85.9578 38.9292 85.6128 38.9292 85.1817Z" fill="#005EB8"/>
<path d="M31.4162 80.956C32.0207 80.956 32.4525 80.5248 32.5389 80.0073C32.5389 79.5762 32.5389 79.2312 32.5389 78.8C32.5389 78.3688 32.5389 78.0239 32.5389 77.5927C32.5389 77.5927 32.5389 77.5927 32.5389 77.5064C32.4525 76.989 31.9344 76.5578 31.4162 76.644C30.8981 76.644 30.4663 77.0752 30.4663 77.5927C30.4663 78.3688 30.4663 79.0587 30.4663 79.8349C30.38 80.4385 30.8117 80.8697 31.4162 80.956Z" fill="#005EB8"/>
<path d="M25.9758 77.4202C25.8895 76.9028 25.3713 76.5578 24.9395 76.644C24.9395 76.644 24.9395 76.644 24.8532 76.644C24.3351 76.644 23.9033 77.0752 23.9033 77.5927C23.9033 78.0239 23.9033 78.3688 23.9033 78.8C23.9033 79.2312 23.9033 79.5762 23.9033 80.0073C23.9896 80.4385 24.3351 80.8697 24.7668 80.956C25.3713 81.0422 25.8895 80.6973 25.9758 80.0936C26.0622 79.2312 26.0622 78.3688 25.9758 77.4202Z" fill="#005EB8"/>
<path d="M31.4162 62.4147C30.8117 62.4147 30.38 62.8459 30.38 63.4495C30.38 63.7945 30.38 64.1395 30.38 64.4844C30.38 64.8294 30.38 65.1743 30.38 65.5193V65.6055C30.38 66.2092 30.8981 66.6404 31.4162 66.5541C31.9344 66.5541 32.4525 66.1229 32.4525 65.5193C32.5389 64.7431 32.5389 64.0532 32.4525 63.2771C32.4525 62.8459 31.9344 62.4147 31.4162 62.4147Z" fill="#005EB8"/>
<path d="M37.9793 69.1413C37.3748 69.1413 36.8566 69.5725 36.8566 70.0899C36.8566 70.8661 36.8566 71.556 36.8566 72.3321V72.4184C36.8566 72.9358 37.3748 73.367 37.8929 73.2807C37.8929 73.2807 37.8929 73.2807 37.9793 73.2807C38.4974 73.2807 39.0155 72.8495 39.0155 72.3321C39.0155 71.9009 39.0155 71.556 39.0155 71.1248C39.0155 70.7798 39.0155 70.4349 39.0155 70.0899C38.9292 69.5725 38.4974 69.1413 37.9793 69.1413Z" fill="#005EB8"/>
<path d="M31.4162 73.367C31.9344 73.367 32.3661 73.022 32.4525 72.5046C32.5389 71.7284 32.5389 70.8661 32.4525 70.0037V69.9174C32.3661 69.4 31.9344 69.0551 31.4162 69.1413C30.8981 69.1413 30.4663 69.4862 30.38 70.0037C30.38 70.4349 30.38 70.7798 30.38 71.211C30.38 71.6422 30.38 71.9872 30.38 72.4184C30.38 72.9358 30.8981 73.367 31.4162 73.367Z" fill="#005EB8"/>
<path d="M36.8566 65.778C36.943 66.2954 37.3748 66.7266 37.9793 66.6404H38.0656C38.5838 66.6404 39.0155 66.1229 39.0155 65.6055C39.0155 65.2605 39.0155 64.9156 39.0155 64.5706C39.0155 64.1394 39.0155 63.7945 39.0155 63.3633C39.0155 62.8459 38.5838 62.4147 38.0656 62.4147C37.4611 62.4147 37.0294 62.7596 36.943 63.3633C36.7703 64.1394 36.7703 64.9156 36.8566 65.778Z" fill="#005EB8"/>
<path d="M25.0259 62.4147C24.4214 62.4147 23.9896 62.8459 23.9033 63.3633C23.9033 63.7083 23.9033 64.0532 23.9033 64.3982C23.9033 64.8294 23.9033 65.1743 23.9033 65.6055C23.9033 66.1229 24.3351 66.5541 24.8532 66.5541H24.9395C25.4577 66.6404 25.9758 66.2092 25.9758 65.6917C26.0622 64.9156 26.0622 64.0532 25.9758 63.2771C25.8895 62.8459 25.544 62.4147 25.0259 62.4147Z" fill="#005EB8"/>
<path d="M38.9292 92.5982C38.8428 92.167 38.4974 91.822 38.0656 91.7358C37.4611 91.6495 36.943 91.9945 36.8566 92.5982C36.7703 93.3743 36.7703 94.2367 36.8566 95.0129C36.943 95.5303 37.3748 95.9615 37.9793 95.9615C38.4974 95.9615 38.9292 95.5303 38.9292 95.0129C38.9292 94.5817 38.9292 94.2367 38.9292 93.8055C38.9292 93.4606 38.9292 93.0294 38.9292 92.5982Z" fill="#005EB8"/>
<path d="M23.9033 72.4184C23.9033 72.9358 24.3351 73.2807 24.7668 73.2807C25.3713 73.367 25.8031 73.1083 25.8895 72.5046C25.9758 71.6422 25.9758 70.6936 25.8895 69.8312V69.745C25.8031 69.2275 25.285 68.8826 24.7668 69.055C24.2487 69.055 23.8169 69.4862 23.8169 70.0037C23.8169 70.3486 23.8169 70.6936 23.8169 71.0385C23.9033 71.556 23.9033 71.9872 23.9033 72.4184Z" fill="#005EB8"/>
<path d="M80.38 60.0862C80.38 60.6037 80.8117 61.0349 81.4162 61.0349C82.0207 61.0349 82.4525 60.6037 82.4525 60.0862C82.4525 59.7413 82.4525 59.3963 82.4525 59.0514C82.4525 58.6202 82.4525 58.189 82.4525 57.7578C82.4525 57.7578 82.4525 57.7578 82.4525 57.6716C82.3661 57.1541 81.9344 56.7229 81.3299 56.8092H81.2435C80.7254 56.8092 80.2936 57.3266 80.38 57.844C80.38 58.6202 80.38 59.3963 80.38 60.0862Z" fill="#005EB8"/>
<path d="M93.3333 44.9945C93.3333 45.5982 93.8515 46.0294 94.456 46.0294C95.0604 46.0294 95.4922 45.5119 95.4922 44.9083C95.4922 44.5633 95.4922 44.2183 95.4922 43.8734C95.4922 43.5284 95.4922 43.1835 95.4922 42.8385C95.4922 42.3211 95.0604 41.8899 94.456 41.8899H94.3696C93.8515 41.8899 93.3333 42.3211 93.3333 42.8385C93.247 43.4422 93.247 44.2183 93.3333 44.9945Z" fill="#005EB8"/>
<path d="M80.38 51.4624C80.38 51.8936 80.38 52.2385 80.38 52.6697C80.38 53.1009 80.8117 53.5321 81.2435 53.6183C81.848 53.7046 82.3661 53.3596 82.4525 52.756C82.5389 51.8936 82.5389 51.0312 82.4525 50.1688C82.3661 49.7376 82.0207 49.3927 81.5026 49.3927C80.8981 49.3064 80.38 49.7376 80.38 50.3413C80.38 50.6862 80.38 51.0312 80.38 51.4624Z" fill="#005EB8"/>
<path d="M88.9292 50.1688C88.8428 49.6514 88.4111 49.2202 87.8929 49.3064C87.8929 49.3064 87.8929 49.3064 87.8066 49.3064C87.2884 49.3064 86.7703 49.7376 86.7703 50.255C86.7703 50.6 86.7703 50.945 86.7703 51.2899C86.7703 51.7211 86.7703 52.1523 86.7703 52.5835C86.7703 53.1009 87.2884 53.5321 87.8066 53.5321C88.3247 53.5321 88.7565 53.1872 88.8428 52.6697C89.0155 51.8936 89.0155 51.0312 88.9292 50.1688Z" fill="#005EB8"/>
<path d="M86.8566 60.0862C86.8566 60.6899 87.3748 61.1211 87.9793 61.0349C88.5838 61.0349 89.0155 60.6037 89.0155 60C89.0155 59.2239 89.0155 58.5339 89.0155 57.7578C89.0155 57.7578 89.0155 57.7578 89.0155 57.6716C89.0155 57.1541 88.4974 56.7229 87.9793 56.7229C87.4611 56.7229 86.943 57.1541 86.943 57.6716C86.943 58.1028 86.943 58.4477 86.943 58.8789C86.8566 59.3101 86.7703 59.7413 86.8566 60.0862Z" fill="#005EB8"/>
<path d="M94.3696 49.3064C93.7651 49.3064 93.3333 49.7376 93.247 50.255C93.1606 51.0312 93.1606 51.8073 93.247 52.5835C93.247 53.1009 93.7651 53.5321 94.2832 53.5321C94.8877 53.5321 95.3195 53.1009 95.3195 52.5835C95.3195 52.1523 95.3195 51.8073 95.3195 51.3761C95.3195 51.0312 95.3195 50.6862 95.3195 50.3413C95.3195 50.3413 95.3195 50.3413 95.3195 50.255C95.4059 49.7376 94.9741 49.3064 94.3696 49.3064Z" fill="#005EB8"/>
<path d="M87.8066 46.0294C88.411 46.0294 88.8428 45.5982 88.9292 45.0807C88.9292 44.6495 88.9292 44.3046 88.9292 43.8734C88.9292 43.4422 88.9292 43.0972 88.9292 42.6661C88.9292 42.6661 88.9292 42.6661 88.9292 42.5798C88.8428 42.0624 88.3247 41.6312 87.8066 41.7174C87.2884 41.7174 86.8566 42.1486 86.8566 42.6661C86.8566 43.4422 86.8566 44.1321 86.8566 44.9083C86.8566 45.5119 87.2884 46.0294 87.8066 46.0294Z" fill="#005EB8"/>
<path d="M80.38 43.8734C80.38 44.3046 80.38 44.6495 80.38 45.0807C80.4663 45.5119 80.8117 45.9431 81.2435 46.0294C81.848 46.1156 82.3661 45.7706 82.4525 45.167C82.5389 44.3046 82.5389 43.4422 82.4525 42.5798C82.3661 42.1486 82.0207 41.8037 81.5026 41.8037C80.8981 41.7174 80.38 42.1486 80.38 42.7523C80.38 43.0972 80.38 43.5284 80.38 43.8734Z" fill="#005EB8"/>
<path d="M94.3696 61.1211C94.8877 61.1211 95.3195 60.6899 95.3195 60.1725C95.3195 59.7413 95.3195 59.3963 95.3195 58.9651C95.3195 58.5339 95.3195 58.1028 95.3195 57.6716C95.2332 57.2404 94.8877 56.8954 94.456 56.8092C93.8515 56.7229 93.3333 57.0679 93.247 57.6716C93.247 58.5339 93.247 59.3963 93.3333 60.1725C93.3333 60.6899 93.8515 61.1211 94.3696 61.1211Z" fill="#005EB8"/>
<path d="M82.4525 94.3229C82.3661 93.8055 81.9344 93.3743 81.3299 93.4606H81.2435C80.7254 93.4606 80.2936 93.978 80.38 94.4954C80.38 95.2716 80.38 95.9615 80.38 96.7376C80.38 97.2551 80.8117 97.7725 81.4162 97.6862C82.0207 97.6862 82.4525 97.2551 82.4525 96.7376C82.4525 96.3927 82.4525 96.0477 82.4525 95.7028C82.5389 95.2716 82.5389 94.8404 82.4525 94.3229C82.4525 94.4092 82.4525 94.4092 82.4525 94.3229Z" fill="#005EB8"/>
<path d="M95.4059 80.4385C95.4059 80.0936 95.4059 79.7486 95.4059 79.4037C95.4059 78.8862 94.9741 78.455 94.3696 78.455H94.2832C93.7651 78.455 93.247 78.8862 93.247 79.4037C93.1606 80.1798 93.1606 80.8697 93.247 81.6459C93.247 82.2495 93.7651 82.6807 94.3696 82.6807C94.9741 82.6807 95.4059 82.1633 95.4059 81.5596C95.4059 81.2147 95.4059 80.8697 95.4059 80.4385Z" fill="#005EB8"/>
<path d="M81.5026 85.9578C80.8981 85.8716 80.38 86.3028 80.38 86.9064C80.38 87.3376 80.38 87.6826 80.38 88.1138C80.38 88.545 80.38 88.8899 80.38 89.3211C80.38 89.8385 80.8117 90.2697 81.3299 90.2697C81.848 90.356 82.3661 89.9248 82.3661 89.4073C82.4525 88.545 82.4525 87.6826 82.3661 86.8202C82.3661 86.3028 81.9344 85.9578 81.5026 85.9578Z" fill="#005EB8"/>
<path d="M88.9292 86.8202C88.8428 86.3028 88.4111 85.8716 87.8929 85.9578C87.8929 85.9578 87.8929 85.9578 87.8066 85.9578C87.2884 85.9578 86.7703 86.389 86.7703 86.9064C86.7703 87.2514 86.7703 87.5963 86.7703 87.9413C86.7703 88.3725 86.7703 88.8037 86.7703 89.2349C86.7703 89.7523 87.2884 90.1835 87.8066 90.1835C88.3247 90.1835 88.7565 89.8385 88.8428 89.3211C89.0155 88.4587 89.0155 87.6826 88.9292 86.8202Z" fill="#005EB8"/>
<path d="M88.9292 94.4092C88.9292 93.8917 88.4111 93.4606 87.8929 93.4606C87.3748 93.4606 86.8566 93.8917 86.8566 94.4092C86.8566 94.8404 86.8566 95.1853 86.8566 95.6165C86.8566 95.9615 86.8566 96.3064 86.8566 96.6514V96.7376C86.8566 97.3413 87.3748 97.7725 87.9793 97.6862C88.5838 97.6862 89.0155 97.255 89.0155 96.6514C89.0155 95.9615 89.0155 95.1853 88.9292 94.4092Z" fill="#005EB8"/>
<path d="M95.4059 86.9064C95.4059 86.389 94.9741 85.9578 94.3696 85.9578C93.8515 85.9578 93.3333 86.389 93.3333 86.9064C93.247 87.6826 93.247 88.4587 93.3333 89.2349C93.3333 89.7523 93.8515 90.1835 94.3696 90.1835C94.9741 90.1835 95.4059 89.7523 95.4059 89.2349C95.4059 88.8037 95.4059 88.4587 95.4059 88.0275C95.4059 87.6826 95.4059 87.3376 95.4059 86.9064Z" fill="#005EB8"/>
<path d="M87.8929 82.6807C88.4974 82.6807 88.9292 82.2495 89.0155 81.7321C89.0155 81.3009 89.0155 80.956 89.0155 80.5248C89.0155 80.0936 89.0155 79.7486 89.0155 79.3174C89.0155 79.3174 89.0155 79.3174 89.0155 79.2312C88.9292 78.7138 88.4111 78.2826 87.8929 78.3688C87.3748 78.3688 86.943 78.8 86.943 79.3174C86.943 80.0936 86.943 80.7835 86.943 81.5596C86.8566 82.1633 87.2884 82.5945 87.8929 82.6807Z" fill="#005EB8"/>
<path d="M81.5026 78.3688C80.8981 78.2826 80.38 78.7138 80.38 79.3174C80.38 79.7486 80.38 80.0936 80.38 80.5248C80.38 80.956 80.38 81.3009 80.38 81.7321C80.4663 82.1633 80.8117 82.5945 81.2435 82.6807C81.848 82.767 82.3661 82.422 82.4525 81.8184C82.5389 80.956 82.5389 80.0936 82.4525 79.2312C82.3661 78.8 81.9344 78.455 81.5026 78.3688Z" fill="#005EB8"/>
<path d="M87.8929 64.1394C87.2884 64.1394 86.8566 64.5706 86.8566 65.1743C86.8566 65.5193 86.8566 65.8642 86.8566 66.2092C86.8566 66.5541 86.8566 66.8991 86.8566 67.244V67.3303C86.8566 67.9339 87.3748 68.3651 87.8929 68.2789C88.4111 68.2789 88.9292 67.8477 88.9292 67.244C89.0155 66.4679 89.0155 65.778 88.9292 65.0018C88.9292 64.5706 88.4111 64.1394 87.8929 64.1394Z" fill="#005EB8"/>
<path d="M94.456 70.8661C93.8515 70.8661 93.3333 71.2973 93.3333 71.8147C93.3333 72.5908 93.3333 73.2807 93.3333 74.0569V74.1431C93.3333 74.6606 93.8515 75.0917 94.3696 75.0055C94.3696 75.0055 94.3696 75.0055 94.456 75.0055C94.9741 75.0055 95.4922 74.5743 95.4922 74.0569C95.4922 73.6257 95.4922 73.2807 95.4922 72.8495C95.4922 72.5046 95.4922 72.1596 95.4922 71.8147C95.4059 71.2973 94.9741 70.8661 94.456 70.8661Z" fill="#005EB8"/>
<path d="M87.8929 75.0917C88.4111 75.0917 88.8428 74.7468 88.9292 74.2294C89.0155 73.4532 89.0155 72.5908 88.9292 71.7284V71.6422C88.8428 71.1248 88.4111 70.7798 87.8929 70.8661C87.3748 70.8661 86.943 71.211 86.8566 71.7284C86.8566 72.1596 86.8566 72.5046 86.8566 72.9358C86.8566 73.367 86.8566 73.7119 86.8566 74.1431C86.8566 74.6606 87.3748 75.0917 87.8929 75.0917Z" fill="#005EB8"/>
<path d="M95.4059 65.0881C95.4059 64.5706 94.9741 64.1394 94.456 64.1394C93.8515 64.1394 93.4197 64.4844 93.3333 65.0881C93.247 65.8642 93.247 66.6404 93.3333 67.4165V67.5028C93.4197 68.0202 93.8515 68.4514 94.456 68.3651H94.5423C95.0604 68.3651 95.4922 67.8477 95.4922 67.3303C95.4922 66.9853 95.4922 66.6404 95.4922 66.2954C95.4059 65.8642 95.4059 65.5193 95.4059 65.0881Z" fill="#005EB8"/>
<path d="M81.5026 64.1394C80.8981 64.1394 80.4663 64.5706 80.38 65.0881C80.38 65.433 80.38 65.778 80.38 66.1229C80.38 66.5541 80.38 66.8991 80.38 67.3303C80.38 67.8477 80.8117 68.2789 81.3299 68.2789H81.4162C81.9344 68.3651 82.4525 67.9339 82.4525 67.4165C82.5389 66.6404 82.5389 65.778 82.4525 65.0018C82.3661 64.5706 82.0207 64.2257 81.5026 64.1394Z" fill="#005EB8"/>
<path d="M95.4059 94.3229C95.3195 93.8917 94.9741 93.5468 94.5423 93.4606C93.9378 93.3743 93.4197 93.7193 93.3333 94.3229C93.247 95.0991 93.247 95.9615 93.3333 96.7376C93.4197 97.2551 93.8515 97.6862 94.456 97.6862C94.9741 97.6862 95.4059 97.2551 95.4059 96.7376C95.4059 96.3064 95.4059 95.9615 95.4059 95.5303C95.4059 95.1853 95.4059 94.7541 95.4059 94.3229Z" fill="#005EB8"/>
<path d="M80.38 74.1431C80.38 74.6606 80.8117 75.0055 81.2435 75.0055C81.848 75.0917 82.2798 74.833 82.3661 74.2294C82.4525 73.367 82.4525 72.4184 82.3661 71.556V71.4697C82.2798 70.9523 81.7617 70.6073 81.2435 70.7798C80.7254 70.7798 80.2936 71.211 80.2936 71.7284C80.2936 72.0734 80.2936 72.4184 80.2936 72.7633C80.38 73.2807 80.38 73.7119 80.38 74.1431Z" fill="#005EB8"/>
</svg>
