<svg width="120" height="120" viewBox="0 0 120 120" fill="none" xmlns="http://www.w3.org/2000/svg">
<path fill-rule="evenodd" clip-rule="evenodd" d="M19.8545 23.4524C20.1368 23.1631 20.5239 23 20.9281 23H99.6486C100.477 23 101.149 23.6716 101.149 24.5V35.0318L107.666 45.7409C107.875 45.9987 108 46.3271 108 46.6847C108 51.2353 105.155 55.1255 101.149 56.673V94.242H103.458C104.287 94.242 104.958 94.9136 104.958 95.742C104.958 96.5704 104.287 97.242 103.458 97.242H99.8661C99.7951 97.2523 99.7225 97.2576 99.6486 97.2576H20.9281C20.8553 97.2576 20.7831 97.2524 20.712 97.242H17.1339C16.3055 97.242 15.6339 96.5704 15.6339 95.742C15.6339 94.9136 16.3055 94.242 17.1339 94.242H19.4384L19.6947 56.8653C19.6953 56.7817 19.7027 56.6996 19.7164 56.6198C15.7808 55.0378 13 51.184 13 46.6847C13 46.327 13.1253 45.9984 13.3343 45.7406L19.6928 35.2924L19.4285 24.5368C19.4186 24.1328 19.5722 23.7418 19.8545 23.4524ZM22.6751 34.5364C22.9762 35.0042 23.0042 35.6219 22.6955 36.1291L16.0117 47.1119C16.2337 51.1649 19.5951 54.3878 23.7031 54.3878C27.9545 54.3878 31.4063 50.9361 31.4063 46.6847C31.4063 46.5173 31.4343 46.351 31.4892 46.1928L34.7329 36.8493H26.0706C25.2421 36.8493 24.5706 36.1778 24.5706 35.3493C24.5706 34.5209 25.2421 33.8493 26.0706 33.8493H36.8066C36.8298 33.8488 36.853 33.8488 36.8763 33.8493H52.0194C52.028 33.8493 52.0365 33.8493 52.0451 33.8493H68.9549C68.9635 33.8493 68.972 33.8493 68.9806 33.8493H84.1237C84.147 33.8488 84.1702 33.8488 84.1934 33.8493H95.5409C96.3693 33.8493 97.0409 34.5209 97.0409 35.3493C97.0409 36.1778 96.3693 36.8493 95.5409 36.8493H86.2671L89.4427 45.9968C89.5493 46.2028 89.6094 46.4368 89.6094 46.6847C89.6094 46.8112 89.6072 46.9372 89.6029 47.0627C89.8003 51.1388 93.1723 54.3878 97.2969 54.3878C97.8927 54.3878 98.4728 54.32 99.0299 54.1917C99.1782 54.1245 99.3392 54.0808 99.5085 54.0651C102.553 53.1528 104.808 50.4066 104.988 47.1118L98.3046 36.1291C98.0748 35.7516 98.0315 35.3128 98.1486 34.9202V26H22.4654L22.6751 34.5364ZM98.1486 57.3544C97.8676 57.3766 97.5835 57.3879 97.2969 57.3879C93.3903 57.3879 89.9704 55.2915 88.1016 52.163C86.2328 55.2915 82.8129 57.3879 78.9063 57.3879C74.9942 57.3879 71.5702 55.2856 69.7031 52.1499C67.8361 55.2856 64.4121 57.3879 60.5 57.3879C56.5934 57.3879 53.1735 55.2915 51.3047 52.163C49.4359 55.2915 46.016 57.3879 42.1094 57.3879C38.1974 57.3879 34.7734 55.2856 32.9063 52.1499C31.0392 55.2856 27.6152 57.3879 23.7031 57.3879C23.362 57.3879 23.0245 57.3719 22.6915 57.3406L22.4384 94.2576H73.6905V67.8817C73.6905 67.0533 74.3621 66.3817 75.1905 66.3817H89.3166C90.1451 66.3817 90.8166 67.0533 90.8166 67.8817V94.2576H98.1486V57.3544ZM87.8166 94.2576V69.3817H76.6905V94.2576H87.8166ZM34.41 46.9269C34.5381 51.0664 37.9391 54.3878 42.1094 54.3878C46.234 54.3878 49.6061 51.1388 49.8034 47.0627C49.7991 46.9373 49.7969 46.8112 49.7969 46.6847C49.7969 46.6523 49.7979 46.6198 49.8 46.5874L50.4331 36.8493H37.9086L34.41 46.9269ZM53.4394 36.8493L52.8078 46.5648C52.811 46.6043 52.8126 46.6443 52.8126 46.6847C52.8126 46.8112 52.8104 46.9372 52.806 47.0627C53.0034 51.1388 56.3754 54.3878 60.5 54.3878C64.7358 54.3878 68.1779 50.9612 68.203 46.7313L67.5606 36.8493H53.4394ZM70.5669 36.8493L71.2 46.5874C71.2021 46.6198 71.2031 46.6523 71.2031 46.6847C71.2031 50.936 74.655 54.3878 78.9063 54.3878C83.0309 54.3878 86.4029 51.1388 86.6003 47.0627C86.599 47.0241 86.5978 46.9855 86.5969 46.9468L83.0914 36.8493H70.5669ZM28.9605 66.0317C28.9605 65.2033 29.632 64.5317 30.4605 64.5317H64.8429C65.6713 64.5317 66.3429 65.2033 66.3429 66.0317V85.9744C66.3429 86.8029 65.6713 87.4744 64.8429 87.4744H30.4605C29.632 87.4744 28.9605 86.8029 28.9605 85.9744V66.0317ZM31.9605 67.5317V84.4744H63.3429V67.5317H31.9605Z" fill="#005EB8"/>
</svg>
